<?xml version="1.0" encoding="utf-8"?>
<!-- Uploaded to: SVG Repo, www.svgrepo.com, Generator: SVG Repo Mixer Tools -->
<svg fill="#000000" width="800px" height="800px" viewBox="0 0 32 32" version="1.1" xmlns="http://www.w3.org/2000/svg">
<title>adobelightroomclassic</title>
<path d="M27.709 12.451c0.001 0.007 0.001 0.014 0.001 0.022 0 0.066-0.029 0.125-0.076 0.165l-0 0c-0.024 0.012-0.052 0.019-0.082 0.019s-0.058-0.007-0.083-0.019l0.001 0.001c-0.26-0.14-0.563-0.245-0.883-0.298l-0.017-0.002c-0.334-0.064-0.719-0.1-1.112-0.1-0.022 0-0.044 0-0.066 0l0.003-0c-0.022-0.001-0.048-0.001-0.073-0.001-0.645 0-1.249 0.177-1.766 0.484l0.016-0.009c-0.508 0.319-0.909 0.765-1.166 1.293l-0.008 0.019c-0.261 0.559-0.413 1.214-0.413 1.904 0 0.034 0 0.067 0.001 0.1l-0-0.005c-0.001 0.028-0.001 0.061-0.001 0.094 0 0.487 0.073 0.958 0.21 1.4l-0.009-0.034c0.134 0.41 0.321 0.767 0.557 1.085l-0.007-0.010c0.213 0.291 0.474 0.533 0.774 0.718l0.012 0.007c0.552 0.329 1.214 0.527 1.923 0.537l0.003 0c0.014 0 0.031 0 0.048 0 0.366 0 0.727-0.019 1.083-0.055l-0.045 0.004c0.326-0.042 0.622-0.116 0.902-0.221l-0.028 0.009c0.027-0.027 0.065-0.044 0.107-0.044 0.035 0 0.067 0.012 0.093 0.032l-0-0c0.040 0.039 0.065 0.094 0.065 0.155 0 0.011-0.001 0.023-0.003 0.034l0-0.001v1.862c0.001 0.010 0.002 0.022 0.002 0.035 0 0.132-0.076 0.247-0.187 0.302l-0.002 0.001c-0.295 0.119-0.637 0.207-0.994 0.248l-0.018 0.002c-0.37 0.057-0.796 0.090-1.23 0.090-0.020 0-0.039-0-0.059-0l0.003 0c-0.649-0.001-1.277-0.092-1.872-0.26l0.049 0.012c-0.606-0.164-1.135-0.421-1.602-0.76l0.014 0.010c-0.48-0.343-0.885-0.753-1.213-1.221l-0.011-0.016c-0.341-0.491-0.615-1.061-0.791-1.672l-0.010-0.041c-0.176-0.637-0.277-1.368-0.277-2.122 0-0.027 0-0.053 0-0.080l-0 0.004c-0.001-0.047-0.002-0.103-0.002-0.159 0-1.126 0.268-2.189 0.745-3.129l-0.018 0.040c0.481-0.919 1.188-1.663 2.049-2.173l0.025-0.014c0.875-0.489 1.92-0.777 3.032-0.777 0.055 0 0.109 0.001 0.164 0.002l-0.008-0c0.449 0 0.892 0.027 1.327 0.080l-0.052-0.005c0.31 0.036 0.593 0.11 0.858 0.22l-0.021-0.008c0.085 0.055 0.14 0.15 0.14 0.258 0 0.015-0.001 0.030-0.003 0.044l0-0.002zM18.712 14.463c0 0.1-0.062 0.137-0.176 0.137-0.090-0.007-0.194-0.011-0.3-0.011-0.665 0-1.293 0.161-1.846 0.447l0.023-0.011c-0.237 0.123-0.44 0.277-0.611 0.461l-0.001 0.001v6.373c0 0.126-0.050 0.176-0.15 0.176h-2.174c-0.125 0-0.175-0.064-0.175-0.2v-6.923c0-0.3 0-0.612-0.012-0.937 0-0.325-0.012-0.65-0.025-0.975q-0.019-0.414-0.075-0.826c-0.001-0.005-0.001-0.012-0.001-0.018 0-0.035 0.010-0.068 0.026-0.095l-0 0.001c0.019-0.010 0.042-0.017 0.066-0.017 0.012 0 0.024 0.002 0.035 0.004l-0.001-0h1.974c0.112 0 0.187 0.062 0.237 0.2 0.040 0.083 0.070 0.18 0.087 0.281l0.001 0.006c0.025 0.125 0.037 0.262 0.050 0.387 0.012 0.137 0.012 0.287 0.012 0.45 0.33-0.43 0.728-0.788 1.181-1.064l0.019-0.011c0.463-0.283 1.023-0.45 1.622-0.45 0.018 0 0.037 0 0.055 0l-0.003-0c0.112 0 0.162 0.062 0.162 0.175zM11.714 21.86c-0.003 0.061-0.032 0.114-0.075 0.151l-0 0c-0.031 0.022-0.070 0.036-0.112 0.036h-7.136c-0.125 0-0.175-0.076-0.175-0.225v-12.77c0-0.125 0.050-0.175 0.162-0.175h2.212c0.087 0 0.125 0.050 0.125 0.137v10.497h5.199c0.112 0 0.15 0.061 0.125 0.175zM25.685 1.379h-19.369c-0.001 0-0.003 0-0.004 0-2.931 0-5.307 2.376-5.307 5.307 0 0.002 0 0.003 0 0.005v-0 18.62c0 0.001 0 0.003 0 0.004 0 2.931 2.376 5.307 5.307 5.307 0.002 0 0.003 0 0.005 0h19.369c0.001 0 0.003 0 0.004 0 2.931 0 5.307-2.376 5.307-5.307 0-0.002 0-0.003 0-0.005v0-18.62c0-0.001 0-0.003 0-0.004 0-2.931-2.376-5.307-5.307-5.307-0.002 0-0.003 0-0.005 0h0z"></path>
</svg>