<svg height="800" viewBox="0 0 32 32" width="800" xmlns="http://www.w3.org/2000/svg"><path d="m23.362 10.564c-.268.272-.639.44-1.05.44-.031 0-.062-.001-.092-.003h.004c-.01 0-.022 0-.033 0-.42 0-.801-.167-1.08-.438-.264-.288-.426-.673-.426-1.096 0-.019 0-.038.001-.056v.003c-.001-.016-.001-.034-.001-.053 0-.416.172-.791.449-1.059.288-.271.676-.437 1.104-.437h.012-.001c.023-.001.051-.002.078-.002.414 0 .788.168 1.059.439.256.28.413.654.413 1.064 0 .017 0 .034-.001.05v-.002c.001.017.001.037.001.056 0 .424-.166.809-.438 1.094l.001-.001zm.261 11.284c0 .137-.049.2-.161.2h-2.451c-.004 0-.009.001-.014.001-.097 0-.175-.079-.175-.175 0-.009.001-.018.002-.026v.001-9.622c0-.125.051-.175.164-.175h2.474c.112 0 .161.062.161.175zm-4.249.188h-2.613c-.005 0-.011.001-.017.001-.086 0-.159-.058-.181-.137v-.001l-1.025-2.974h-4.649l-.95 2.937c-.021.102-.11.177-.216.177-.007 0-.015 0-.022-.001h.001-2.349c-.137 0-.175-.076-.137-.225l4.024-11.585c.037-.125.075-.262.125-.412.048-.242.075-.521.075-.806 0-.002 0-.005 0-.007-.001-.005-.001-.01-.001-.016 0-.06.043-.111.1-.122h.001 3.237c.1 0 .15.037.162.1l4.561 12.871c.038.136 0 .2-.125.2zm6.311-20.657h-19.369c-.001 0-.003 0-.004 0-2.931 0-5.307 2.376-5.307 5.307v.005 18.62.004c0 2.931 2.376 5.307 5.307 5.307h.005 19.369.004c2.931 0 5.307-2.376 5.307-5.307 0-.002 0-.003 0-.005v-18.62c0-.001 0-.003 0-.004 0-2.931-2.376-5.307-5.307-5.307-.002 0-.003 0-.005 0zm-11.522 13.034c-.125-.387-.237-.762-.362-1.15s-.237-.75-.337-1.112c-.1-.35-.187-.675-.275-.975h-.025c-.135.652-.281 1.193-.456 1.72l.031-.108c-.187.6-.375 1.225-.575 1.849-.175.637-.362 1.225-.55 1.75h3.174c-.075-.264-.175-.575-.287-.901-.112-.336-.225-.699-.337-1.073z"/></svg>