<svg fill="none" height="800" viewBox="0 0 24 24" width="800" xmlns="http://www.w3.org/2000/svg"><path clip-rule="evenodd" d="m4.98488 2c-1.36942 0-2.38271 1.19858-2.33735 2.49844.04352 1.24881-.01302 2.86617-.42021 4.18515-.4084 1.32281-1.09912 2.16081-2.22732 2.26841v1.2146c1.1282.1076 1.81892.9456 2.22732 2.2685.40719 1.3189.46373 2.9363.42021 4.1851-.04536 1.2997.96793 2.4984 2.33755 2.4984h14.03182c1.3695 0 2.3826-1.1985 2.3372-2.4984-.0435-1.2488.013-2.8662.4202-4.1851.4086-1.3229 1.0975-2.1609 2.2257-2.2685v-1.2146c-1.1282-.1076-1.8171-.9456-2.2257-2.26841-.4072-1.31878-.4637-2.93634-.4202-4.18515.0454-1.29966-.9677-2.49844-2.3372-2.49844h-14.03222zm11.28632 11.7687c0 1.7899-1.3351 2.8754-3.5506 2.8754h-3.77145c-.10788 0-.21135-.0429-.28763-.1192-.07629-.0763-.11915-.1797-.11915-.2876v-9.35594c0-.10789.04286-.21135.11915-.28764.07628-.07629.17975-.11914.28763-.11914h3.74995c1.8473 0 3.0597 1.00067 3.0597 2.53708 0 1.07834-.8155 2.04384-1.8547 2.21284v.0564c1.4146.1552 2.3671 1.1347 2.3671 2.4878zm-3.9618-6.00463h-2.1505v3.03743h1.8112c1.4001 0 2.1722-.5638 2.1722-1.5716 0-.94434-.6639-1.46583-1.8329-1.46583zm-2.1505 4.24273v3.3474h2.2296c1.4577 0 2.2299-.585 2.2299-1.6843 0-1.0995-.7938-1.6633-2.3237-1.6633h-2.1358z" fill="#000" fill-rule="evenodd"/></svg>