<svg height="800" viewBox="0 0 256 256" width="800" xmlns="http://www.w3.org/2000/svg"><path d="m186.61523 94.00049a41.97934 41.97934 0 0 0 -24.61523-75.99949h-68a41.97934 41.97934 0 0 0 -24.61523 75.99949 41.93894 41.93894 0 0 0 .00048 67.99939 41.9892 41.9892 0 1 0 66.61475 33.99963v-35.05151a41.97356 41.97356 0 1 0 50.61523-66.94751zm1.38477-33.99949a26.02916 26.02916 0 0 1 -25.98047 25.99951l-.01953-.00051-.03857.001-25.96143-.001v-51.999h26a26.02947 26.02947 0 0 1 26 26zm-26 93.999a25.99952 25.99952 0 0 1 -.03857-51.999h.03857l.019-.00049a25.99976 25.99976 0 0 1 -.019 51.99949z"/></svg>