<svg height="800" viewBox="0 0 32 32" width="800" xmlns="http://www.w3.org/2000/svg"><path d="m27.709 12.451c.001.007.001.014.001.022 0 .066-.029.125-.076.165-.024.012-.052.019-.082.019s-.058-.007-.083-.019l.001.001c-.26-.14-.563-.245-.883-.298l-.017-.002c-.334-.064-.719-.1-1.112-.1-.022 0-.044 0-.066 0h.003c-.022-.001-.048-.001-.073-.001-.645 0-1.249.177-1.766.484l.016-.009c-.508.319-.909.765-1.166 1.293l-.008.019c-.261.559-.413 1.214-.413 1.904 0 .034 0 .067.001.1v-.005c-.001.028-.001.061-.001.094 0 .487.073.958.21 1.4l-.009-.034c.134.41.321.767.557 1.085l-.007-.01c.213.291.474.533.774.718l.012.007c.552.329 1.214.527 1.923.537h.003.048c.366 0 .727-.019 1.083-.055l-.045.004c.326-.042.622-.116.902-.221l-.028.009c.027-.027.065-.044.107-.044.035 0 .067.012.093.032.04.039.065.094.065.155 0 .011-.001.023-.003.034v-.001 1.862c.001.01.002.022.002.035 0 .132-.076.247-.187.302l-.002.001c-.295.119-.637.207-.994.248l-.018.002c-.37.057-.796.09-1.23.09-.02 0-.039 0-.059 0h.003c-.649-.001-1.277-.092-1.872-.26l.049.012c-.606-.164-1.135-.421-1.602-.76l.014.01c-.48-.343-.885-.753-1.213-1.221l-.011-.016c-.341-.491-.615-1.061-.791-1.672l-.01-.041c-.176-.637-.277-1.368-.277-2.122 0-.027 0-.053 0-.08v.004c-.001-.047-.002-.103-.002-.159 0-1.126.268-2.189.745-3.129l-.018.04c.481-.919 1.188-1.663 2.049-2.173l.025-.014c.875-.489 1.92-.777 3.032-.777.055 0 .109.001.164.002h-.008c.449 0 .892.027 1.327.08l-.052-.005c.31.036.593.11.858.22l-.021-.008c.085.055.14.15.14.258 0 .015-.001.03-.003.044v-.002zm-8.997 2.012c0 .1-.062.137-.176.137-.09-.007-.194-.011-.3-.011-.665 0-1.293.161-1.846.447l.023-.011c-.237.123-.44.277-.611.461l-.001.001v6.373c0 .126-.05.176-.15.176h-2.174c-.125 0-.175-.064-.175-.2v-6.923c0-.3 0-.612-.012-.937 0-.325-.012-.65-.025-.975q-.019-.414-.075-.826c-.001-.005-.001-.012-.001-.018 0-.035.01-.068.026-.095v.001c.019-.01.042-.017.066-.017.012 0 .024.002.035.004h-.001 1.974c.112 0 .187.062.237.2.04.083.07.18.087.281l.001.006c.025.125.037.262.05.387.012.137.012.287.012.45.33-.43.728-.788 1.181-1.064l.019-.011c.463-.283 1.023-.45 1.622-.45h.055-.003c.112 0 .162.062.162.175zm-6.998 7.397c-.003.061-.032.114-.075.151-.031.022-.07.036-.112.036h-7.136c-.125 0-.175-.076-.175-.225v-12.77c0-.125.05-.175.162-.175h2.212c.087 0 .125.05.125.137v10.497h5.199c.112 0 .15.061.125.175zm13.971-20.481h-19.369c-.001 0-.003 0-.004 0-2.931 0-5.307 2.376-5.307 5.307v.005 18.62.004c0 2.931 2.376 5.307 5.307 5.307h.005 19.369.004c2.931 0 5.307-2.376 5.307-5.307 0-.002 0-.003 0-.005v-18.62c0-.001 0-.003 0-.004 0-2.931-2.376-5.307-5.307-5.307-.002 0-.003 0-.005 0z"/></svg>