<svg fill="none" height="800" viewBox="0 0 24 24" width="800" xmlns="http://www.w3.org/2000/svg"><g fill="#000"><path d="m7.90451 6.92144c.5089-.46649.54328-1.2572.07679-1.7661-.46649-.50889-1.2572-.54327-1.7661-.07678zm-6.44257 4.20996.84466.9215zm0 .7372.84466-.9215zm4.75326 6.0528c.5089.4665 1.29961.4322 1.7661-.0767s.43211-1.2997-.07679-1.7661zm0-12.84284-5.597913 5.13144 1.689313 1.8429 5.59791-5.13146zm-5.597913 7.71144 5.597913 5.1314 1.68931-1.8428-5.59791-5.1315zm0-2.58c-.756643.6936-.756643 1.8864 0 2.58l1.689313-1.8429c.32427.2973.32427.8085 0 1.1058z"/><path d="m16.0557 16.0786c-.5089.4664-.5432 1.2572-.0768 1.7661.4665.5089 1.2572.5432 1.7661.0767zm6.4426-4.21-.8446-.9215zm0-.7372-.8446.9215zm-4.7533-6.05284c-.5089-.46649-1.2996-.43211-1.766.07678-.4665.5089-.4322 1.29961.0767 1.7661zm0 12.84284 5.598-5.1314-1.6893-1.8429-5.598 5.1315zm5.598-7.7114-5.598-5.13144-1.6893 1.84288 5.598 5.13146zm0 2.58c.7566-.6936.7566-1.8864 0-2.58l-1.6893 1.8429c-.3243-.2973-.3243-.8085 0-1.1058z"/><path d="m15.2127 3.80317c.1674-.66974-.2398-1.34841-.9095-1.51585-.6698-.16743-1.3484.23977-1.5159.90951zm-6.42538 15.39363c-.16743.6698.23977 1.3484.90951 1.5159.66977.1674 1.34837-.2398 1.51587-.9095zm3.99998-15.99997-3.99998 15.99997 2.42538.6064 4-16.00003z"/></g></svg>