<svg xmlns="http://www.w3.org/2000/svg" viewBox="0 0 24 24"><g data-name="Layer 2"><circle cx="13" cy="12" r="1"/><path d="M14,2H12A7,7,0,0,0,5,8.76l-1.9,3.8A1,1,0,0,0,4,14H5v4a1,1,0,0,0,1,1H8v2a1,1,0,0,0,1,1h8a1,1,0,0,0,1-1v-.5a3.62,3.62,0,0,1,1.11-2.64l.19-.26A8.55,8.55,0,0,0,21,12.5V9A7,7,0,0,0,14,2Zm2,11h-.18a3,3,0,0,1-.12.29l.13.13a1,1,0,1,1-1.41,1.41l-.13-.13-.29.12V15a1,1,0,0,1-2,0v-.18l-.29-.12-.13.13a1,1,0,0,1-1.41-1.41l.13-.13a3,3,0,0,1-.12-.29H10a1,1,0,0,1,0-2h.18a3,3,0,0,1,.12-.29l-.13-.13a1,1,0,0,1,1.41-1.41l.13.13L12,9.18V9a1,1,0,0,1,2,0v.18l.29.12.13-.13a1,1,0,0,1,1.41,1.41l-.13.13a3,3,0,0,1,.12.29H16a1,1,0,0,1,0,2Z"/></g></svg>