<svg xmlns="http://www.w3.org/2000/svg" xmlns:xlink="http://www.w3.org/1999/xlink" width="264" height="55"><defs><path id="A" d="M0 .015h54.374V54.39H0z"/><path id="B" d="M0 54.68h263.02V.306H0z"/></defs><g fill="none" fill-rule="evenodd"><g transform="translate(0 .291)"><mask id="C" fill="#fff"><use xlink:href="#A"/></mask><path d="M54.374 27.202c0 15.015-12.172 27.187-27.187 27.187S0 42.217 0 27.202 12.172.015 27.187.015s27.187 12.172 27.187 27.187" fill="#fced4d" mask="url(#C)"/></g><path d="M39.68 17.886c-.001.04-.007.08-.01.117-.006.044-.005.1-.014.133-.014.078-.042.153-.067.227l-.035.115a1.72 1.72 0 0 1-.127.24l-.04.075a1.97 1.97 0 0 1-.23.281l-.02.022a1.83 1.83 0 0 1-1.281.523c-.975 0-1.767-.765-1.825-1.725v-.12a1.8 1.8 0 0 1 .394-1.118l.16-.17c.343-.338.797-.526 1.28-.526a1.82 1.82 0 0 1 1.814 1.814v.114zm0 16.807a3.04 3.04 0 0 0-1.825-.61 3.1 3.1 0 0 0-1.825.6V24.13l3.65-3.843v14.406zm0 2.453a1.83 1.83 0 0 1-1.458 1.789 1.91 1.91 0 0 1-.367.037 1.92 1.92 0 0 1-.368-.037 1.83 1.83 0 0 1-1.457-1.789v-.12c.058-.96.85-1.727 1.825-1.727s1.767.767 1.825 1.727v.12zm-3.65-16.92a3.05 3.05 0 0 0 1.474.588l-1.474 1.55v-2.138zm-1.216 3.42l-4.597 4.84c-.123-.72-.498-1.356-1.033-1.8l-1.138-1.2 6.768-7.127v5.297zm-6.35 6.62a1.82 1.82 0 0 1-1.291.534c-.483 0-.937-.186-1.28-.526l-.01-.01c-.3-.328-.506-.77-.507-1.255 0-.113.012-.223.033-.332.001-.006.001-.015.002-.02a1.81 1.81 0 0 1 .499-.933l.012-.01.01-.01.047-.05c.326-.298.757-.485 1.232-.485a1.82 1.82 0 0 1 1.183.445l.048.05.01.01.013.01a1.81 1.81 0 0 1 .535 1.29 1.82 1.82 0 0 1-.535 1.292zm-4.26-1.77l-4.653-4.903v-5.297l6.817 7.18-1.207 1.27a3.05 3.05 0 0 0-.956 1.75zm-5.87-10.452c-.134.883-.9 1.564-1.808 1.564-.452 0-.86-.17-1.18-.442l-.104-.112-.01-.01-.01-.012a1.82 1.82 0 0 1-.495-.925 1.87 1.87 0 0 1-.034-.337c0-.505.206-.963.536-1.296a1.82 1.82 0 0 1 1.283-.529 1.83 1.83 0 0 1 1.825 1.825v.273zm0 4.268L16.897 20.8c.534-.065 1.025-.268 1.437-.572v2.085zm0 12.318c-.507-.375-1.13-.597-1.808-.597-.692 0-1.33.233-1.84.62v-14.42l3.65 3.844v10.55zm0 2.516a1.89 1.89 0 0 1-.138.7 1.83 1.83 0 0 1-1.67 1.084 1.84 1.84 0 0 1-1.836-1.837 1.84 1.84 0 0 1 1.836-1.835c.92 0 1.674.68 1.808 1.562v.335zm22.563-19.134l.01-.176.002-.054-.002-.055-.013-.243c-.005-.06-.015-.115-.024-.17l-.018-.123-.05-.196-.023-.1-.073-.207-.025-.07-.103-.22c-.01-.015-.015-.03-.022-.046a3.05 3.05 0 0 0-2.389-1.614 2.5 2.5 0 0 0-.312-.017 2.58 2.58 0 0 0-.312.017 3.03 3.03 0 0 0-2.109 1.181l-8.23 8.665-8.418-8.866c-.103-.114-.214-.223-.335-.322a3.04 3.04 0 0 0-1.944-.704c-.778 0-1.556.297-2.15.9a3.04 3.04 0 0 0-.89 2.164l-.001 19.4c0 1.68 1.362 3.042 3.04 3.042 1.262 0 2.345-.77 2.805-1.865.168-.38.264-.798.264-1.24a3.45 3.45 0 0 0-.027-.39V25.36l5.288 5.57.2.234a3.04 3.04 0 0 0 2.152.891l.2-.01.095-.005c.846-.078 1.594-.503 2.098-1.13l5.22-5.497v11.503l-.012.22c0 1.58 1.202 2.88 2.74 3.036l.312.017a2.95 2.95 0 0 0 .312-.017c1.538-.155 2.74-1.456 2.74-3.036l-.01-.22V18.013zm33.315 17.745v-8.48c0-2.088-1.092-3.984-3.244-3.984-2.12 0-3.37 1.896-3.37 3.984v8.48h-3.92V19.9h3.63l.3 1.927c.834-1.606 2.665-2.184 4.175-2.184 1.895 0 3.792.77 4.7 2.955 1.412-2.25 3.243-2.9 5.3-2.9 4.5 0 6.715 2.762 6.715 7.516v8.545h-3.92v-8.545c0-2.087-.867-3.854-2.987-3.854s-3.437 1.832-3.437 3.92v8.48h-3.92zm22.114-7.934c0 3.02 2.087 4.82 4.7 4.82 6.166 0 6.166-9.606 0-9.606-2.603 0-4.7 1.767-4.7 4.787zm9.508-7.9h3.757v15.835h-3.694l-.193-2.314c-.897 1.864-3.373 2.763-5.14 2.795-4.7.033-8.16-2.858-8.16-8.416 0-5.46 3.63-8.32 8.256-8.287 2.12 0 4.146.995 5.043 2.568l.13-2.183zm10.966 7.514c0 2.763 1.863 4.4 4.145 4.4 2.247 0 4.112-1.67 4.112-4.4s-1.865-4.465-4.112-4.465c-2.28 0-4.145 1.703-4.145 4.465zm9.348-9.123l2.9 2.184-1.766 2.25c1.22 1.38 1.67 2.955 1.67 4.7 0 1.96-.738 4.723-3.34 5.9 2.635 1.317 3.276 3.212 3.276 5.238 0 4.368-3.34 7.065-7.934 7.065s-8.03-2.793-8.03-7.065h3.886c0 2.056 1.895 3.403 4.145 3.403s4.016-1.22 4.016-3.403-2.058-3.182-4.016-3.182c-4.948 0-8.03-3.02-8.03-7.966s3.597-8.03 8.03-8.03c1.253 0 2.538.16 3.63.9l1.575-1.992zm18.592 17.443V27.47c0-2.4-1.318-4.24-3.823-4.24-2.4 0-4.048 2.023-4.048 4.433v8.095h-3.887V19.9h3.5l.257 2.153c1.607-1.574 3.213-2.38 5.203-2.38 3.728 0 6.714 2.795 6.714 7.774v8.32h-3.918zm20.058-9.765c-.258-2.055-1.865-3.083-4.112-3.083-2.122 0-3.857 1.028-4.434 3.083h8.545zm-8.6 3.245c.258 1.96 1.96 3.374 4.722 3.374 1.446 0 3.342-.546 4.242-1.478l2.505 2.472c-1.67 1.735-4.4 2.57-6.8 2.57-5.46 0-8.705-3.373-8.705-8.45 0-4.818 3.275-8.288 8.416-8.288 5.3 0 8.608 3.278 7.998 9.798h-12.37zm21.052-13.782v4.498h4.368v3.372h-4.4v6.843c0 1.5.835 2.248 2.056 2.248.6 0 1.315-.192 1.894-.48l1.092 3.34a8.77 8.77 0 0 1-3.244.675c-3.44.128-5.687-1.832-5.687-5.783v-6.843h-2.954v-3.372h2.954v-4.08l3.92-.418zm11.015 12.4c0 2.4 1.447 4.658 4.305 4.658s4.305-2.248 4.305-4.658c0-2.376-1.67-4.7-4.305-4.7-2.825 0-4.305 2.313-4.305 4.7m12.56 0c0 4.562-3.115 8.256-8.256 8.256s-8.222-3.694-8.222-8.256c0-4.53 3.148-8.256 8.2-8.256s8.288 3.727 8.288 8.256" fill="#232323"/><mask id="D" fill="#fff"><use xlink:href="#B"/></mask><path mask="url(#D)" d="M204.54 35.757h1.574V13.27h-1.574zm6.682-7.934c0 3.983 2.9 6.65 6.487 6.65 8.835 0 8.835-13.267 0-13.267-3.597 0-6.487 2.633-6.487 6.617zm14.55-7.934v15.868h-1.574v-3.372c-1.542 2.472-3.918 3.63-6.5 3.63-4.43 0-8.062-3.342-8.062-8.192s3.632-8.127 8.062-8.127c2.572 0 5.174 1.2 6.5 3.662v-3.47h1.574zm6.34 7.91c0 3.95 2.76 6.683 6.488 6.683 3.566 0 6.5-2.25 6.5-6.65 0-4.464-2.923-6.682-6.5-6.682-3.662 0-6.488 2.698-6.488 6.65zm-.033-14.52v10.088c1.285-2.57 3.856-3.726 6.585-3.726 4.434 0 7.967 2.955 7.967 8.2 0 5.27-3.502 8.192-7.935 8.192-2.7 0-5.3-1.35-6.617-3.758v3.5h-1.542V13.27h1.542zm29.296 9.5c-1.606-1.413-3.18-1.67-4.948-1.67-2.474-.033-4.85.9-4.786 2.923.065 2.12 2.825 2.538 4.818 2.9 2.827.482 6.714.965 6.553 4.658-.096 3.5-3.726 4.433-6.52 4.433s-5.558-1.06-6.94-3.178l1.157-1.03c1.316 1.895 3.693 2.7 5.814 2.7 1.927 0 4.85-.513 4.946-3.02.065-2.28-2.57-2.73-5.172-3.148-3.084-.514-6.136-1.092-6.168-4.273-.032-3.116 3.084-4.466 6.296-4.432 2.315 0 4.337.642 5.9 2.12l-.963 1.03z" fill="#232323"/></g></svg>