<svg xmlns="http://www.w3.org/2000/svg" enable-background="new 0 0 512 512" version="1" viewBox="0 0 512 512"><path fill="#FF26BE" d="M93.867,12.801h324.267c51.733,0,93.867,42.133,93.867,93.867v311.467
			c0,51.733-42.133,93.867-93.867,93.867H93.867c-51.733,0-93.867-42.133-93.867-93.867V106.668
			C0.001,54.934,42.134,12.801,93.867,12.801"/><path fill="#2E001F" d="M98.133,34.134h315.733c42.667,0,76.8,34.133,76.8,76.8v302.933c0,42.667-34.133,76.8-76.8,76.8H98.133
			c-42.667,0-76.8-34.133-76.8-76.8V110.934C21.333,68.268,55.466,34.134,98.133,34.134"/><g><path fill="#FFF" d="M205.28,257.32l60.041,116.436c1.072,1.715,0.429,3.431-1.287,3.431h-37.526
			c-1.973,0.261-3.857-0.905-4.503-2.788c-13.724-28.305-27.733-57.682-42.029-88.132h-0.214
			c-12.866,28.734-26.804,60.041-40.742,88.346c-0.703,1.484-2.219,2.41-3.86,2.359H99.565c-2.144,0-2.359-1.715-1.287-3.002
			l58.969-113.006l-56.824-112.577c-0.746-0.719-0.768-1.907-0.049-2.653c0.402-0.417,0.974-0.625,1.55-0.563h36.882
			c2.144,0,3.216,0.429,3.86,2.359c13.509,28.734,27.018,56.824,39.884,85.558h0.429c12.437-28.305,26.161-56.824,39.241-84.915
			c1.072-1.715,1.715-2.788,3.86-2.788h34.524c1.715,0,2.359,1.287,1.287,3.216L205.28,257.32z M278.401,292.058
			c0-49.963,32.165-88.989,84.915-88.989c3.722-0.075,7.445,0.068,11.15,0.429v-55.752c0-1.184,0.96-2.144,2.144-2.144l0,0h34.524
			c1.715,0,2.144,0.643,2.144,1.715v195.991c-0.126,7.021,0.232,14.043,1.072,21.014c0,1.501,0,1.715-1.287,2.359
			c-17.146,8.175-35.899,12.424-54.895,12.437C311.638,379.117,278.401,350.383,278.401,292.058z M374.467,237.163
			c-3.942-1.606-8.185-2.337-12.437-2.144c-26.804,0-45.031,20.8-45.031,55.323c0,39.455,18.441,55.323,42.457,55.323
			c5.036,0.141,10.054-0.659,14.796-2.359V237.163H374.467z"/><path fill="#FF26BE" d="M205.28,257.32l60.041,116.436c1.072,1.715,0.429,3.431-1.287,3.431h-37.526
				c-1.973,0.261-3.857-0.905-4.503-2.788c-13.724-28.305-27.733-57.682-42.029-88.132h-0.214
				c-12.866,28.734-26.804,60.041-40.742,88.346c-0.703,1.484-2.219,2.41-3.86,2.359H99.565c-2.144,0-2.359-1.715-1.287-3.002
				l58.969-113.006l-56.824-112.577c-0.746-0.719-0.768-1.907-0.049-2.653c0.402-0.417,0.974-0.625,1.55-0.563h36.882
				c2.144,0,3.216,0.429,3.86,2.359c13.509,28.734,27.018,56.824,39.884,85.558h0.429c12.437-28.305,26.161-56.824,39.241-84.915
				c1.072-1.715,1.715-2.788,3.86-2.788h34.524c1.715,0,2.359,1.287,1.287,3.216L205.28,257.32z M278.401,292.058
				c0-49.963,32.165-88.989,84.915-88.989c3.722-0.075,7.445,0.068,11.15,0.429v-55.752c0-1.184,0.96-2.144,2.144-2.144l0,0h34.524
				c1.715,0,2.144,0.643,2.144,1.715v195.991c-0.126,7.021,0.232,14.043,1.072,21.014c0,1.501,0,1.715-1.287,2.359
				c-17.146,8.175-35.899,12.424-54.895,12.437C311.638,379.117,278.401,350.383,278.401,292.058z M374.467,237.163
				c-3.942-1.606-8.185-2.337-12.437-2.144c-26.804,0-45.031,20.8-45.031,55.323c0,39.455,18.441,55.323,42.457,55.323
				c5.036,0.141,10.054-0.659,14.796-2.359V237.163H374.467z" opacity=".15"/></g></svg>