<svg xmlns="http://www.w3.org/2000/svg" enable-background="new 0 0 512 512" version="1" viewBox="0 0 512 512"><path fill="#ADD5EC" d="M93.867,12.801h324.267c51.733,0,93.867,42.133,93.867,93.867v311.467
			c0,51.733-42.133,93.867-93.867,93.867H93.867c-51.733,0-93.867-42.133-93.867-93.867V106.668
			C0.001,54.934,42.134,12.801,93.867,12.801"/><path fill="#0A2431" d="M98.133,34.134h315.733c42.667,0,76.8,34.133,76.8,76.8v302.933c0,42.667-34.133,76.8-76.8,76.8H98.133
			c-42.667,0-76.8-34.133-76.8-76.8V110.934C21.333,68.268,55.466,34.134,98.133,34.134"/><g><path fill="#FFF" d="M299.392,241.098c0-2.667,0-8.533-1.067-20.8c0-1.067,0.533-2.667,1.6-2.667
				c25.067-9.6,51.733-14.933,78.4-14.933c1.6,0,2.667,0.533,2.667,2.133v30.933c0,1.6-0.533,2.133-2.667,2.133
				c-13.333-0.533-33.067,1.067-40.533,4.267v134.4c0,1.6-0.533,2.667-2.667,2.667h-33.067c-1.6,0-2.667-0.533-2.667-2.667V241.098z
				 M141.526,379.231c-2.667,0-3.2-1.067-3.2-3.2V146.698c0-1.6,0.533-2.667,2.667-2.667h33.6c1.6,0,2.133,0.533,2.133,2.667
				v197.333h88c1.6,0,2.133,0.533,2.133,2.667l-5.333,30.405c0,1.595-1.6,2.667-3.2,2.667h-116.8V379.231z"/><path fill="#ADD5EC" d="M299.392,241.098c0-2.667,0-8.533-1.067-20.8c0-1.067,0.533-2.667,1.6-2.667
				c25.067-9.6,51.733-14.933,78.4-14.933c1.6,0,2.667,0.533,2.667,2.133v30.933c0,1.6-0.533,2.133-2.667,2.133
				c-13.333-0.533-33.067,1.067-40.533,4.267v134.4c0,1.6-0.533,2.667-2.667,2.667h-33.067c-1.6,0-2.667-0.533-2.667-2.667V241.098z
				 M141.526,379.231c-2.667,0-3.2-1.067-3.2-3.2V146.698c0-1.6,0.533-2.667,2.667-2.667h33.6c1.6,0,2.133,0.533,2.133,2.667
				v197.333h88c1.6,0,2.133,0.533,2.133,2.667l-5.333,30.405c0,1.595-1.6,2.667-3.2,2.667h-116.8V379.231z" opacity=".15"/></g></svg>