<svg xmlns="http://www.w3.org/2000/svg" enable-background="new 0 0 512 512" version="1" viewBox="0 0 512 512"><path fill="#35FA00" d="M93.867,12.801h324.267c51.733,0,93.867,42.133,93.867,93.867v311.467
			c0,51.733-42.133,93.867-93.867,93.867H93.867c-51.733,0-93.867-42.133-93.867-93.867V106.668
			C0.001,54.934,42.134,12.801,93.867,12.801"/><path fill="#072600" d="M98.133,34.134h315.733c42.667,0,76.8,34.133,76.8,76.8v302.933c0,42.667-34.133,76.8-76.8,76.8H98.133
			c-42.667,0-76.8-34.133-76.8-76.8V110.934C21.333,68.268,55.466,34.134,98.133,34.134"/><g><path fill="#FFF" d="M66.445,149.841c0-1.664,0-2.496,2.496-2.496c7.488,0,30.785-0.832,54.082-0.832
			c69.891,0,104.005,44.93,104.005,110.661c0,91.524-59.907,119.605-106.501,119.605c-17.473,0-43.266,0-52.418-0.832
			c-1.664,0-1.664-0.832-1.664-2.496L66.445,149.841z M103.886,342.874c5.824,0,10.816,0.832,17.473,0.832
			c38.274,0,66.563-27.457,67.603-85.7c0-56.578-29.121-79.043-65.731-79.043c-6.391-0.175-12.786,0.103-19.137,0.832
			L103.886,342.874z M367.642,375.323c-2.496,0-3.328-0.832-3.328-3.328c-9.984-57.202-19.137-98.18-22.465-125.637l0,0
			c-4.16,26.001-12.481,67.603-26.625,126.469c-0.832,1.664-1.664,2.496-3.328,2.496h-33.281c-2.496,0-3.328,0-4.16-2.496
			l-36.402-163.911c0-1.664,0-2.496,2.496-2.496h33.281c1.664,0,2.496,0.832,2.496,1.664
			c13.313,74.051,18.305,112.325,20.801,127.302h1.664c2.288-17.473,9.568-54.914,24.753-126.469
			c0.832-1.664,0.832-2.496,2.496-2.496h34.945c1.664,0,1.664,0.832,2.496,2.496c12.481,67.603,20.801,109.829,22.465,127.302h0.832
			c3.328-21.633,7.488-51.586,22.465-128.134c-0.187-1.192,0.628-2.309,1.819-2.496c0.224-0.035,0.453-0.035,0.677,0h31.825
			c1.664,0,2.496,0.832,1.664,2.496l-40.978,163.911c0,1.664-0.832,2.496-3.328,2.496
			C400.923,374.491,367.642,375.323,367.642,375.323z"/><path fill="#35FA00" d="M66.445,149.841c0-1.664,0-2.496,2.496-2.496c7.488,0,30.785-0.832,54.082-0.832
				c69.891,0,104.005,44.93,104.005,110.661c0,91.524-59.907,119.605-106.501,119.605c-17.473,0-43.266,0-52.418-0.832
				c-1.664,0-1.664-0.832-1.664-2.496L66.445,149.841z M103.886,342.874c5.824,0,10.816,0.832,17.473,0.832
				c38.274,0,66.563-27.457,67.603-85.7c0-56.578-29.121-79.043-65.731-79.043c-6.391-0.175-12.786,0.103-19.137,0.832
				L103.886,342.874z M367.642,375.323c-2.496,0-3.328-0.832-3.328-3.328c-9.984-57.202-19.137-98.18-22.465-125.637l0,0
				c-4.16,26.001-12.481,67.603-26.625,126.469c-0.832,1.664-1.664,2.496-3.328,2.496h-33.281c-2.496,0-3.328,0-4.16-2.496
				l-36.402-163.911c0-1.664,0-2.496,2.496-2.496h33.281c1.664,0,2.496,0.832,2.496,1.664
				c13.313,74.051,18.305,112.325,20.801,127.302h1.664c2.288-17.473,9.568-54.914,24.753-126.469
				c0.832-1.664,0.832-2.496,2.496-2.496h34.945c1.664,0,1.664,0.832,2.496,2.496c12.481,67.603,20.801,109.829,22.465,127.302
				h0.832c3.328-21.633,7.488-51.586,22.465-128.134c-0.187-1.192,0.628-2.309,1.819-2.496c0.224-0.035,0.453-0.035,0.677,0h31.825
				c1.664,0,2.496,0.832,1.664,2.496l-40.978,163.911c0,1.664-0.832,2.496-3.328,2.496
				C400.923,374.491,367.642,375.323,367.642,375.323z" opacity=".15"/></g></svg>