<svg xmlns="http://www.w3.org/2000/svg" enable-background="new 0 0 512 512" version="1" viewBox="0 0 512 512"><path fill="#FF3F94" d="M93.867,12.801h324.267c51.733,0,93.867,42.133,93.867,93.867v311.467
			c0,51.733-42.133,93.867-93.867,93.867H93.867c-51.733,0-93.867-42.133-93.867-93.867V106.668
			C0.001,54.934,42.134,12.801,93.867,12.801"/><path fill="#2E0013" d="M98.133,34.134h315.733c42.667,0,76.8,34.133,76.8,76.8v302.933c0,42.667-34.133,76.8-76.8,76.8H98.133
			c-42.667,0-76.8-34.133-76.8-76.8V110.934C21.333,68.268,55.466,34.134,98.133,34.134"/><g><path fill="#FFF" d="M361.252,346.175V148.378c0-0.845,0-1.691-1.691-1.691h-34.657c-0.911,0.052-1.638,0.779-1.691,1.691
			v55.789h-10.989c-53.253,0-87.065,39.729-87.065,89.812c0,59.17,33.811,87.91,80.302,87.91
			c19.298-0.313,38.31-4.706,55.789-12.891c1.691-0.845,1.691-0.845,1.691-2.536C361.608,359.786,361.041,352.98,361.252,346.175z
			 M322.369,346.175c-4.884,1.73-10.034,2.589-15.215,2.536c-24.513,0-43.955-15.849-43.955-55.789
			c0-34.657,19.442-55.789,46.491-55.789c4.281,0.031,8.54,0.599,12.679,1.691V346.175z M184.587,146.687h-32.966
			c-1.211-0.19-2.346,0.638-2.536,1.848c-0.036,0.228-0.036,0.46,0,0.688V375.76c-0.19,1.211,0.638,2.346,1.848,2.536
			c0.228,0.036,0.46,0.036,0.688,0h32.121c2.536,0,2.536-0.845,2.536-2.536V149.223
			C186.911,147.533,186.911,146.687,184.587,146.687z"/><path fill="#FF3F94" d="M361.252,346.175V148.378c0-0.845,0-1.691-1.691-1.691h-34.657c-0.911,0.052-1.638,0.779-1.691,1.691
				v55.789h-10.989c-53.253,0-87.065,39.729-87.065,89.812c0,59.17,33.811,87.91,80.302,87.91
				c19.298-0.313,38.31-4.706,55.789-12.891c1.691-0.845,1.691-0.845,1.691-2.536C361.608,359.786,361.041,352.98,361.252,346.175z
				 M322.369,346.175c-4.884,1.73-10.034,2.589-15.215,2.536c-24.513,0-43.955-15.849-43.955-55.789
				c0-34.657,19.442-55.789,46.491-55.789c4.281,0.031,8.54,0.599,12.679,1.691V346.175z M184.587,146.687h-32.966
				c-1.211-0.19-2.346,0.638-2.536,1.848c-0.036,0.228-0.036,0.46,0,0.688V375.76c-0.19,1.211,0.638,2.346,1.848,2.536
				c0.228,0.036,0.46,0.036,0.688,0h32.121c2.536,0,2.536-0.845,2.536-2.536V149.223
				C186.911,147.533,186.911,146.687,184.587,146.687z" opacity=".15"/></g></svg>