<svg xmlns="http://www.w3.org/2000/svg" viewBox="0 0 64 64"><path fill="#222" d="M54.373,38.2085A6.6328,6.6328,0,1,1,47.74,31.5757,6.64,6.64,0,0,1,54.373,38.2085ZM43.6152,46.9v6.94a1,1,0,0,0,1.4845.8747l1.914-1.06a1.4993,1.4993,0,0,1,1.4531,0l1.9129,1.06a1,1,0,0,0,1.4846-.8748V46.9007A9.5111,9.5111,0,0,1,43.6152,46.9ZM60.04,8.42V46.77a1,1,0,0,1-1,1H54.86v-3.1a9.5425,9.5425,0,0,0,2.51-6.46,9.63,9.63,0,1,0-16.75,6.46v3.1H4.96a1,1,0,0,1-1-1V8.42a1,1,0,0,1,1-1H59.04A1,1,0,0,1,60.04,8.42ZM21.35,15.49a1.498,1.498,0,0,0,1.5,1.5h18.3a1.5,1.5,0,1,0,0-3H22.85A1.498,1.498,0,0,0,21.35,15.49ZM34.94,35.93a1.498,1.498,0,0,0-1.5-1.5H11.03a1.5,1.5,0,0,0,0,3H33.44A1.498,1.498,0,0,0,34.94,35.93Zm2.05-6.81a1.498,1.498,0,0,0-1.5-1.5H11.03a1.5,1.5,0,1,0,0,3H35.49A1.498,1.498,0,0,0,36.99,29.12ZM54.47,22.3a1.5044,1.5044,0,0,0-1.5-1.5H11.03a1.5,1.5,0,1,0,0,3H52.97A1.498,1.498,0,0,0,54.47,22.3Z" data-name="Certificate"/></svg>