<?xml version="1.0" encoding="UTF-8" standalone="no"?>
<svg xmlns:dc="http://purl.org/dc/elements/1.1/" xmlns:cc="http://creativecommons.org/ns#" xmlns:rdf="http://www.w3.org/1999/02/22-rdf-syntax-ns#" xmlns:svg="http://www.w3.org/2000/svg" xmlns="http://www.w3.org/2000/svg" xmlns:sodipodi="http://sodipodi.sourceforge.net/DTD/sodipodi-0.dtd" xmlns:inkscape="http://www.inkscape.org/namespaces/inkscape" width="16px" height="16px" viewBox="0 0 16 16" id="svg2" version="1.1" inkscape:version="0.91 r13725" sodipodi:docname="62.svg">
  <defs id="defs4">
    <pattern y="0" x="0" height="6" width="6" patternUnits="userSpaceOnUse" id="EMFhbasepattern"/>
    <pattern y="0" x="0" height="6" width="6" patternUnits="userSpaceOnUse" id="EMFhbasepattern-3"/>
    <pattern y="0" x="0" height="6" width="6" patternUnits="userSpaceOnUse" id="EMFhbasepattern-2"/>
    <pattern y="0" x="0" height="6" width="6" patternUnits="userSpaceOnUse" id="EMFhbasepattern-8"/>
  </defs>
  <sodipodi:namedview id="base" pagecolor="#ffffff" bordercolor="#666666" borderopacity="1.0" inkscape:pageopacity="0.0" inkscape:pageshadow="2" inkscape:zoom="22.4" inkscape:cx="-2.0200938" inkscape:cy="6.5286182" inkscape:document-units="px" inkscape:current-layer="layer1" showgrid="true" units="px" inkscape:window-width="1366" inkscape:window-height="715" inkscape:window-x="-8" inkscape:window-y="-8" inkscape:window-maximized="1" inkscape:snap-bbox="true" inkscape:bbox-paths="true" inkscape:bbox-nodes="true" inkscape:snap-bbox-edge-midpoints="true" inkscape:snap-bbox-midpoints="true" inkscape:snap-global="false">
    <inkscape:grid type="xygrid" id="grid3336"/>
  </sodipodi:namedview>
  
  <g inkscape:label="Layer 1" inkscape:groupmode="layer" id="layer1" transform="translate(0,-1036.3622)">
    <path style="color:#000000;font-style:normal;font-variant:normal;font-weight:normal;font-stretch:normal;font-size:medium;line-height:normal;font-family:sans-serif;text-indent:0;text-align:start;text-decoration:none;text-decoration-line:none;text-decoration-style:solid;text-decoration-color:#000000;letter-spacing:normal;word-spacing:normal;text-transform:none;direction:ltr;block-progression:tb;writing-mode:lr-tb;baseline-shift:baseline;text-anchor:start;white-space:normal;clip-rule:nonzero;display:inline;overflow:visible;visibility:visible;opacity:1;isolation:auto;mix-blend-mode:normal;color-interpolation:sRGB;color-interpolation-filters:linearRGB;solid-color:#000000;solid-opacity:1;fill:#000000;fill-opacity:1;fill-rule:nonzero;stroke:none;stroke-width:1;stroke-linecap:butt;stroke-linejoin:miter;stroke-miterlimit:4;stroke-dasharray:none;stroke-dashoffset:0;stroke-opacity:1;color-rendering:auto;image-rendering:auto;shape-rendering:auto;text-rendering:auto;enable-background:accumulate" d="M 13.005859 1.3984375 L 12.558594 2.2949219 C 12.558594 2.2949219 12.200054 3.0160531 11.832031 3.7519531 C 11.64802 4.1198531 11.462073 4.4915438 11.318359 4.7773438 C 11.246499 4.9202438 11.183598 5.0423594 11.138672 5.1308594 C 11.093742 5.2188594 11.045882 5.3098781 11.070312 5.2675781 L 11.001953 5.3828125 L 11.001953 6.0175781 L 11.007812 11.705078 L 11.007812 12.267578 L 11.007812 13.955078 C 11.007812 14.505278 11.428888 15.017578 12.007812 15.017578 L 14.007812 15.017578 C 14.586738 15.017578 15.007812 14.505278 15.007812 13.955078 L 15.007812 12.267578 L 15.007812 11.705078 L 15.007812 5.4003906 L 13.005859 1.3984375 z M 5.5078125 2.0175781 C 4.1330229 2.0175781 3.0078125 3.1427781 3.0078125 4.5175781 C 3.0078125 5.3216926 3.3994742 6.0321004 3.9941406 6.4902344 L 2.9570312 10.017578 L 1.4921875 10.017578 L 0.9921875 10.017578 L 0.9921875 11.017578 L 1.4921875 11.017578 L 2.6621094 11.017578 L 1.5273438 14.876953 L 2.4863281 15.158203 L 3.7050781 11.017578 L 5.0078125 11.017578 L 5.0078125 11.517578 L 5.0078125 12.017578 L 6.0078125 12.017578 L 6.0078125 11.517578 L 6.0078125 11.017578 L 7.3183594 11.017578 L 8.5273438 15.158203 L 9.4863281 14.876953 L 8.359375 11.017578 L 9.5097656 11.017578 L 10.009766 11.017578 L 10.009766 10.017578 L 9.5097656 10.017578 L 8.0664062 10.017578 L 7.0332031 6.4804688 C 7.6209955 6.0219387 8.0078125 5.3162331 8.0078125 4.5175781 C 8.0078125 3.1427781 6.8826021 2.0175781 5.5078125 2.0175781 z M 5.5078125 3.0175781 C 6.3421619 3.0175781 7.0078125 3.6832781 7.0078125 4.5175781 C 7.0078125 5.3519781 6.3421619 6.0175781 5.5078125 6.0175781 C 4.6734631 6.0175781 4.0078125 5.3519781 4.0078125 4.5175781 C 4.0078125 3.6832781 4.6734631 3.0175781 5.5078125 3.0175781 z M 13.007812 3.6347656 L 13.699219 5.0175781 L 12.314453 5.0175781 C 12.442006 4.7638529 12.579468 4.491402 12.726562 4.1972656 C 12.868623 3.9132551 12.889021 3.8727 13.007812 3.6347656 z M 12.001953 6.0175781 A 0.50005 0.50005 0 0 0 12.007812 6.0175781 L 14.007812 6.0175781 L 14.007812 11.705078 L 14.007812 12.017578 L 12.007812 12.017578 L 12.007812 11.705078 L 12.001953 6.0175781 z M 6.1230469 6.9296875 L 7.0253906 10.017578 L 6.0078125 10.017578 L 6.0078125 9.5175781 L 6.0078125 9.0175781 L 5.0078125 9.0175781 L 5.0078125 9.5175781 L 5.0078125 10.017578 L 3.9980469 10.017578 L 4.9042969 6.9335938 C 5.0987485 6.982561 5.2987366 7.0175781 5.5078125 7.0175781 C 5.7212148 7.0175781 5.9249467 6.9806359 6.1230469 6.9296875 z M 12.007812 13.017578 L 14.007812 13.017578 L 14.007812 13.955078 C 14.007812 14.028078 13.982893 14.015625 14.007812 14.015625 L 12.007812 14.015625 C 12.032742 14.015625 12.007813 14.028078 12.007812 13.955078 L 12.007812 13.017578 z " transform="translate(0,1036.3622)" id="path5103"/>
  </g>

	
	
	<metadata>
		<rdf:RDF xmlns:rdf="http://www.w3.org/1999/02/22-rdf-syntax-ns#" xmlns:rdfs="http://www.w3.org/2000/01/rdf-schema#" xmlns:dc="http://purl.org/dc/elements/1.1/">
			<rdf:Description about="https://iconscout.com/legal#licenses" dc:title="Compass, Pen, Pencil, Graphic, Design, Shape" dc:description="Compass, Pen, Pencil, Graphic, Design, Shape" dc:publisher="Iconscout" dc:date="2016-12-14" dc:format="image/svg+xml" dc:language="en">
				<dc:creator>
					<rdf:Bag>
						<rdf:li>Jemis Mali</rdf:li>
					</rdf:Bag>
				</dc:creator>
			</rdf:Description>
		</rdf:RDF>
    </metadata></svg>
