<svg xmlns="http://www.w3.org/2000/svg" data-name="Layer 1" viewBox="0 0 24 24"><path d="M19,5.292V2h1a1,1,0,0,0,0-2H4A1,1,0,0,0,4,2H5V5.292a6.963,6.963,0,0,0,3.87,6.261L9.764,12l-.894.447A6.963,6.963,0,0,0,5,18.708V22H4a1,1,0,0,0,0,2H20a1,1,0,0,0,0-2H19V18.708a6.963,6.963,0,0,0-3.87-6.261L14.236,12l.894-.447A6.963,6.963,0,0,0,19,5.292Zm-12,0V2H17V5.292a4.972,4.972,0,0,1-2.764,4.472L12,10.882,9.764,9.764A4.972,4.972,0,0,1,7,5.292ZM17,18.708V22H7V18.708a4.972,4.972,0,0,1,2.764-4.472L12,13.118l2.236,1.118A4.972,4.972,0,0,1,17,18.708Z"/><path d="M10.659 7.975a1 1 0 0 0 .894-1.789A.994.994 0 0 1 11 5.292a1 1 0 0 0-2 0A2.984 2.984 0 0 0 10.659 7.975zM13.341 16.025a1 1 0 0 0-.894 1.789.994.994 0 0 1 .553.894 1 1 0 0 0 2 0A2.984 2.984 0 0 0 13.341 16.025z"/></svg>