<?xml version="1.0" encoding="UTF-8" standalone="no"?>
<svg xmlns:dc="http://purl.org/dc/elements/1.1/" xmlns:cc="http://creativecommons.org/ns#" xmlns:rdf="http://www.w3.org/1999/02/22-rdf-syntax-ns#" xmlns:svg="http://www.w3.org/2000/svg" xmlns="http://www.w3.org/2000/svg" xmlns:sodipodi="http://sodipodi.sourceforge.net/DTD/sodipodi-0.dtd" xmlns:inkscape="http://www.inkscape.org/namespaces/inkscape" width="16px" height="16px" viewBox="0 0 16 16" id="svg2" version="1.1" inkscape:version="0.91 r13725" sodipodi:docname="19.svg">
  <defs id="defs4"/>
  <sodipodi:namedview id="base" pagecolor="#ffffff" bordercolor="#666666" borderopacity="1.0" inkscape:pageopacity="0.0" inkscape:pageshadow="2" inkscape:zoom="15.839192" inkscape:cx="0.26577938" inkscape:cy="9.7943954" inkscape:document-units="px" inkscape:current-layer="layer1" showgrid="true" units="px" inkscape:window-width="1366" inkscape:window-height="715" inkscape:window-x="-8" inkscape:window-y="-8" inkscape:window-maximized="1" inkscape:snap-bbox="true" inkscape:bbox-paths="true" inkscape:bbox-nodes="true" inkscape:snap-bbox-edge-midpoints="true" inkscape:snap-bbox-midpoints="true">
    <inkscape:grid type="xygrid" id="grid3336"/>
  </sodipodi:namedview>
  
  <g inkscape:label="Layer 1" inkscape:groupmode="layer" id="layer1" transform="translate(0,-1036.3622)">
    <path style="color:#000000;font-style:normal;font-variant:normal;font-weight:normal;font-stretch:normal;font-size:medium;line-height:normal;font-family:sans-serif;text-indent:0;text-align:start;text-decoration:none;text-decoration-line:none;text-decoration-style:solid;text-decoration-color:#000000;letter-spacing:normal;word-spacing:normal;text-transform:none;direction:ltr;block-progression:tb;writing-mode:lr-tb;baseline-shift:baseline;text-anchor:start;white-space:normal;clip-rule:nonzero;display:inline;overflow:visible;visibility:visible;opacity:1;isolation:auto;mix-blend-mode:normal;color-interpolation:sRGB;color-interpolation-filters:linearRGB;solid-color:#000000;solid-opacity:1;fill:#000000;fill-opacity:1;fill-rule:nonzero;stroke:none;stroke-width:1;stroke-linecap:butt;stroke-linejoin:miter;stroke-miterlimit:4;stroke-dasharray:none;stroke-dashoffset:0;stroke-opacity:1;color-rendering:auto;image-rendering:auto;shape-rendering:auto;text-rendering:auto;enable-background:accumulate" d="M 11 2 C 9.3490681 2 8 3.3491 8 5 C 8 5.9314205 8.438666 6.7554495 9.109375 7.3066406 C 8.7212172 7.4312139 8.3421405 7.5924011 7.9785156 7.7949219 C 7.8705427 6.2405465 6.5807765 5 5 5 C 3.3490681 5 2 6.3491 2 8 C 2 8.9359015 2.4428759 9.7633614 3.1191406 10.314453 C 1.9938843 10.674603 0.94500278 11.35473 0.11523438 12.359375 L 0 12.498047 L 0 14.986328 L 0.5 14.986328 L 10 14.986328 L 10 12.490234 L 9.8847656 12.351562 C 9.7822378 12.227785 9.6687731 12.115614 9.5585938 12 L 16 12 L 16 9.4902344 L 15.884766 9.3515625 C 15.719598 9.1521625 15.544957 8.9632562 15.359375 8.7851562 C 14.6265 8.0816723 13.781489 7.5900852 12.892578 7.3046875 C 13.562068 6.7534792 14 5.9304355 14 5 C 14 3.3491 12.650932 2 11 2 z M 11 3 C 12.110492 3 13 3.8895 13 5 C 13 6.1105 12.110492 7 11 7 C 9.8895082 7 9 6.1105 9 5 C 9 3.8895 9.8895082 3 11 3 z M 5 6 C 6.1104918 6 7 6.8895 7 8 C 7 9.1105 6.1104918 10 5 10 C 3.8895082 10 3 9.1105 3 8 C 3 6.8895 3.8895082 6 5 6 z M 11.1875 7.9960938 C 11.197963 7.9964681 11.208288 7.9995608 11.21875 8 L 11.119141 8 C 11.141995 8.0005084 11.164648 7.9952762 11.1875 7.9960938 z M 10.5 8.0351562 L 10.5 10 L 11.5 10 L 11.5 8.0371094 C 12.630862 8.1480257 13.742652 8.6214679 14.666016 9.5078125 C 14.783488 9.6206125 14.891681 9.7438875 15 9.8671875 L 15 11 L 8.359375 11 C 7.8912915 10.700078 7.3966296 10.473224 6.8867188 10.310547 C 7.2678185 9.9985155 7.5778753 9.6034327 7.7695312 9.1425781 C 8.5889387 8.4986561 9.5328571 8.1321473 10.5 8.0351562 z M 4.5 11.021484 L 4.5 13 L 5.5 13 L 5.5 11.021484 C 6.6312095 11.133704 7.7425782 11.621458 8.6660156 12.507812 C 8.783488 12.620613 8.8916805 12.743888 9 12.867188 L 9 13.986328 L 1 13.986328 L 1 12.902344 C 1.9646339 11.793926 3.2084517 11.151988 4.5 11.021484 z " transform="translate(0,1036.3622)" id="path4907"/>
  </g>

	
	
	<metadata>
		<rdf:RDF xmlns:rdf="http://www.w3.org/1999/02/22-rdf-syntax-ns#" xmlns:rdfs="http://www.w3.org/2000/01/rdf-schema#" xmlns:dc="http://purl.org/dc/elements/1.1/">
			<rdf:Description about="https://iconscout.com/legal#licenses" dc:title="Human, Resource, Hr, Interview, User, Discussion, Strategy" dc:description="Human, Resource, Hr, Interview, User, Discussion, Strategy" dc:publisher="Iconscout" dc:date="2016-12-14" dc:format="image/svg+xml" dc:language="en">
				<dc:creator>
					<rdf:Bag>
						<rdf:li>Jemis Mali</rdf:li>
					</rdf:Bag>
				</dc:creator>
			</rdf:Description>
		</rdf:RDF>
    </metadata></svg>
