<svg xmlns="http://www.w3.org/2000/svg" width="32" height="32" viewBox="0 0 8.467 8.467"><path fill-rule="evenodd" d="M 16 1 C 9.9367119 1 4.9965621 5.9360127 5 12 C 5.0018527 15.269972 6.5021919 18.325254 9 20.404297 L 9 24 C 9 25.644699 10.355299 27 12 27 L 20 27 C 21.644701 27 23 25.644699 23 24 L 23 20.408203 C 25.498818 18.328178 26.998609 15.271068 27 12 C 27.002579 5.9362017 22.063288 1 16 1 z M 16 3 C 20.982408 3 25.002119 7.0180915 25 12 C 24.998839 14.731289 23.746555 17.297253 21.623047 19 L 16 19 C 14.648293 18.981102 14.648293 21.018482 16 21 L 21 21 L 21 24 C 21 24.571351 20.571337 25 20 25 L 12 25 C 11.428663 25 11 24.571351 11 24 L 11 21 L 12 21 C 13.351707 21.018898 13.351707 18.981518 12 19 L 10.382812 19 C 8.2567517 17.297978 7.0015478 14.732141 7 12 C 6.9971756 7.0182804 11.017592 3 16 3 z M 15.953125 6.9902344 A 1.0001001 1.0001001 0 0 0 15.103516 7.5507812 L 13.103516 11.552734 A 1.0001001 1.0001001 0 0 0 14.003906 13 L 16.380859 13 L 15.103516 15.552734 A 1.0019417 1.0019417 0 0 0 16.896484 16.447266 L 18.898438 12.445312 A 1.0001001 1.0001001 0 0 0 17.996094 10.998047 L 15.619141 10.998047 L 16.896484 8.4453125 A 1.0001001 1.0001001 0 0 0 15.953125 6.9902344 z M 13.904297 29.001953 A 1.0001001 1.0001001 0 0 0 13.900391 29.003906 A 1.0015858 1.0015858 0 0 0 14.003906 31.003906 L 17.996094 31.003906 A 1.000252 1.000252 0 1 0 17.996094 29.003906 L 14.003906 29.003906 A 1.0001001 1.0001001 0 0 0 13.904297 29.001953 z " color="#000" font-family="sans-serif" font-weight="400" overflow="visible" paint-order="stroke fill markers" transform="scale(.26458)" white-space="normal" style="line-height:normal;font-variant-ligatures:normal;font-variant-position:normal;font-variant-caps:normal;font-variant-numeric:normal;font-variant-alternates:normal;font-feature-settings:normal;text-indent:0;text-align:start;text-decoration-line:none;text-decoration-style:solid;text-decoration-color:#000;text-transform:none;text-orientation:mixed;shape-padding:0;isolation:auto;mix-blend-mode:normal"/></svg>