<svg xmlns="http://www.w3.org/2000/svg" viewBox="0 0 24 24"><path d="M13.53 22a1.79 1.79 0 0 0 1.27.53h0A1.79 1.79 0 0 0 16.08 22l.78-.79.79.79a1.81 1.81 0 0 0 3.08-1.27 1.83 1.83 0 0 0-.53-1.28l-.79-.78.79-.79a1.81 1.81 0 0 0 0-2.55h0a1.81 1.81 0 0 0-2.55 0l-.78.79-.79-.79a1.85 1.85 0 0 0-2.55 0A1.81 1.81 0 0 0 13 16.58a1.79 1.79 0 0 0 .53 1.27l.79.79-.79.78A1.81 1.81 0 0 0 13.53 22zm.71-1.84L15.38 19a.51.51 0 0 0 0-.71l-1.14-1.14a.79.79 0 0 1 0-1.13.82.82 0 0 1 1.13 0l1.14 1.14a.5.5 0 0 0 .71 0L18.36 16a.8.8 0 0 1 1.13 1.13l-1.14 1.14a.53.53 0 0 0-.15.36.51.51 0 0 0 .15.35l1.14 1.14a.8.8 0 0 1-1.13 1.13l-1.14-1.14a.52.52 0 0 0-.71 0l-1.14 1.14a.76.76 0 0 1-.56.24h0a.81.81 0 0 1-.57-1.37zM10.72 3.3A1.8 1.8 0 0 0 7.65 2l-.79.79L6.07 2A1.8 1.8 0 0 0 3.53 2 1.75 1.75 0 0 0 3 3.3a1.79 1.79 0 0 0 .53 1.27l.78.79-.78.79A1.8 1.8 0 0 0 4.8 9.22h0A1.78 1.78 0 0 0 6.07 8.7l.79-.79.79.79a1.78 1.78 0 0 0 1.27.52h0a1.78 1.78 0 0 0 1.27-.52 1.81 1.81 0 0 0 .53-1.28 1.79 1.79 0 0 0-.53-1.27l-.78-.79.78-.78A1.83 1.83 0 0 0 10.72 3.3zm-1.23.57L8.35 5a.5.5 0 0 0 0 .71L9.49 6.86A.81.81 0 0 1 9.49 8a.83.83 0 0 1-.57.23h0A.83.83 0 0 1 8.35 8L7.21 6.85a.48.48 0 0 0-.7 0L5.36 8a.79.79 0 0 1-.56.23.79.79 0 0 1-.8-.8.79.79 0 0 1 .23-.56L5.37 5.71a.48.48 0 0 0 0-.7L4.23 3.87a.82.82 0 0 1 0-1.14.8.8 0 0 1 1.13 0L6.51 3.88a.5.5 0 0 0 .7 0L8.35 2.73a.81.81 0 0 1 1.14 0 .83.83 0 0 1 .23.57A.81.81 0 0 1 9.49 3.87z"/><path d="M16.77,7.38V3.15l.42.39a.51.51,0,0,0,.34.14.52.52,0,0,0,.37-.16.5.5,0,0,0,0-.71L16.61,1.63a.53.53,0,0,0-.68,0L14.67,2.81a.5.5,0,0,0,0,.71.49.49,0,0,0,.7,0l.42-.39V7.38a2.84,2.84,0,0,1-2.83,2.84H9.71a3.86,3.86,0,0,0-3.85,3.84v1.38a3.37,3.37,0,1,0,1,0V14.06a2.85,2.85,0,0,1,2.85-2.84h3.23A3.84,3.84,0,0,0,16.77,7.38Zm-8,11.37a2.37,2.37,0,1,1-2.37-2.36A2.37,2.37,0,0,1,8.73,18.75Z"/></svg>