<?xml version="1.0" encoding="UTF-8" standalone="no"?>
<svg xmlns:dc="http://purl.org/dc/elements/1.1/" xmlns:cc="http://creativecommons.org/ns#" xmlns:rdf="http://www.w3.org/1999/02/22-rdf-syntax-ns#" xmlns:svg="http://www.w3.org/2000/svg" xmlns="http://www.w3.org/2000/svg" xmlns:sodipodi="http://sodipodi.sourceforge.net/DTD/sodipodi-0.dtd" xmlns:inkscape="http://www.inkscape.org/namespaces/inkscape" width="16px" height="16px" viewBox="0 0 16 16" id="svg2" version="1.1" inkscape:version="0.91 r13725" sodipodi:docname="49.svg">
  <defs id="defs4">
    <pattern y="0" x="0" height="6" width="6" patternUnits="userSpaceOnUse" id="EMFhbasepattern"/>
  </defs>
  <sodipodi:namedview id="base" pagecolor="#ffffff" bordercolor="#666666" borderopacity="1.0" inkscape:pageopacity="0.0" inkscape:pageshadow="2" inkscape:zoom="22.4" inkscape:cx="2.4164374" inkscape:cy="8.8964438" inkscape:document-units="px" inkscape:current-layer="layer1" showgrid="true" units="px" inkscape:window-width="1366" inkscape:window-height="715" inkscape:window-x="-8" inkscape:window-y="-8" inkscape:window-maximized="1" inkscape:snap-bbox="true" inkscape:bbox-paths="true" inkscape:bbox-nodes="true" inkscape:snap-bbox-edge-midpoints="true" inkscape:snap-bbox-midpoints="true" inkscape:snap-global="true">
    <inkscape:grid type="xygrid" id="grid3336"/>
  </sodipodi:namedview>
  
  <g inkscape:label="Layer 1" inkscape:groupmode="layer" id="layer1" transform="translate(0,-1036.3622)">
    <path style="color:#000000;font-style:normal;font-variant:normal;font-weight:normal;font-stretch:normal;font-size:medium;line-height:normal;font-family:sans-serif;text-indent:0;text-align:start;text-decoration:none;text-decoration-line:none;text-decoration-style:solid;text-decoration-color:#000000;letter-spacing:normal;word-spacing:normal;text-transform:none;direction:ltr;block-progression:tb;writing-mode:lr-tb;baseline-shift:baseline;text-anchor:start;white-space:normal;clip-rule:nonzero;display:inline;overflow:visible;visibility:visible;opacity:1;isolation:auto;mix-blend-mode:normal;color-interpolation:sRGB;color-interpolation-filters:linearRGB;solid-color:#000000;solid-opacity:1;fill:#000000;fill-opacity:1;fill-rule:nonzero;stroke:none;stroke-width:1;stroke-linecap:butt;stroke-linejoin:miter;stroke-miterlimit:4;stroke-dasharray:none;stroke-dashoffset:0;stroke-opacity:1;color-rendering:auto;image-rendering:auto;shape-rendering:auto;text-rendering:auto;enable-background:accumulate" d="M 8 0 C 3.5876443 0 0 3.5877 0 8 C 0 12.4124 3.5876443 16 8 16 C 12.412356 16 16 12.4124 16 8 C 16 3.5877 12.412356 0 8 0 z M 8 1 C 11.871916 1 15 4.1281 15 8 C 15 11.8719 11.871916 15 8 15 C 4.1280844 15 1 11.8719 1 8 C 1 4.1281 4.1280844 1 8 1 z M 5 5 C 4.1774953 5 3.5000062 5.6775 3.5 6.5 C 3.5000062 7.3225 4.1774953 8 5 8 C 5.8225047 8 6.4999938 7.3225 6.5 6.5 C 6.4999938 5.6775 5.8225047 5 5 5 z M 11 5 C 10.177495 5 9.5000062 5.6775 9.5 6.5 C 9.5000062 7.3225 10.177495 8 11 8 C 11.822505 8 12.499994 7.3225 12.5 6.5 C 12.499994 5.6775 11.822505 5 11 5 z M 5 6 C 5.2820672 6 5.4999979 6.218 5.5 6.5 C 5.4999979 6.7821 5.2820672 7 5 7 C 4.7179328 7 4.5000021 6.7821 4.5 6.5 C 4.5000021 6.218 4.7179328 6 5 6 z M 11 6 C 11.282067 6 11.499998 6.218 11.5 6.5 C 11.499998 6.7821 11.282067 7 11 7 C 10.717933 7 10.500002 6.7821 10.5 6.5 C 10.500002 6.218 10.717933 6 11 6 z M 4.3886719 10.458984 L 3.6660156 11.150391 C 4.790609 12.325391 6.3443221 12.992 7.9707031 13 C 9.5970869 13.01 11.15687 12.355306 12.292969 11.191406 L 11.578125 10.494141 C 10.631102 11.464241 9.3303215 12.0067 7.9746094 12 C 6.6188995 11.99 5.3261043 11.438384 4.3886719 10.458984 z " transform="translate(0,1036.3622)" id="path4745"/>
  </g>

	
	
	<metadata>
		<rdf:RDF xmlns:rdf="http://www.w3.org/1999/02/22-rdf-syntax-ns#" xmlns:rdfs="http://www.w3.org/2000/01/rdf-schema#" xmlns:dc="http://purl.org/dc/elements/1.1/">
			<rdf:Description about="https://iconscout.com/legal#licenses" dc:title="Emoji, Smile, Happiness, Fresh, Happy, Smiley, Sign" dc:description="Emoji, Smile, Happiness, Fresh, Happy, Smiley, Sign" dc:publisher="Iconscout" dc:date="2016-12-14" dc:format="image/svg+xml" dc:language="en">
				<dc:creator>
					<rdf:Bag>
						<rdf:li>Jemis Mali</rdf:li>
					</rdf:Bag>
				</dc:creator>
			</rdf:Description>
		</rdf:RDF>
    </metadata></svg>
