<?xml version="1.0" encoding="UTF-8" standalone="no"?>
<svg xmlns:dc="http://purl.org/dc/elements/1.1/" xmlns:cc="http://creativecommons.org/ns#" xmlns:rdf="http://www.w3.org/1999/02/22-rdf-syntax-ns#" xmlns:svg="http://www.w3.org/2000/svg" xmlns="http://www.w3.org/2000/svg" xmlns:sodipodi="http://sodipodi.sourceforge.net/DTD/sodipodi-0.dtd" xmlns:inkscape="http://www.inkscape.org/namespaces/inkscape" width="16px" height="16px" viewBox="0 0 16 16" id="svg2" version="1.1" inkscape:version="0.91 r13725" sodipodi:docname="71.svg">
  <defs id="defs4">
    <pattern y="0" x="0" height="6" width="6" patternUnits="userSpaceOnUse" id="EMFhbasepattern"/>
    <pattern y="0" x="0" height="6" width="6" patternUnits="userSpaceOnUse" id="EMFhbasepattern-3"/>
    <pattern y="0" x="0" height="6" width="6" patternUnits="userSpaceOnUse" id="EMFhbasepattern-2"/>
    <pattern y="0" x="0" height="6" width="6" patternUnits="userSpaceOnUse" id="EMFhbasepattern-8"/>
    <pattern y="0" x="0" height="6" width="6" patternUnits="userSpaceOnUse" id="EMFhbasepattern-5"/>
  </defs>
  <sodipodi:namedview id="base" pagecolor="#ffffff" bordercolor="#666666" borderopacity="1.0" inkscape:pageopacity="0.0" inkscape:pageshadow="2" inkscape:zoom="15.839192" inkscape:cx="4.3819481" inkscape:cy="8.00249" inkscape:document-units="px" inkscape:current-layer="layer1" showgrid="true" units="px" inkscape:window-width="1366" inkscape:window-height="715" inkscape:window-x="-8" inkscape:window-y="-8" inkscape:window-maximized="1" inkscape:snap-bbox="true" inkscape:bbox-paths="true" inkscape:bbox-nodes="true" inkscape:snap-bbox-edge-midpoints="true" inkscape:snap-bbox-midpoints="true" inkscape:snap-global="true">
    <inkscape:grid type="xygrid" id="grid3336"/>
  </sodipodi:namedview>
  
  <g inkscape:label="Layer 1" inkscape:groupmode="layer" id="layer1" transform="translate(0,-1036.3622)">
    <path style="color:#000000;font-style:normal;font-variant:normal;font-weight:normal;font-stretch:normal;font-size:medium;line-height:normal;font-family:sans-serif;text-indent:0;text-align:start;text-decoration:none;text-decoration-line:none;text-decoration-style:solid;text-decoration-color:#000000;letter-spacing:normal;word-spacing:normal;text-transform:none;direction:ltr;block-progression:tb;writing-mode:lr-tb;baseline-shift:baseline;text-anchor:start;white-space:normal;clip-rule:nonzero;display:inline;overflow:visible;visibility:visible;opacity:1;isolation:auto;mix-blend-mode:normal;color-interpolation:sRGB;color-interpolation-filters:linearRGB;solid-color:#000000;solid-opacity:1;fill:#000000;fill-opacity:1;fill-rule:nonzero;stroke:none;stroke-width:1;stroke-linecap:round;stroke-linejoin:round;stroke-miterlimit:4;stroke-dasharray:none;stroke-dashoffset:0;stroke-opacity:1;color-rendering:auto;image-rendering:auto;shape-rendering:auto;text-rendering:auto;enable-background:accumulate" d="M 7.859375 0 C 4.0779092 0 1 3.0713563 1 6.8476562 C 1 10.459056 3.6002439 13.177616 7.4335938 13.603516 C 7.4424937 13.789316 7.4445491 14.047347 7.4394531 14.310547 C 7.4288661 14.857347 7.3984375 15.408203 7.3984375 15.408203 A 0.50005 0.50005 0 0 0 7.3964844 15.435547 C 7.3964844 15.606447 7.5233193 15.819444 7.6542969 15.902344 C 7.7852744 15.985344 7.8889381 15.996 7.9726562 16 C 8.1400929 16.01 8.2671673 15.975688 8.4121094 15.929688 C 8.7019935 15.837687 9.0377251 15.666397 9.3945312 15.404297 C 10.056084 14.918397 10.739403 14.064966 11.072266 12.884766 C 12.494342 12.315666 13.462493 11.483831 14.001953 10.457031 C 14.572382 9.3712312 14.716797 8.1311563 14.716797 6.8476562 C 14.716793 3.0713563 11.64084 0 7.859375 0 z M 7.859375 1 C 11.101331 1 13.716793 3.6127563 13.716797 6.8476562 C 13.716797 8.0537563 13.572688 9.1231344 13.117188 9.9902344 C 12.661686 10.857234 11.905197 11.5612 10.521484 12.0625 A 0.50005 0.50005 0 0 0 10.203125 12.425781 C 9.9718004 13.489581 9.3559585 14.193209 8.8027344 14.599609 C 8.6507971 14.711209 8.549912 14.741741 8.421875 14.806641 C 8.429915 14.610541 8.4348091 14.569978 8.4394531 14.330078 C 8.4449831 14.044478 8.4461238 13.758038 8.4335938 13.523438 C 8.4273338 13.406138 8.4194565 13.306019 8.3984375 13.199219 C 8.3879285 13.146219 8.3779556 13.092013 8.3378906 13.007812 C 8.3178586 12.965813 8.2911096 12.913809 8.2265625 12.849609 C 8.1620155 12.785609 8.0377018 12.706766 7.890625 12.697266 C 4.2408466 12.462366 2 10.115656 2 6.8476562 C 2 3.6127563 4.6174182 1 7.859375 1 z M 8.1367188 1.9960938 L 8.1367188 2.0019531 L 8.109375 2.0019531 C 8.143432 2.0019531 8.024021 1.9749531 7.7988281 2.0019531 L 7.359375 2.0566406 L 7.359375 3.7128906 C 7.360495 4.1347906 7.2548678 4.4862781 7.09375 4.7050781 C 7.0267038 4.7961276 6.9460741 4.8585221 6.8574219 4.9140625 A 0.50004994 0.50004994 0 0 0 6.359375 4.4453125 L 4.359375 4.4453125 A 0.50004994 0.50004994 0 0 0 3.859375 4.9453125 L 3.859375 10.5 A 0.50004994 0.50004994 0 0 0 4.359375 11 L 6.359375 11 A 0.50004994 0.50004994 0 0 0 6.859375 10.5 L 6.859375 9.9296875 C 6.9898791 9.9698154 7.124796 9.9980469 7.2675781 9.9980469 L 10.794922 9.9980469 C 11.190705 9.9980469 11.544933 9.8019813 11.763672 9.5507812 C 11.981788 9.3002812 12.100434 9.0109219 12.1875 8.7324219 C 12.20047 8.6994219 12.576037 7.7483938 12.804688 6.9335938 C 12.956017 6.3941938 12.808588 5.86965 12.517578 5.53125 C 12.226574 5.19295 11.826242 5.0058594 11.40625 5.0058594 L 9.8691406 5.0058594 L 9.8691406 3.4101562 C 9.8691406 3.0030563 9.6656153 2.6187937 9.3515625 2.3710938 C 9.0375097 2.1232937 8.6242599 1.9960938 8.1640625 1.9960938 L 8.1367188 1.9960938 z M 8.359375 3.0507812 C 8.5014077 3.0797812 8.6644429 3.1007969 8.7324219 3.1542969 C 8.836015 3.2362969 8.8691406 3.3092563 8.8691406 3.4101562 L 8.8691406 5.1992188 L 8.8691406 6.0058594 L 11.40625 6.0058594 C 11.49434 6.0058594 11.664034 6.0717938 11.759766 6.1835938 C 11.855496 6.2948938 11.911256 6.4165625 11.841797 6.6640625 C 11.632803 7.4088625 11.246094 8.3984375 11.246094 8.3984375 L 11.240234 8.4160156 L 11.234375 8.4316406 C 11.170165 8.6374406 11.084729 8.8064781 11.009766 8.8925781 C 10.934806 8.9785781 10.907221 8.9980469 10.794922 8.9980469 L 7.2675781 8.9980469 C 7.046914 8.9980469 6.8847507 8.8454568 6.859375 8.6347656 L 6.859375 5.9824219 C 7.2906532 5.8720744 7.6550346 5.6273826 7.8984375 5.296875 C 8.226674 4.851075 8.3609235 4.2904844 8.359375 3.7089844 L 8.359375 3.0507812 z M 4.859375 5.4453125 L 5.859375 5.4453125 L 5.859375 7.9980469 L 5.8496094 7.9980469 L 5.8496094 8.5820312 C 5.8496094 8.6141605 5.8572138 8.6441562 5.859375 8.6757812 L 5.859375 10 L 4.859375 10 L 4.859375 5.4453125 z " transform="translate(0,1036.3622)" id="path5354"/>
  </g>

	
	
	<metadata>
		<rdf:RDF xmlns:rdf="http://www.w3.org/1999/02/22-rdf-syntax-ns#" xmlns:rdfs="http://www.w3.org/2000/01/rdf-schema#" xmlns:dc="http://purl.org/dc/elements/1.1/">
			<rdf:Description about="https://iconscout.com/legal#licenses" dc:title="Social, Media, Marketing, Like, Chat, Thumb, Motivate" dc:description="Social, Media, Marketing, Like, Chat, Thumb, Motivate" dc:publisher="Iconscout" dc:date="2016-12-14" dc:format="image/svg+xml" dc:language="en">
				<dc:creator>
					<rdf:Bag>
						<rdf:li>Jemis Mali</rdf:li>
					</rdf:Bag>
				</dc:creator>
			</rdf:Description>
		</rdf:RDF>
    </metadata></svg>
