<?xml version="1.0" encoding="UTF-8" standalone="no"?>
<svg xmlns:dc="http://purl.org/dc/elements/1.1/" xmlns:cc="http://creativecommons.org/ns#" xmlns:rdf="http://www.w3.org/1999/02/22-rdf-syntax-ns#" xmlns:svg="http://www.w3.org/2000/svg" xmlns="http://www.w3.org/2000/svg" xmlns:sodipodi="http://sodipodi.sourceforge.net/DTD/sodipodi-0.dtd" xmlns:inkscape="http://www.inkscape.org/namespaces/inkscape" width="16px" height="16px" viewBox="0 0 16 16" id="svg2" version="1.1" inkscape:version="0.91 r13725" sodipodi:docname="56.svg">
  <defs id="defs4">
    <pattern y="0" x="0" height="6" width="6" patternUnits="userSpaceOnUse" id="EMFhbasepattern"/>
    <pattern y="0" x="0" height="6" width="6" patternUnits="userSpaceOnUse" id="EMFhbasepattern-3"/>
    <pattern y="0" x="0" height="6" width="6" patternUnits="userSpaceOnUse" id="EMFhbasepattern-2"/>
  </defs>
  <sodipodi:namedview id="base" pagecolor="#ffffff" bordercolor="#666666" borderopacity="1.0" inkscape:pageopacity="0.0" inkscape:pageshadow="2" inkscape:zoom="7.9195959" inkscape:cx="-31.614723" inkscape:cy="-11.91671" inkscape:document-units="px" inkscape:current-layer="layer1" showgrid="true" units="px" inkscape:window-width="1366" inkscape:window-height="715" inkscape:window-x="-8" inkscape:window-y="-8" inkscape:window-maximized="1" inkscape:snap-bbox="true" inkscape:bbox-paths="true" inkscape:bbox-nodes="true" inkscape:snap-bbox-edge-midpoints="true" inkscape:snap-bbox-midpoints="true" inkscape:snap-global="true">
    <inkscape:grid type="xygrid" id="grid3336"/>
  </sodipodi:namedview>
  
  <g inkscape:label="Layer 1" inkscape:groupmode="layer" id="layer1" transform="translate(0,-1036.3622)">
    <path style="color:#000000;font-style:normal;font-variant:normal;font-weight:normal;font-stretch:normal;font-size:medium;line-height:normal;font-family:sans-serif;text-indent:0;text-align:start;text-decoration:none;text-decoration-line:none;text-decoration-style:solid;text-decoration-color:#000000;letter-spacing:normal;word-spacing:normal;text-transform:none;direction:ltr;block-progression:tb;writing-mode:lr-tb;baseline-shift:baseline;text-anchor:start;white-space:normal;clip-rule:nonzero;display:inline;overflow:visible;visibility:visible;opacity:1;isolation:auto;mix-blend-mode:normal;color-interpolation:sRGB;color-interpolation-filters:linearRGB;solid-color:#000000;solid-opacity:1;fill:#000000;fill-opacity:1;fill-rule:nonzero;stroke:none;stroke-width:1;stroke-linecap:square;stroke-linejoin:miter;stroke-miterlimit:4;stroke-dasharray:none;stroke-dashoffset:0;stroke-opacity:1;color-rendering:auto;image-rendering:auto;shape-rendering:auto;text-rendering:auto;enable-background:accumulate" d="M 3.0351562 0 L 3.0351562 0.5 L 3.0351562 3 L 5.046875 3 L 5.046875 4 L 5.046875 4.3457031 C 2.7149986 5.1691809 1.0351563 7.3901894 1.0351562 10 C 1.0351562 13.3078 3.7273702 16 7.0351562 16 C 10.342943 16 13.035156 13.3078 13.035156 10 C 13.035156 9.6258454 12.995573 9.2596936 12.929688 8.9042969 L 14.962891 7.7304688 L 12.962891 4.2675781 L 12.53125 4.5175781 L 10.927734 5.4433594 C 10.371613 4.9674554 9.7270029 4.5941599 9.0234375 4.3457031 L 9.0234375 4 L 9.0234375 3 L 11.035156 3 L 11.035156 0 L 3.0351562 0 z M 4.0351562 1 L 10.035156 1 L 10.035156 2 L 4.0351562 2 L 4.0351562 1 z M 6.046875 3 L 8.0234375 3 L 8.0234375 4 L 8.0234375 4.0878906 C 7.7011053 4.0340921 7.3724959 4 7.0351562 4 C 6.6978167 4 6.3692072 4.0340921 6.046875 4.0878906 L 6.046875 4 L 6.046875 3 z M 7.0351562 5 C 9.8025025 5 12.035156 7.2327 12.035156 10 C 12.035156 12.7674 9.8025026 15 7.0351562 15 C 4.2678103 15 2.0351562 12.7674 2.0351562 10 C 2.0351562 7.2327 4.2678103 5 7.0351562 5 z M 12.597656 5.6328125 L 13.597656 7.3652344 L 12.732422 7.8652344 L 11.732422 6.1328125 L 12.597656 5.6328125 z M 9.6816406 7.6464844 L 6.0351562 11.292969 L 4.3886719 9.6464844 L 3.6816406 10.353516 L 6.0351562 12.707031 L 10.388672 8.3535156 L 9.6816406 7.6464844 z " transform="translate(0,1036.3622)" id="path4913"/>
  </g>

	
	
	<metadata>
		<rdf:RDF xmlns:rdf="http://www.w3.org/1999/02/22-rdf-syntax-ns#" xmlns:rdfs="http://www.w3.org/2000/01/rdf-schema#" xmlns:dc="http://purl.org/dc/elements/1.1/">
			<rdf:Description about="https://iconscout.com/legal#licenses" dc:title="Time, Management, Strees, Stopwatch, Watch, Tick" dc:description="Time, Management, Strees, Stopwatch, Watch, Tick" dc:publisher="Iconscout" dc:date="2016-12-14" dc:format="image/svg+xml" dc:language="en">
				<dc:creator>
					<rdf:Bag>
						<rdf:li>Jemis Mali</rdf:li>
					</rdf:Bag>
				</dc:creator>
			</rdf:Description>
		</rdf:RDF>
    </metadata></svg>
