<svg enable-background="new 0 0 901 516" viewBox="0 0 901 516" xmlns="http://www.w3.org/2000/svg"><path d="m560.4 151.3c-.1.1-.2.3-.3.4z"/><path d="m494.1 116c.1.2.1.4.2.6 0-.3-.1-.4-.2-.6z"/><path d="m714.3 195h.2z"/><path d="m697.2 252.7c-.1-.1-.2-.1-.3-.2.1 0 .2.1.3.2z"/><path d="m700.7 200.1c-.1-.1-.1-.1-.2-.2 0 0 .1.1.2.2z"/><path d="m732.5 272.7c.2-.1.4-.4.4-.6 0 .3-.2.5-.4.6z"/><path d="m719.1 169.8h-.2z"/><path d="m721.8 288.9-.1-.1h-.2l.2.1z"/><path d="m729.1 278.1-.1-.2c-.1.1-.1.2 0 .4 0-.1 0-.2.1-.2z"/><path d="m806.8 106.9c.1 0 .1 0 .2.1l.2-.1h-.2z"/><path d="m794.8 106.1c0 .1.1.1.2.1z"/><path d="m782 121.5-.2-.1-.1.1z"/><path d="m561.6 464.5c0-.5 0-1-.1-1.6-.8-5.6-3.2-10.9-7-15.1-3.9-4.5-7.7-9.1-11.2-13.9-2.5-3.4-4.5-7.2-5.9-11.2-.9-2.7-1.6-5.5-2.2-8.3-.1-.6-.3-1.1-.5-1.7-.1-.2-.3-.2-.5-.2s-.4.2-.4.3c-.1.3-.1.6-.1 1 .1.6.3 1.3.4 1.9 1.1 7.1 4 13.8 8.3 19.5 1.4 1.9 3 3.8 4.5 5.7l1 1.2c.2.2.3.6.2.9-.1.4-.2.8-.2 1.1-.1 2.8-.2 5.5-.3 8.2-.2 4.1.1 8.1.3 12.2h1.6c-.7-1.1-1-2.4-.9-3.8 0-4.6 0-9.3 0-13.9 0-.6 0-1.2.2-1.8.4-1 1-1.4 1.8-.5 4.6 5 8.8 10.2 9.8 17.3.1.9.4 1.8-.3 2.6h1.5z" fill="#020202"/><path d="m496.3 141.5v.2c0-.1 0-.2 0-.2z"/><path d="m516.4 95c.1 0 .1.1.1.2 0-.1 0-.2-.1-.2z"/><path d="m493.8 91.6s0 .1 0 0h-.2z"/><path d="m543.1 188.3c-.1 0-.1 0-.1-.1l-.2.1z"/><path d="m487.3 108.7c0 .1 0 .2-.1.3 0-.1.1-.2.1-.3z"/><path d="m493.9 91.7c0 .1 0 .1 0 0l.1.3c0-.1 0-.2-.1-.3z"/><path d="m516.1 87.2c-.1 0-.1 0-.2 0z"/><path d="m487.1 109.1c0 .1-.1.2-.2.2.1-.1.1-.2.2-.2z"/><path d="m545.8 176.5c-.1.1-.1.1-.1.2z"/><path d="m556.9 155.2c0-.1 0-.1 0 0v-.3c-.1.1-.1.2 0 .3z"/><path d="m544 189.2c-.1 0-.1.1-.1.2z"/><path d="m544 189.1.2-.1c-.1 0-.2.1-.2.1 0 .1 0 .1 0 0z"/><path d="m570.9 167c-1.3-.5-2.2-.1-2.5 1.3-.5 1.8.1 3.6 1.5 4.8.8.9 2.3.9 3.2.1.4-.4.6-.9.7-1.4 0-.2.1-.4.1-.6 0-2-1.2-3.7-3-4.2zm0 3.8c-.1.1-.2.1-.3.2-.1 0-.1 0-.2 0-.8-.4-1.1-1.3-.8-2.1.1-.2.4-.4.6-.2.8.3 1.1 1.3.7 2.1zm1.4.9c-.4-.1-.5-.3-.5-.7 0-.2.1-.4.3-.4.4-.1.5.3.6.6s0 .5-.4.5z" fill="#070606"/><path d="m665.3 464.5c.5-1.5.9-3.1 1.1-4.8.9-5 1.6-9.9 2.4-14.9.9-5.7 1.8-11.4 2.6-17.1.5-3.5 1-7 1.3-10.5.4-4 .8-8 1.1-11.9.1-1.4.1-2.8.2-4.1.1-4.4.6-8.9 1.5-13.2.7-3.2 2.1-6.2 4.1-8.8.3-.4.6-.6 1.1-.5 1.5.3 3.1.6 4.7.7.4 0 .7.3.8.7v.1 2.2c0 1.4 0 2.9.1 4.3.2 1.5.6 3 1.3 4.3.7 1.4 1.4 2.8 2.2 4.1.5.8.7 1.8.4 2.8-.7 3.1-1.8 6-3.4 8.7-.2.3-.4.7-.5 1 0 .2 0 .4.2.5.2.2.5.3.7.2.5-.3.9-.7 1.2-1.3 1.5-2.6 2.6-5.4 3.3-8.4.8-4.3 1.6-8.6 2.3-12.9.3-1.7.6-3.4.9-5 0-.3.3-.5.5-.5h1c3.3.4 6.7.4 10 0 3-.3 6-.5 9-.8 1.2-.1 2.3-.3 3.5-.5 3.4-.6 6.7-1.2 10-1.9 2.4-.5 4.7-1.1 7-1.8 3.4-1.1 6.7-2.7 9.7-4.7 1.5-1 2.9-2.3 4-3.7l1.2-1.5c.2.2.3.2.4.3 1.3 4.8 3.2 9.4 4.7 14.1 2.3 7.5 4.5 15 6.2 22.7.8 3.5 1.3 7.1 1.5 10.7.1 2.1.2 4.2.3 6.3 0 7.2-.7 14.4-2.2 21.4-.6 2.9-1.6 5.7-2.8 8.4-2 4.6-4.3 9.1-6.9 13.4-.4.6-.7 1.3-1 1.9h-34.2c-1-1.4-.7-3.2-1.4-4.7-1.6-3.2-.6-5.8 1.3-8.6 4.8-7.2 8.3-15.2 11.9-23 1.6-3.6 2.7-7.3 3.3-11.1-.4.6-.7 1.4-.8 2.1-1.3 5.1-3.3 10-5.7 14.6-3 5.6-5.4 11.5-8.8 16.9-3.1 5.1-6.9 9.8-11.2 13.9z" fill="#383e6b"/><path d="m369 464.5c2.8-4.2 5.7-8.3 8.5-12.5 5-7.5 9.9-15 14.9-22.4 4.7-7.1 9.5-14.1 14.2-21.2.3-.4.6-.9.9-1.3 3.2-5.1 6.7-10 10.4-14.8 5.4-7.2 10.3-14.7 14.7-22.5 2.8-5 4.6-10.4 5.3-16.1.6-4.4 1.2-8.8 1.8-13.2.2-1.8.4-3.5.5-5.3.2-5 .7-9.9 1.1-14.9.2-2.5.4-5 .5-7.5.5-7.6 1.7-15.2 3.5-22.6.3-1.1.6-2.1 1-3.2.1-.2.2-.4.3-.6.4.1.8.4 1 .7 1.6 1.8 3.5 3.4 5.5 4.7 1.8 1.4 4 2.4 6.2 2.7.9.1 1.7.1 2.6.1.6 0 .8.3.6.9-.9 2.3-1.5 4.7-2.2 7.1-1.3 4.5-2.3 9.1-3.1 13.8-.6 3.3-1.2 6.7-1.8 10-.1.8-.2 1.5-.3 2.3 0 .5-.3 1-.7 1.3-.8.4-1.2 1.2-1.1 2.1 0 4.9-.6 9.8 0 14.7.1.6.1 1.2.2 1.8.4 2.3 1.5 4 3.9 4.7.1 0 .1.1.2.2 0 .8 0 1.6-.1 2.4-.3 2.9-.7 5.9-1 8.8-.2 2.7-.5 5.3-.9 8-.6 3.5-1.1 7-1.9 10.4-.2.9-.5 1.8-.9 2.6-.8 2-2.2 3.6-4 4.8-.8.5-1.6.9-2.4 1.3-3.6 1.8-7.5 3-11.2 4.5-.5-.4-.3-.9-.3-1.3.2-2.6.4-5.2.5-7.8 0-.7 0-1.4-.1-2.1 0-.7-.6-1.2-1.2-1.1 0 0 0 0-.1 0-2.9 0-2.7-.1-3.1 2.5-.4 2.5-.6 5.1-.9 7.6-.1.5-.1 1-.1 1.6 0 1.2-.2 2.4-.4 3.5-.3 1.2-1.5 1.8-2.1 2.8-1 1.5-1.9 3.1-2.6 4.8-.3.7-.7 1.4-1.2 2-.6.6-1.2 1.4-1.8 2.1-1.1 1.3-2.4 2.3-4 3-1.3.5-2.6 1-3.8 1.6-.8.4-1.7.8-2.4 1.3-.6.3-1.1.7-1.5 1.3-.8.9-.7 2.3.3 3.1.1.1.3.2.4.3.9.6 2 .9 3.1 1 1.9.3 3.8 0 5.6-.9l.9-.4c.4.3.2.6.2.9-.8 4.2-1.9 8.3-3.3 12.3-.6 1.2-.7 2.6-.3 3.8.1.3 0 .7-.2.9-.6.9-1.1 1.8-1.7 2.6-3.5 4.8-7 9.6-10.5 14.5-1.6 2.2-3.3 4.4-4.9 6.7-.4.5-.9 1-.9 1.7z" fill="#383e6b"/><path d="m855.9 270c-2.5.3-4.9.6-7.4 1-5.8.9-11.6 1.9-17.4 2.9h-.2c-1.1.1-1.5.1-1.1-1.2.8-2.5 1.4-5 1.8-7.6.6-3.1.3-6.3-.8-9.3-.3-.8-.2-1.7.2-2.4 1.2-2.2 2.2-4.5 2.9-6.9.7-2.2 1.4-4.5 2.2-6.7 1.7-4.9 3.1-9.8 4.4-14.8 0-.5.3-.9.6-1.3.8 1.4 1.5 2.9 2 4.5 3.8 10.2 7.3 20.6 10.4 31 .6 2.1 1.3 4.2 2 6.4.2.2.1.6.3.8z" fill="#383e6b"/><path d="m504.2 464.5c-.4-3.5-.8-7-1.3-10.5-.4-3.5-.9-6.9-1.4-10.3-.6-5-1.6-9.9-2.6-14.9-1.1-5.5-2.4-11-3.5-16.5-.7-3.3-1.2-6.7-1.8-10-.4-2.2-.9-4.4-1.4-6.5-.1-.3-.1-.5-.1-.8 0-.2.1-.4.3-.4h.8l9.9 1.2c.8.1.9.3.9 1.2 0 3.1 0 6.3.1 9.4.2 4.6.3 9.3.8 13.9.5 4.8 1.2 9.6 2.1 14.4 1.7 8.5 4 16.8 7.1 24.9.6 1.6 1.2 3.3 1.8 5z" fill="#383e6b"/><path d="m732.5 416.5c-.1-.2-.3-.3-.4-.3-.2 0-.4 0-.5.2-.3.5-.5 1.1-.6 1.6-.9 3.9-2.2 7.7-3.9 11.3-2.6 5.5-5.3 11-8.1 16.4-1.8 3.5-3.9 6.8-6.3 9.9-2 2.7-4.2 5.3-6.5 7.8-.3.3-.8.6-.7 1.1h2c.1-.2.2-.5.3-.7 1.9-2.1 3.7-4.3 5.5-6.6.1-.1.2-.1.3-.2 1 2.3 1.6 4.9 1.7 7.4h1.6c-.3-3.1-1-6.1-2.3-8.9.2-.3.4-.6.6-.9 1.9-2.7 3.6-5.4 5.2-8.3 3-5.7 5.8-11.4 8.5-17.2 1.6-3.6 2.8-7.3 3.6-11.2.1-.5.1-.9 0-1.4z" fill="#030100"/><path d="m855.9 266.5c-.4-.1-.4-.5-.3-.8h.3z" fill="#503b02"/><path d="m742 78.7c0 .3-.3.6-.6.7-.6.2-1.2.4-1.9.6-6.6 2.5-12.9 5.8-18.7 9.8-6.3 4.1-12.3 8.5-18 13.3-.9.8-1.9 1.4-2.8 2.1-.2.1-.5.1-.7-.2-.2-.2-.2-.5-.1-.7s.2-.3.4-.4c2.6-2.2 5.2-4.4 7.9-6.5 6.5-5 13.3-9.6 20.4-13.6 3.9-2.2 8.1-4 12.3-5.6.3-.2.7-.3 1.1-.3s.7.4.7.8z" fill="#030202"/><path d="m692.6 82.4c-.1-.1-.3-.2-.4-.3-.1-.2-.1-.4-.1-.6.1-.3.3-.5.6-.8 4.5-3.6 8.4-7.6 12.5-11.6 3.4-3.4 7-6.5 10.7-9.5 3.9-2.9 8.2-5.4 12.6-7.5.5-.3 1.1-.5 1.7-.5.3 0 .5.2.6.4.1.3 0 .5-.2.7-.3.2-.6.4-1 .6-6.5 2.9-12.5 6.8-17.8 11.7-4 3.7-7.9 7.5-11.8 11.2-2 1.9-4.2 3.7-6.4 5.5-.2.4-.6.6-1 .7z" fill="#040303"/><path d="m621.6 85.2c-.1.2-.3.3-.4.5-.2.2-.5.2-.8 0-.4-.3-.6-.7-.8-1.1-1-2-2.1-4.1-3-6.2-2.6-5.8-6-11.2-10.1-16-2.5-2.9-4.9-5.9-7.4-8.9-.3-.3-.6-.7-.8-1.1-.1-.2-.1-.5.1-.7.3-.2.6-.2.9 0 .1.1.2.2.3.3 4.1 4.7 8.3 9.4 12 14.5 2.2 3 4.1 6.3 5.6 9.6 1.3 2.7 2.7 5.4 4 8.1.1.3.2.7.4 1z" fill="#040303"/><path d="m620.6 110.9c-.1.4-.4.7-.7.6-.4 0-.8-.2-1.1-.3-1.8-.8-3.5-1.7-5.2-2.8-3.1-2.1-6-4.4-8.8-7l-15.3-15c-.4-.3-.7-.6-.8-1.1-.1-.3 0-.5.3-.7.2-.1.4-.1.5-.1.4.3.7.6 1 .9 3.9 3.8 7.9 7.6 11.9 11.5 3 3.1 6.3 5.9 9.7 8.5 2.3 1.8 4.9 3.3 7.6 4.5.2.1.5.2.6.4.2.2.3.4.3.6z" fill="#040303"/><path d="m446 255.7c0 .2-.1.3-.1.5-.1.2-.3.3-.5.3-.3.1-.5-.1-.7-.3-.1-.2-.2-.5-.2-.7-.3-1.8-.8-3.7-1.5-5.4-1.3-3.6-3.4-6.8-6.1-9.5-.4-.5-1-.8-1.6-1.1-.2-.1-.4-.4-.3-.7s.4-.6.7-.5c.4 0 .8.1 1.1.4.7.5 1.4 1.2 2 1.9 3.5 3.8 5.9 8.4 6.9 13.5.1.4.2.9.3 1.3z" fill="#070606"/><path d="m549.9 126.9c-.3 0-.6-.5-.4-.8.3-.5.7-.9 1.1-1.4l11.2-12.3c.4-.4.8-.9 1.2-1.3.2-.2.4-.4.6-.5.2-.2.5-.2.7 0 .3.2.4.6.2.9 0 .1-.1.2-.2.3-2.8 3.1-5.7 6.2-8.5 9.2-1.7 1.8-3.4 3.6-5.1 5.4-.2.3-.4.6-.8.5z" fill="#090707"/><path d="m569.6 117.5c.2.1.5.2.5.5.1.3 0 .5-.2.7-1.9 1.2-3.9 2.4-5.8 3.6-3 1.7-5.9 3.6-8.7 5.6-.2.1-.3.2-.5.2-.1 0-.3 0-.3-.1-.1-.2-.2-.4-.2-.5.1-.3.3-.6.6-.8.9-.7 1.7-1.4 2.7-2 3.6-2.3 7.3-4.6 10.9-6.9.2-.2.6-.4 1-.3z" fill="#0b0808"/><path d="m427.9 240.6c.2 0 .4.1.6.2.4.2.8.5 1.1.8 2.4 2.1 4.3 4.8 5.6 7.7.5 1.2 1 2.4 1.5 3.6.1.2.2.5.2.7 0 .3-.1.7-.5.8-.3.1-.5 0-.7-.2-.2-.3-.4-.6-.6-1-.3-.9-.7-1.7-1-2.6-1.3-3.4-3.4-6.4-6.2-8.7-.2-.2-.4-.3-.5-.6-.1-.2-.1-.4 0-.5.2 0 .4 0 .5-.2z" fill="#090808"/><path d="m564.5 130.1-6 .4c-.4 0-.8 0-1.2 0-.3 0-.5-.2-.5-.4 0-.3.2-.5.4-.6s.4-.1.6-.1c4.6-.3 9.2-.9 13.9-.8.5 0 .9 0 1.4.1.4.1.8.5.7.8s-.4.5-.7.5c-.1 0-.3 0-.4 0-2.8-.1-5.5-.1-8.2.1z" fill="#100c0c"/><path d="m547.4 364.9h-9c-4.5.1-9-.3-13.5-.9-2.7-.4-5.3-1-7.8-1.9-3-1.1-5.6-3-7.5-5.5-1.1-1.4-1.7-3.1-1.7-4.9-.2-2.2-.5-4.3-.8-6.4-.2-1.8-.2-3.5.1-5.3.7-4.8 1.7-9.5 2.8-14.2 1-4 1.6-8.1 2-12.2.2-3.3.2-6.5.2-9.8s-.1-6.7-.2-10c-.1-4.6-.4-9.2-.5-13.7-.1-4.2-.1-8.4-.2-12.6 0-2.4-.1-4.7-.1-7.1 0-.3 0-.7-.1-1 0-.3-.3-.6-.7-.6-.3 0-.6.2-.7.6-.1.5-.1 1-.1 1.6 0 2.4 0 4.7.1 7.1.1 6.4.2 12.7.4 19 0 1 .1 2.1.2 3.1.3 1-.3 2-1.2 2.4-1.2.6-2.3 1.3-3.4 2-2.8 1.7-5.4 3.7-7.8 6-1.5 1.5-2.8 3.2-3.8 5-2.2 3.6-4 7.4-5.5 11.3-1 2.6-2 5.3-3 7.9-.9 2.3-1.6 4.7-2 7.2-.1.8-.6 1.5-1.4 1.7-1.2.5-2.4.8-3.6 1-1.4.2-2.7.3-4.1.4-2.1.1-4.2 0-6.2-.5-3.5-.7-6.9-1.7-10.1-3-.3-.1-.6-.2-.9-.4-.9-.5-1-.6-.9-1.7.4-3.6 1.1-7.1 1.8-10.6.7-3.8 1.3-7.6 2.3-11.3.8-3 1.6-5.9 2.5-8.9 1-2.9 2.2-5.7 3.8-8.4 2.2-3.9 4.7-7.5 7.2-11.2 6.5-9.4 13.3-18.5 19.5-28 2.1-3.2 4.6-6.1 7.5-8.5 1.1-.9 2.2-1.8 3.4-2.6 2.9-2 5.8-4 8.6-6.1 3.2-2.3 6.5-4.4 10-6.3 1.4-.8 2.8-1.7 4.2-2.5 3.6-2.2 7.4-4 11.4-5.3 2-.6 4-.9 6-1.2 2.1-.4 4.2-1 6.3-1.6.2 0 .4-.1.5-.3s.2-.3.2-.5-.2-.4-.4-.4c-.6-.1-1.2 0-1.7.2-1.7.5-3.4.9-5.2 1.2-1.8.2-3.6.6-5.4 1-.5.1-.7-.1-.7-.6 0-3.2 1.9-6 4.8-7.4 1.3-.7 2.7-1 4.2-1.1 2.8-.1 5.6-.5 8.4-.9 1.5-.2 3-.4 4.5-.5 3.6-.3 7.2-.7 10.8-.7 1-.1 2.1.1 3.1.5 1.1.6 2 1.2 2 2.6 0 .6.6.9 1.1.5 1.4-.7 2.9-1.2 4.4-1.6 1.8-.5 3.5-1 5.3-1.5 3.4-1.1 6.7-2.7 9.6-4.8 1.5-1.1 2.8-2.3 4-3.7 1.8-2.1 3.8-4 5.8-5.9 1.1-.9 2.2-1.9 3.3-2.8 3.7-3.2 6.9-7 9.4-11.2 1.3-2.3 2.4-4.7 3.2-7.1.5-1.5 1.1-2.9 1.7-4.4.3-.9.4-.8 1.3-.8 2.6.3 5.2.1 7.8-.5 1.4-.4 2.9-.3 4.2.4 1.1.6 2.3.9 3.6 1 1.1 0 2.2.7 2.7 1.7l.9 1.5c.4.7.8 1.4 1.2 2 1 1.7 2.6 2.9 4.4 3.3.4.1.8.3.6.8-.9 3.6-1.8 7.2-2.7 10.8-.8 2.8-2.3 5.3-4.3 7.4-1.1 1.2-2.2 2.3-3.3 3.4-2.1 2-3.7 4.5-4.6 7.2-.6 1.7-1.2 3.5-1.7 5.2-1.5 5.1-3.7 10-6.5 14.5-1 1.6-2 3.2-3 4.8-2.1 3.3-3.6 7-4.4 10.9-.3 1.4-.8 2.8-1.3 4.1-1.7 4.2-3.6 8.3-5.8 12.2-.4.8-.9 1.6-1.2 2.5-2.4 5.7-5.2 11.3-7.5 17.1-1.7 4.3-3 8.8-3.7 13.4-.9 5.2-1.5 10.5-2.1 15.8-.7 7.5-1.2 15-1.2 22.5 0 .8 0 1.6-.1 2.4-.3 3.8.1 7.6 1.2 11.2.2.6.3 1.1.5 1.7.6 1.8.4 3.7-.4 5.3-.9 2-2.1 3.9-3.6 5.6-1.4 1.6-3.3 2.8-5.4 3.4-.3.1-.5.1-.7.2-3.6 1.9-7.6 3.2-11.7 3.9-2.4.5-4.8.8-7.2 1.2-4.5.7-9.1 1-13.7 1-2.9 0-5.9 0-8.8 0z" fill="#383e6b"/><path d="m768.9 188c.5-.3 1 0 1.6-.1.8 0 1.6-.1 2.3-.1.4 0 .7-.4.7-.7v-.1c-.1-.4-.5-.7-.9-.6-.3 0-.5.1-.8.1-1.1.1-2.2 0-3.3-.5s-2.3-1-3.4-1.5c-1.8-.9-3.7-1.6-5.6-2.3-1.7-.6-3.6-.8-5.4-.5-1.5.2-3 .3-4.5.4-2.4.1-4.7-.4-6.8-1.5-1.7-.9-3.4-2-5-3.1-.6-.5-1.1-1.2-1.3-1.9 0-.2 0-.4.1-.6s.2-.3.4-.5c2.5-2.5 3.8-5.6 4.7-8.9.6-2 .9-4.1.9-6.2 0-1 .1-2.1.2-3.1 0-.5.3-.6.8-.6 1.9.3 3.7.7 5.5 1.3.9.3 1.9.5 2.9.7 2.1.5 4.4.2 6.3-.7 2.8-1.2 5.8-2.1 8.8-2.7 3.1-.7 6.3-.3 9.2 1.1.5.3 1 .6 1.1 1.2.4 3.2 1.8 6 2.8 9 .3.9.5 1.8.9 2.6.2.5.1 1-.2 1.4-.4.5-.7 1.1-1 1.6-1.8 3.2-2.5 7-1.8 10.6.5 2.4 1.3 4.8 2.4 7 .1.3.3.6.5.9.2.4.7.5 1.1.2.1-.1.2-.2.3-.4.3-.6.5-1.2.6-1.9.7-2.4 1.7-4.7 3-6.8.6-1 1.4-1.9 2.4-2.6.3-.3.7-.4 1.1-.2.1.1.2.1.4.1 2.2.7 4.6.5 6.7-.6.8-.4.9-.4 1.4.4 1 1.6 1.4 3.4 1.2 5.3 0 .6-.1 1.3-.1 1.9 0 .5.4.9.9.9.1 0 .3 0 .4-.1.2-.1.5-.2.7-.3 1.7-.9 3.2-2 4.7-3.3 2.9-2.6 4.7-6.3 4.9-10.2.2-1.7.2-3.4 0-5.1-.1-.5.1-1 .4-1.4.9-1.1 1.7-2.3 2.5-3.6.2-.3.5-.3.8-.1 3.6 2.2 7.3 4.1 11.2 5.7 4.2 1.5 8.1 3.8 11.4 6.8 2.5 2.2 4.5 5 5.6 8.2.2.7.5 1.5.8 2.2.4.9.6 1.9.6 2.9.1 2.7.1 5.4.1 8.1-.1 2.9-.4 5.9-.9 8.8-.8 5.4-1.8 10.7-2.9 16-1.3 5.9-2.9 11.7-4.9 17.4-1 2.8-1.9 5.6-2.8 8.4-.7 2.1-1.5 4.1-2.5 6-1.1 2.3-3.2 3.9-5.7 4.4-2.8.7-5.8.4-8.4-.7-3.5-1.5-5.4-5.3-4.4-9 .2-.7.4-1.4.6-2.1.9-2.7 1.8-5.5 2.7-8.2 1.3-3.9 2.2-7.9 2.7-12 .5-3.2.9-6.5 1.4-9.7.8-5.8.9-11.8.3-17.6 0-.1 0-.3 0-.4-.1-.5-.4-.8-.8-.7s-.4.4-.5.8 0 .9 0 1.4c0 2.1.1 4.2.1 6.3 0 4.4-.3 8.8-1 13.1-.5 3.8-1.2 7.6-1.8 11.4-.4 2.4-1 4.7-1.8 7-1 2.9-2 5.8-2.9 8.8-.3 1-.6 2-.7 3.1-.1.6-.5 1.1-1 1.3-1.4.6-2.8 1.4-4.1 2.2-.5-1.4-.8-2.9-.9-4.3-.3-2.1-.4-4.3-.8-6.4-.4-2.2-1.1-4.3-2.3-6.2-1.1-1.8-2.3-3.6-3.5-5.4-1.7-2.4-2.9-5.1-3.7-8-.2-.7-.3-1.4-.4-2.1-.2-2.7-.1-5.4.4-8 1.2-6.3 1.6-12.6 1.2-19-.1-1.8-.3-3.5-.5-5.3-.1-.6-.2-1.2-.4-1.7-.1-.3-.4-.4-.6-.3s-.3.2-.4.4c-.1.3-.1.7 0 1 .2 2.6.4 5.2.6 7.8 0 .5.1 1 .1 1.6 0 4.6-.4 9.2-1.2 13.7-.4 2.3-.7 4.7-.7 7-.1 3.8.8 7.6 2.7 10.9.8 1.4 1.7 2.8 2.6 4.2.8 1.2 1.6 2.4 2.4 3.6 1.5 2.5 2.4 5.2 2.7 8.1.1 2.1.4 4.2.8 6.2.8 4.3 1.2 8.7 1.1 13.1 0 2 .1 3.9.1 5.9 0 .9-.2 1-1 1.1-.2 0-.4 0-.6 0-2.9-.2-5.9 0-8.8.5-.2 0-.4 0-.6 0s-.5-.1-.5-.4v-.1c0-.3 0-.7 0-1 .3-2.8.8-5.6 1-8.4.5-4.2.6-8.4.3-12.6-.2-2.5-.5-4.9-.9-7.4-.8-3.7-2.5-7.2-5-10.1-3.1-3.4-6.4-6.5-10.1-9.4-.6-.5-1.3-.9-1.9-1.4-.9-.8-1.8-1.5-2.7-2.3-2.3-1.9-3.5-4.7-3.3-7.7.1-2.1.1-4.2.1-6.3-.1-4.8-.5-10-1.2-15.1z" fill="#383e6b"/><path d="m392.6 238.1c3.2 2.2 6.7 4.1 10.3 5.6.3.1.6.3.9.4 3.9 1.2 5 4.5 5.9 7.9.3 1.3-.1 2.6-.4 3.9-.3 1.8-.7 3.6-1.2 5.4-.2.8-.3 1.5-.3 2.3 0 .4 0 .8.1 1.2.4 1.5 1.6 1.7 2.6.6.6-.7 1.1-1.5 1.5-2.3.8-1.5 1.8-2.9 2.9-4.2.5-.7 1.4-.9 2.1-.5 3.7 1.4 7.3 2.9 10.8 4.7 2.1 1.2 4.3 2.3 6.5 3.2 1.3.5 1.5.9 1.2 2.3-.3 1.7-.7 3.3-1.3 4.9-.9 2.1-1.7 4.2-2.6 6.4-1.2 3-2.1 6.2-3.1 9.3-.7 2.3-1.6 4.6-2.8 6.7-2 3.4-3.8 6.9-5.6 10.4-.6 1.1-1.2 2.2-2 3.1-.8 1.1-1.9 2-3.2 2.5-.9.4-1.2.3-1.4-.6-.3-1.1-.5-2.2-.8-3.2-.2-.8-.5-1.6-.7-2.4-.8-2.3-2.2-4.2-4.2-5.5-1-.7-2.1-1.3-3.2-1.9-5.4-2.8-10.9-5.5-16.3-8.2-4.4-2-9-3.5-13.8-4.4-5.1-1.1-10.1-2.5-15.2-4-.9-.3-1.7-.6-2.5-1-1.2-.6-2-1.8-1.9-3.2 0-1.3.3-2.6.8-3.8 1.1-2.7 2.3-5.3 3.7-7.8 5.4-9.8 10.3-19.7 15.4-29.6.4-.8.8-1.5 1.3-2.2.6-.9 1.7-1.5 2.8-1.6 1-.1 2 0 2.9.3 1.2.4 2.5.9 3.6 1.5 2 1 3.9 2.2 5.8 3.4.5.7-.1 1.2-.3 1.8-1 2.5-2.3 5-3.4 7.4 1.2-2.6 2.5-5.3 3.7-7.9.4-.8.8-1.1 1.4-.9z" fill="#383e6b"/><path d="m510.6 304.1c.2 4.3 0 8.5-.5 12.7-.4 3-1.1 5.9-1.7 8.9-.8 4-1.6 7.9-2.4 11.9-.2 1.2-.4 2.3-.5 3.5 0 .7-.4 1.4-1 1.8-2 1.7-3.9 3.4-5.9 5.2l-14.3 12.5c-.2.2-.5.4-.8.6s-.6.2-.8-.2c-1.1-3-1.8-6.2-2-9.4 0-.9 0-.9.9-1.2.7-.2 1.4-.3 2.1-.5 1.9-.4 3.3-1.9 3.6-3.7.2-1.1.4-2.2.4-3.3 0-2.5-.2-5.1-.7-7.6-.1-1.1-.6-2.2-1.5-2.9-.3-.2-.3-.6-.2-.9.2-.9.3-1.8.6-2.7.2-1 .5-1.9.9-2.8 1.5-3.9 3-7.8 4.5-11.7 1.2-2.9 2.7-5.7 4.3-8.4 1.7-2.9 4-5.4 6.7-7.4 2.3-1.8 4.8-3.4 7.4-4.9.5-.3.9-.1.9.5-.1 3.4-.1 6.7 0 10z" fill="#383e6b"/><path d="m381.5 224.1c2.9.8 5.7 2 8.3 3.5 1.7 1 3.3 2.2 4.8 3.5l7.2 6.1c.4.3.6.7.8 1.1.5 1.3 1.1 2.6 1.8 3.9-.3.5-.6.2-.9.1-2.7-1.1-5.2-2.4-7.7-3.9-1.9-1.2-3.9-2.4-5.8-3.6-1.6-1-3.3-1.9-5-2.7-.6-.2-1-.6-1.3-1.1-1-2.3-1.7-4.6-2.2-6.9z" fill="#383e6b"/><path d="m834 246.6c.7-2.2 1.4-4.5 2.2-6.7 1.7-4.9 3.1-9.8 4.4-14.8 0-.5.3-.9.6-1.3.8 1.4 1.5 2.9 2 4.5 3.8 10.2 7.3 20.6 10.4 31 .6 2.1 1.4 4.2 2 6.4 0 0 0 .1.1.1s.2 0 .3-.1v-3.5c-.3-.2-.1-.6-.3-.8-1.1-3.6-2.1-7.1-3.2-10.7-3.1-9.7-6.2-19.4-10.5-28.7-.3-.6-.3-1.3-.2-1.9.7-3.3 1.3-6.6 1.8-9.8 1-5.2 1.6-10.5 1.7-15.7 0-.6.2-1.1.7-1.5 1-1.1 1.7-2.4 2-3.8.4-1.9.5-3.8.3-5.7-.3-1.9-.8-3.7-1.4-5.5-.8-2.5-1-5.2-.7-7.8.1-1 .3-1.9.5-2.9.3-1.7.1-3.4-.6-5-2.5-6.1-8.7-9.6-13.7-9.5-1.1 0-2.2 0-3.4 0 .1-.7.1-1.5 0-2.2-.3-.9-.4-1.9-.7-2.9-.1-.4 0-.9.2-1.3 1-1.6 1.5-3.5 1.6-5.4.3-4.6.3-9.2 0-13.7-.1-2-.7-3.9-1.5-5.7s-1.7-3.6-2.4-5.4c-1.3-3.4-3.5-6.4-6.3-8.6-4.5-3.6-9.6-6.4-15.1-8.2-2.5-.9-5.2-1-7.7-.4-5.2 1.3-9.5 3.9-12.2 8.8-.5 1-1.1 2-1.5 3s-.9 1.8-1.3 2.7c-.7 1.6-1.9 3-3.4 4-.8.5-1.5 1-2.3 1.6-4.5 3-6.5 7.4-6.8 12.6-.3 5.1 1.2 10.2 4.2 14.3.9 1.4 2.2 2.6 3.7 3.4 0 .8-.1 1.5-.1 2.2 0 .8-.1 1.6-.3 2.3-.7-.3-1.3-.4-1.9-.7-2.4-1-5-1.2-7.5-.6-3.2.5-6.3 1.4-9.2 2.7-2.2 1-4.7 1.3-7.1.6-2.6-.8-5.3-1.4-8.1-1.6-.4 0-.7-.3-.7-.7 0 0 0 0 0-.1 0-.3 0-.6-.1-1-.1-1.7-.5-3.4-.9-5-.3-1.8-2-3.1-3.9-2.9h-.7c-3.5.2-7.1.1-10.6.1-.7 0-1.4-.1-2.1-.3-3.1-.9-6.2-1.8-9.2-2.8-5.7-1.9-11.5-3.4-17.4-4.6-4.5-.9-9.1-1.8-13.6-3.1-1.5-.4-3-.8-4.5-1.3-2-.6-2-.6-1.7-2.8.2-1.2.6-2.4 1-3.6.9-2.5 1.7-5.1 2.3-7.7 1-3.7 1.3-7.6 1-11.5 0-.7-.2-1.4-.4-2.1-.2-.9-1.1-1.4-2-1.2-.3.1-.6.3-.8.5-.4.4-.7.8-1 1.2-.2.3-.2.8-.8.7-.1-.8-.3-1.7-.4-2.5-.1-.5-.3-1-.5-1.5-.2-.4-.5-.8-.9-1-.5-.2-1.1-.1-1.5.3l-.7 1.2s-1.7 5.1-1.8 5.2c-.3-.6-.3-1.4 0-2 .5-1 1.5-3.4 1.5-3.6 0-.6.3-1.2.6-1.7.3-.8.5-1.6.8-2.4.2-.7.4-1.4.5-2.1.2-.8 0-1.6-.6-2.1-.7-.5-1.4-.1-2 .2-.1.2-.3.4-.5.6s-.3.1-.3 0c-.1-.1-.1-.2-.1-.3 0-.3.1-.6.4-.8.1-.3.1-.7.2-1 .2-.7.3-1.5.2-2.3s-.8-1.5-1.6-1.4c-.3 0-.5.1-.7.2-.6.3-1.2.8-1.7 1.3-2.1 2.1-3.8 4.7-4.9 7.5-.2.6-.4 1.2-.7 1.8-.4-.2-.6-.6-.5-1.1-.1-1.6-.1-3.1.1-4.7.3-1.8.5-3.6.5-5.5 0-.9-.1-1.8-.5-2.7-.3-.8-1.1-1.2-1.8-.9-.3.1-.5.3-.7.5-.4.5-.7 1.1-.9 1.7-.1.2-.2.5-.3.7s0 .6-.6.4c-.1-.7-.2-1.5-.2-2.3 0-.7-.2-1.4-.5-2.1s-1-1.2-1.8-1.3c-.9 0-1.7.5-2 1.4-.2.4-.4.8-.5 1.2-.2.6-.4 1.1-.6 1.7-1.6-.6-1.6-.6-2.9.1-.2-.4-.4-.8-.6-1.2-.4-.8-1.4-1.2-2.3-.8-.3.1-.5.3-.7.6-.5.7-.9 1.4-1.2 2.2-.3.9-.6 1.8-1 2.8-1.6-.5-1.9-.4-2.8.6-.7.9-1.2 1.9-1.6 2.9-1.9 5.5-2.6 11.4-2 17.2.1.6.2 1.3.2 1.9-.1 1.9 0 3.8.2 5.7.3 3.7.1 7.3-.4 10.9-.4 2.5-.6 4.9-.6 7.4 0 .9.1 1 1.2.9.2-3.2.6-6.4 1.1-9.6.5-4.1.5-8.2 0-12.3l-.1-1.4c.5-.2.6.1.8.4 1.1 2 1.9 4.2 2.3 6.4.3 1.7.5 3.5.8 5.2.1.5.2 1 .5 1.5.1.2.4.4.7.3.3 0 .5-.2.5-.5 0-.2 0-.4 0-.6-.4-2.5-.8-5-1.3-7.6-.4-1.9-1.1-3.6-2-5.3-.3-.7-.8-1.4-1.4-1.8s-.9-1.1-.9-1.8c-.5-5.3.1-10.6 1.7-15.7.3-1.2.8-2.4 1.6-3.3.1-.1.2-.2.3-.2.2 0 .3.2.3.4.1 1.6.1 3.1-.1 4.7-.3 3.5-.4 6.9-.2 10.4.1 1.8.4 3.5 1 5.2.7 2.6 1.6 5.1 2.7 7.6 1.1 2.4 1.1 5.2-.1 7.5-2.1 4.9-4.6 9.7-7.4 14.2-2 3.1-3.8 6.3-5.7 9.4-.4.6-.8 1.2-1.1 1.8-.5 1.2-1.8 2-3.1 1.8-1.1.1-2.2.3-3.3.6-.4.2-.8.2-1.2 0-.2-1.2-.4-2.4-.5-3.6-.3-1.1-.5-2.3-.5-3.5-.1-1.3-.3-2.6-.8-3.8-.1-.4-.1-.8.3-1 4.4-2.3 8.3-5.4 12.4-8.2.3-.2.7-.4 1-.6 0-.1.1-.3.1-.4 0-.8-.4-1.2-1-.9-.3.2-.7.4-1 .6l-7.4 5.2c-1.4 1-2.9 2-4.5 2.8-.6.3-.8.3-1.1-.2-.9-1.4-2.2-1.5-3.6-1-.7.2-1.4.5-2 .7-3.2 1.1-6.4 2.4-9.7 3.3-2.6.6-5.2 1.2-7.8 1.7-6.4 1.2-12.7 2.4-19 3.9l-5.2 1.2c-.7.2-.9.1-1.3-.6-.6-1.1-1.2-2.2-1.8-3.2-.4-.5-.6-1.2-.5-1.8.1-.4.1-.8.2-1.2.1-1.8-.1-3.5-.7-5.2-.3-1-1.2-1.7-2.3-1.8-1.2-.1-2.4 0-3.5.3-1.3.4-2.7.6-4.1.6s-2.9.1-4.3.3c-1.2.2-2.5.3-3.7.5-1.1.2-2.2.5-3.2.8-2.9 1.1-6 1.9-8.8 3.3-.2.1-.5.3-.7 0s0-.5.1-.7c.6-1.2.9-2.6.9-4 .1-1.8-.1-3.7-.5-5.5-.4-1.6-.7-3.2-1.1-4.8-.3-1.3-.3-2.6.1-3.9.2-.7.4-1.4.6-2.1.1-.3.2-.6.3-.9.5-1.4.3-2.9-.5-4.1-.7-1-1.4-2-2.1-3.1-.8-1.1-1-2.4-.7-3.7.3-.8.4-1.7.3-2.5 0-.4.1-.8.4-1 .7-.6 1.3-1.3 1.6-2.2.9-2 1.8-4.1 2.6-6.1.9-2.4 1.4-5 1.5-7.6.1-2.5-.9-4.8-2.6-6.6-2.7-3-6.3-5-10.3-5.7-3.4-.5-6.8-.7-10.2-.7-1.5 0-3 0-4.5.1-5.9.6-11.8 2-17.3 4.3-1.8.7-3.5 1.5-5.1 2.4-3.4 1.9-5.9 4.9-7.2 8.6-.5 1.4-.9 2.9-1.1 4.4-.5 3.7-1.9 7.3-4 10.3-.4.6-.8 1.2-1.1 1.8-.4.6-.8 1.5-1.2 2.3-.9 1.9-1.2 4.1-.8 6.1.2 1.3.6 2.5 1.2 3.7 1 2.1 2.2 4.1 3.4 6.2 3.9 6.8 7.8 13.5 12.6 19.6 1 1.4 1.8 2.9 2.4 4.5-1.2.7-2.3 1.3-3.4 2-.5.4-1.2.5-1.8.3-1-.3-2-.5-3.1-.7-2.9-.6-5.9-.3-8.7.8-1.4.6-2.9 1.3-4.2 2-2 1.1-4 2.3-5.9 3.5-4.2 2.7-8.7 4.7-13.5 6.2-4.6 1.3-8.9 3.6-12.7 6.5-1.7 1.3-3.3 2.8-4.8 4.4-3.8 4.1-7.6 8.1-11.4 12.2-3.3 3.6-6.7 7.2-9.6 11.1s-5.5 7.8-8.6 11.5c-.1.1-.2.3-.4.5-1.2 1.5-1.7 3.5-1.3 5.4.1.4 0 .9-.4 1.2-1.1 1.3-2 2.6-2.7 4.1-1.8 3.1-2.6 6.6-2.3 10.2 0 .2.1.4-.2.5s-.5-.2-.7-.3l-5.3-4.7c-4-3.5-8.7-6.1-13.8-7.6-.4-.1-.8-.2-1.1-.3-.5-.1-1.1.2-1.2.8v.4c0 .2.1.4.1.6.6 1.8 1.1 3.6 1.7 5.4.1.4.4.8.3 1.3-.5.1-1 0-1.6-.1-2.1-.3-4.2.8-5.4 2.6-.4.6-.8 1.2-1.1 1.9-2.3 4.5-4.6 9-6.9 13.4-2.6 5.2-5.4 10.3-8.2 15.4-1.5 2.8-2.9 5.6-4.1 8.5-.7 1.5-1 3.1-1 4.8 0 1.8.9 3.5 2.5 4.3.9.5 1.8.8 2.7 1.1 5.4 1.6 10.8 3.1 16.3 4.3 4.8 1 9.5 2.5 13.9 4.7 4.7 2.4 9.5 4.7 14.2 7.1 1.2.6 2.4 1.3 3.6 2 2 1.2 3.5 3.2 4.2 5.5.4 1.5.8 3 1.2 4.6.1.5.3 1 .4 1.5.2.8 1.1 1.3 1.9 1.1 1-.2 2-.6 2.9-1.2 1.2-.9 2.2-1.9 2.9-3.2.8-1.3 1.5-2.6 2.2-3.9 1.5-2.7 2.8-5.5 4.4-8.1 1.5-2.7 2.8-5.5 3.6-8.5 1.3-4.6 2.9-9.1 4.8-13.5.4-1 .8-1.9 1.1-2.9.7-1.7.9-3.5.9-5.4-.1-.5.1-1 .5-1.4 1.2-1.3 2.4-2.6 3.5-4 1.4-1.8 1-2.9-1.3-3.5s-4.7-1-7.1-1.2c-4.7-.5-9.4-.7-14.1-.8-.3 0-.6.1-.9-.4 1.2-1.9 1.2-4 1.1-6.2-.2-2.9-.5-5.7-.9-8.6-.4-2.6-.8-5.3-1.2-7.9-.2-1.2-.2-1.2.8-1.7 1.5-.7 3-1.6 4.4-2.6 3.2-2.2 6.2-4.6 9.1-7.2 2.4-2.1 4.6-4.3 6.5-6.8 1.5-1.9 3.2-3.7 4.8-5.4 3.8-4 8.3-7.2 13.3-9.6 4.7-2.2 9.5-4.4 14-7h.3c.1.7.1 1.4-.2 2.1-.5 1.6-1 3.1-1.6 4.6-1.8 4.8-3 9.7-3.7 14.8-.5 2.9-.8 5.8-1.3 8.7-1 6.2-2.5 12.3-4.3 18.3-2.5 8.8-6.4 17.1-11.6 24.5-1 1.5-1.9 3-2.7 4.6-1 2-1.7 4.1-1.9 6.4-.3 2 .1 4 1.2 5.6.4.6.8 1.2 1.2 1.8.3.4.4 1 .2 1.5-.6 1.5-1.1 3.1-1.6 4.6-1.6 6.3-2.7 12.7-3.2 19.1-.2 2.8-.4 5.6-.6 8.4-.3 4.4-.7 8.7-1.1 13.1-.3 3.3-.4 6.7-.8 10-.5 4.5-1.2 9-1.9 13.4-.5 4.3-1.8 8.5-3.8 12.3-1.1 2.1-2.2 4.3-3.5 6.3-1.9 3-3.8 5.9-5.7 8.9-2.7 4.3-5.6 8.4-8.8 12.3-2.2 2.8-4.3 5.8-6.2 8.8-.9 1.4-1.8 2.9-2.8 4.3-7.3 11.1-14.9 22-22.1 33.2-4.9 7.5-9.9 14.8-14.9 22.2-.4.6-1 1.1-1 1.9h1.6c2.8-4.2 5.7-8.3 8.5-12.5 5-7.5 9.9-15 14.9-22.4 4.7-7.1 9.5-14.1 14.2-21.2.3-.4.6-.9.9-1.3 3.2-5.1 6.7-10 10.4-14.8 5.4-7.2 10.3-14.7 14.7-22.5 2.8-5 4.6-10.4 5.3-16.1.6-4.4 1.2-8.8 1.8-13.2.2-1.8.4-3.5.5-5.3.2-5 .7-9.9 1.1-14.9.2-2.5.4-5 .5-7.5.5-7.6 1.7-15.2 3.6-22.6.3-1.1.6-2.1 1-3.2.1-.2.2-.4.3-.6.4.1.8.4 1 .7 1.6 1.8 3.5 3.4 5.5 4.7 1.8 1.4 4 2.4 6.2 2.7.9.1 1.7.1 2.6.1.6 0 .8.3.6.9-.9 2.3-1.5 4.7-2.2 7.1-1.3 4.5-2.3 9.1-3.1 13.8-.6 3.3-1.2 6.7-1.8 10-.1.8-.2 1.5-.3 2.3 0 .5-.3 1-.7 1.3-.8.4-1.2 1.2-1.1 2.1 0 4.9-.6 9.8 0 14.7.1.6.1 1.2.2 1.8.4 2.3 1.5 4 3.9 4.7.1 0 .1.1.2.2 0 .8 0 1.6-.1 2.4-.3 2.9-.7 5.9-1 8.8-.2 2.7-.5 5.3-.9 8-.6 3.5-1.1 7-1.9 10.4-.2.9-.5 1.8-.9 2.6-.8 2-2.2 3.6-4 4.8-.8.5-1.6.9-2.4 1.3-3.6 1.8-7.5 3-11.2 4.5-.5-.4-.3-.9-.3-1.3.2-2.6.4-5.2.5-7.8 0-.7 0-1.4-.1-2.1 0-.7-.6-1.2-1.2-1.1 0 0 0 0-.1 0-2.9 0-2.7-.1-3.1 2.5-.4 2.5-.6 5.1-.9 7.6-.1.5-.1 1-.1 1.6 0 1.2-.2 2.3-.4 3.5-.3 1.2-1.5 1.8-2.1 2.8-1 1.5-1.9 3.1-2.6 4.8-.3.7-.7 1.4-1.2 2-.6.6-1.2 1.4-1.8 2.1-1.1 1.3-2.4 2.3-4 3-1.3.5-2.6 1-3.8 1.6-.8.4-1.7.8-2.4 1.3-.6.3-1.1.7-1.5 1.3-.8.9-.7 2.3.3 3.1.1.1.3.2.4.3.9.6 2 .9 3.1 1 1.9.3 3.8 0 5.6-.9l.9-.4c.4.3.2.6.2.9-.8 4.2-1.9 8.3-3.3 12.3-.6 1.2-.7 2.6-.3 3.8.1.3 0 .7-.2.9-.6.9-1.1 1.8-1.7 2.6-3.5 4.8-7 9.6-10.5 14.5-1.6 2.2-3.3 4.4-4.9 6.7-.4.5-.9 1-.9 1.7h2c.3-.3.6-.5.8-.8 5.3-7.7 11.4-14.9 16.3-22.8.6-1.2 1.6-2.1 2.7-2.8-.1 2.7.1 5.1-.2 7.5-.4 2.7-.3 5.4.4 8 .3.9.6 1.9 1.6 2s1.4-1 1.8-1.8c1.2-2.9 1.4-6 1.8-9s.6-6.2 1.1-9.4c.1-.4 0-1.4.7-1 2.3 1.4 4.9.6 7.3 1.4 1.4.5 3.1.4 4.3-.5.5-.4 1.1-.5 1.6-.2 2.7 1.2 5.4.6 8-.3 2.1-.8 3.2-2.2 3.1-3.8-.1-1.4-1.5-2.8-3.4-3.4-2.2-.6-2.8-1.7-2.1-3.9.6-1.9 1.9-3.6 3.5-4.9 2.2-1.6 4.6-3.1 7-4.4 4.2-2.3 7.2-6.3 8.2-11 .7-2.9 1.4-5.7 2.1-8.6.1-.5.2-1 .4-1.5.3-.7 1.1-1.1 1.8-.9.6.2 1 .8.9 1.5-.3 3.9-.4 7.8-.7 11.7-.5 6.1-1 12.1-1.1 18.2-.1 3.4-.2 6.8-.5 10.2-.8 9.7-1.3 19.4-1.8 29.1-.1.5.1 1.1.4 1.5h1.6c.3-5.6.5-11.1.8-16.7.2-4.3.6-8.6.8-12.9.2-3.9.5-7.8.6-11.8.2-6.3.7-12.5 1.2-18.8.3-3.5.3-6.9.5-10.4-.1-.6 0-1.2.2-1.8.8-.1 1.7 0 2.5.1.6.1 1.3.2 2 .3 1.1.1 1.1.2 1.1 1.3s0 2.5-.1 3.7c-.1 2.6-.4 5.2-.5 7.8-.2 5.4-.5 10.9-.6 16.3-.1 7.7-.4 15.4-1 23.1-.2 2.9-.3 5.9-.4 8.8-.2 3.6-.3 7.2-.5 10.8h1.6c0-1.3 0-2.6.1-3.9.4-8.8.9-17.5 1.4-26.3.2-3.3.2-6.5.3-9.8.2-6.7.4-13.5.7-20.2.2-3.5.5-7 .4-10.6 0-.7.1-.8.8-.7 1.1.1 2.2.2 3.3.4 2.1.2 4.1.5 6.2.8.5 0 .9.4.9.8 1.3 7.3 2.6 14.5 4 21.8 1.2 5.9 2.6 11.7 3.7 17.6.9 4.8 1.6 9.5 2.2 14.3.6 4.5 1.2 9.1 1.8 13.6.1.7.1 1.4.2 2.1h1.6c-.4-3.5-.8-7-1.3-10.5-.4-3.5-.9-6.9-1.4-10.3-.6-5-1.6-9.9-2.6-14.9-1.1-5.5-2.4-11-3.5-16.5-.7-3.3-1.2-6.7-1.8-10-.4-2.2-.9-4.4-1.4-6.5-.1-.3-.1-.5-.1-.8 0-.2.1-.4.3-.4h.8l9.9 1.2c.8.1.9.3.9 1.2 0 3.1 0 6.3.2 9.4.2 4.6.3 9.3.7 13.9.5 4.8 1.2 9.6 2.1 14.4 1.7 8.5 4 16.8 7.1 24.9.6 1.6 1.2 3.3 1.8 5h1.6c-1.6-4.6-3.2-9.1-4.8-13.7-2-6.2-3.6-12.6-4.7-19-1.5-8.6-2.2-17.3-2.4-26-.1-3.4-.3-6.8-.1-10.2.3-3.8.9-7.5 1.9-11.2.3-1.4.6-2.8.9-4.2.7-2.9 1.6-5.7 2.7-8.4 1-2.6 1.9-5.3 2.9-7.9.1-.5.3-.9.7-1.2 1.7.7 3.4 1.2 5.1 1.7 5.6 1.3 11.4 2 17.1 1.9 8.6 0 17.2 0 25.7-.5 2.3-.1 4.6-.5 6.8-.8 2.6-.4 5.3-1 7.9-1.4 3.4-.6 6.6-1.5 9.8-2.8.4-.2.8-.3 1.2-.5.5.2.4.7.4 1 .5 4.6 1 9.2 1.5 13.9.4 4.2.9 8.5 1.3 12.7.2 1.8.3 3.6.4 5.5.4 6.1.9 12.1 1.1 18.2.2 4.6.6 9.1.9 13.7.2 2.4.4 4.8.5 7.2.3 6.3.8 12.7 1.5 19 .3 3.2.6 6.4.9 9.6.1 1.1.3 2.2.4 3.3h1.6c.3-.6.4-1.4.2-2.1-.4-4.3-.8-8.6-1.2-12.9-.6-6.2-1-12.5-1.4-18.8-.3-4.9-.8-9.8-.9-14.7 0-2.3.2-2.5 2.5-2.2 6 .9 12.1 1.6 18.1 2.4 17.1 2.3 34.1 4.5 51.2 6.9 2.6.4 2.6.5 2.2 3-1.9 12-3.5 24-5.7 35.9-.3.8-.2 1.7.3 2.4h1.2c.5-1.5.9-3.1 1.1-4.8.9-5 1.7-9.9 2.4-14.9.9-5.7 1.8-11.4 2.6-17.1.5-3.5 1-7 1.3-10.5.4-4 .8-8 1.1-11.9.1-1.4.1-2.8.2-4.1.1-4.5.6-8.9 1.5-13.3.7-3.2 2.1-6.2 4.1-8.8.3-.4.6-.6 1.1-.5 1.5.3 3.1.6 4.7.7.4 0 .7.3.8.7v.1 2.2c0 1.4 0 2.9.1 4.3.2 1.5.6 3 1.3 4.3.7 1.4 1.4 2.8 2.2 4.1.5.8.7 1.8.4 2.8-.7 3.1-1.8 6-3.4 8.7-.2.3-.4.7-.5 1 0 .2 0 .4.2.5.2.2.5.3.7.2.5-.3.9-.7 1.2-1.3 1.5-2.6 2.6-5.4 3.3-8.4.8-4.3 1.6-8.6 2.3-12.9.3-1.7.6-3.4.9-5 0-.3.3-.5.5-.5h1c3.3.4 6.7.4 10 0 3-.3 6-.5 9-.8 1.2-.1 2.3-.3 3.5-.5 3.4-.6 6.7-1.2 10-1.9 2.4-.5 4.7-1.1 7-1.8 3.4-1.1 6.7-2.7 9.7-4.7 1.5-1 2.9-2.3 4-3.7.4-.5.8-1 1.2-1.5.2.2.3.2.4.3 1.3 4.8 3.2 9.4 4.7 14.1 2.3 7.5 4.5 15 6.2 22.7.8 3.5 1.3 7.1 1.5 10.7.1 2.1.2 4.2.3 6.3 0 7.2-.7 14.4-2.2 21.4-.6 2.9-1.6 5.7-2.8 8.4-2 4.6-4.3 9.1-6.9 13.4-.4.6-.7 1.3-1 1.9h2c.3-.3.6-.5.8-.9 4-6.6 7.5-13.5 9.6-21 .8-2.7.7-2.8 3.6-2.3 15.8 2.6 31.5 5.1 47.3 7.7 12.9 2.1 25.9 4.2 38.8 6.3.9.2 1.9.6 2.8-.1v-1.6c-1.3 0-2.6-.2-3.9-.5-8.8-1.4-17.7-2.9-26.5-4.3l-29-4.7-26.3-4.3-5.4-.9c-.7-.1-.8-.3-.7-1.1.2-1.2.4-2.3.5-3.5s.2-1.2 1.5-1l19 3.1 18.2 3c5.3.9 10.6 1.7 15.9 2.5 5.3.9 10.6 1.7 15.9 2.6 5.3.8 10.6 1.7 15.9 2.5l5 .8v-1.2c-.6-1.1-1.8-1-2.8-1.2-10.1-1.6-20.2-3.2-30.2-4.9-18.4-2.9-36.7-5.9-55.1-8.9-2.3-.4-2.4-.4-2.2-2.7.8-9 .3-18.1-1.7-26.9-2.1-9.7-4.9-19.3-8.4-28.6-2.5-6.5-3.2-13.3-4.9-20-3.1-12.3-6.4-24.6-7.1-37.4-.3-6-.3-12 1.4-17.9 2.4-8.8 4.9-17.5 6.1-26.6.4-2.9.5-3 3.5-2.4 9.9 1.8 19.9 3.5 29.8 5.2 7.1 1.3 14.3 2.5 21.5 3.7 1.6.3 2 .9 1.6 2.4-.3 1.1-.3 2.3-.5 3.5-1.4 9.1-3.6 18.1-5.1 27.2-.9 5.5-.6 10.5 2.7 15.2 1.5 2.1 3.1 4.1 4.7 6 3.1 3.7 6.8 6.9 10 10.5 1.2 1.5 2.8 2.6 4.6 3.2 1.9.5 3-.3 3.2-2.2.1-1.4-.2-2.8-1-3.9-2.1-3-4.4-5.7-7.1-8.1 1.8.6 3.1 1.2 4.4 1.7 4.2 1.6 8.2 3.5 12.5 4.6 1.3.3 2.9.9 3.8-.5.9-1.5-.1-2.7-1.1-3.8-.1-.1-.1-.2 0-.3 2 .4 4 .6 6 .4 1.3 0 2.5-.4 2.5-2.1 0-.8.5-1 1.1-1 1.4-.2 2.6-.8 2.7-2.3.2-1.5-1.1-2.1-2.2-2.7-1.9-.9-3.9-1.6-5.9-2.1 2.2-2.3 1.8-4.1-1-5.3-.5-.2-1-.4-1.5-.5-1.9-.5-3.8-.8-5.8-1-3.7-.4-7.2-1.4-10.5-3-5.9-2.9-7-5-6-11.5 0-.1 0-.1 0-.1s0 0 0-.1c1.1-6.3 2.8-12.5 4.1-18.8.5-2.2.5-2.2 2.7-1.8 9.5 1.7 19.1 3.4 28.6 5 .9.1 1.8.5 2.6-.2v-1.2c-.7-1.2-2-1.1-3.1-1.3-9.3-1.6-18.6-3.2-27.9-4.9-.8 0-1.6-.4-2.1-1.1 2.6.1 4.8-.8 7-1.1 8.1-1 16.1-2.7 24.3-3.7.7-.1 1.4-.2 1.8-.9v.3c-2.5.3-4.9.6-7.4 1-5.8.9-11.6 1.9-17.4 2.9h-.2c-1.1.1-1.5.1-1.1-1.2.8-2.5 1.4-5 1.8-7.6.6-3.1.3-6.3-.8-9.3-.3-.8-.2-1.7.2-2.4 1.3-2.1 2.2-4.4 3-6.8zm-.1-89.5c.6-.1 1.2 0 1.6.4.5 0 1.1.2 1.5.5.6.1 1.2.3 1.6.8.7.3 1.3.8 1.6 1.5.8.9 1.4 2 1.7 3.2.1.2.1.4.1.6s-.1.4-.3.5-.3-.1-.4-.3c-.3-1.2-.9-2.4-1.6-3.5l-1.6-1.6c-.5-.2-1-.4-1.5-.8l-1.5-.4c-.5.1-.9 0-1.3-.3-.1-.1-.2-.2-.2-.3.1-.1.2-.2.3-.3zm-10.2 2.5c.2.1.3.2.4.4.6.3 1.1.7 1.6 1.1l1.6.9c.2 0 .3.1.4.2l.4.2c.2 0 .3.1.3.2 1.1.3 2.2.9 3.2 1.5.6.1 1.2.4 1.7.8.1-.1.2 0 .2 0l.5.2c.1 0 .3.1.3.2.9.3 1.8.8 2.6 1.5.3 0 .5.2.6.4.8.4 1.4.9 1.9 1.6l.4.4c.2 0 .4.2.4.4.2 0 .3.2.4.4.5.3 1 .8 1.2 1.4.5.4.9 1 1.1 1.7.1.1.1.2.1.3.9 1.5 1.6 3.1 1.8 4.8 0 .3 0 .5-.1.7 0 .1-.2.1-.3.2s-.2 0-.3-.2c-.3-1.8-.9-3.5-1.6-5.1-.1-.1-.1-.2-.1-.3-.5-.5-.8-1-1.1-1.7-.5-.5-.9-1-1.2-1.6-.2-.1-.3-.2-.3-.4-.2 0-.4-.2-.4-.4-.2 0-.4-.2-.4-.4-.7-.4-1.4-1-2-1.6-.4-.2-.8-.4-1.2-.8l-2.4-1.3c-.2 0-.4-.1-.4-.3-.3 0-.6-.2-.8-.4-.4 0-.8-.2-1.1-.4-1.1-.3-2.2-.8-3.2-1.5l-.4-.2c-.2 0-.3-.1-.4-.2-.7-.3-1.4-.7-2-1.2-.6-.2-1.2-.6-1.6-1.1-.2-.1-.3-.2-.5-.3-.8-.7-1.1-1.2-.7-1.3.8.3 1 .9 1.4 1.2zm-18-53.8c.2-.2.3 0 .5.1.1.1.1.2.2.3.2 0 .3.2.4.4l.5.3c.9.4 1.7 1 2.4 1.6l.8.5c.3 0 .5.2.7.4.2 0 .4.1.5.3.5.1.9.4 1.2.7.3 0 .6.2.7.4.6.2 1.2.6 1.6 1.2 1.2.8 2.3 1.9 3.1 3.2.5.4.9 1 1.1 1.6.5.6.8 1.2.9 1.9.3.3.5.7.5 1.2.3.2.3.5.3.8.4.7.7 1.6.7 2.4 0 .2.1.5.1.7.4.7.5 1.5.4 2.2.3.7.4 1.4.3 2.2 0 .2-.2.3-.3.4s-.4 0-.4-.3c-.1-.6-.1-1.2 0-1.8-.2-.4-.4-.9-.3-1.4 0-.1 0-.3 0-.4s-.1-.4-.1-.7c-.4-.8-.6-1.6-.7-2.5-.2-.5-.4-1-.4-1.6-.3-.3-.5-.7-.5-1.2-.4-.4-.7-.9-.8-1.5-.5-.5-.9-1-1.1-1.7l-3.1-3.2c-.6-.3-1.1-.7-1.6-1.2l-.7-.4c-.5-.1-.9-.4-1.2-.7-.5-.1-1-.4-1.3-.8l-.7-.4c-.9-.3-1.7-.9-2.3-1.6-.2 0-.3-.2-.4-.4l-.1-.1c-.2 0-.4-.2-.4-.4-.1-.1-.2-.1-.3-.2-.3 0-.4-.2-.2-.3zm10.9 26.7c-.1-.1-.1-.2-.1-.3-.4-.9-.6-1.8-.8-2.8l-1.9-4.8c-.1-.1-.1-.2-.1-.3-.5-.5-.8-1.1-1-1.7-.2-.3-.3-.5-.5-.8-.1-.1-.2-.2-.3-.2-.1-.1-.1-.3 0-.5.2-.2.3 0 .5.1s.1.2.2.3c.3.2.4.4.5.7.5.4.9 1 1 1.7.1.1.1.2.1.3.9 1.3 1.5 2.8 1.9 4.4.4 1 .7 2.1.8 3.1l.1.8c.3.5.4 1 .3 1.6.3.5.4 1.1.3 1.6.2.8.3 1.7.1 2.5 0 .1-.1.2-.2.2-.2 0-.2-.1-.2-.2 0-.4 0-.8 0-1.2-.3-.7-.4-1.4-.3-2.1-.3-.8-.4-1.6-.4-2.4zm-18.8-11c.1-.1.2-.1.3 0 .3.3.6.7.7 1.1 1 1.1 2 2.2 3.2 3.1.6.3 1.2.7 1.7 1.2.4.1.8.4 1.1.8.6.3 1.2.7 1.6 1.2.6.3 1.1.7 1.6 1.2.6.3 1.1.7 1.6 1.2.9.6 1.8 1.4 2.4 2.3.5.4.9 1 1.1 1.6.1.1.1.2.1.3.7 1.2 1 2.6.7 4 0 .1-.1.2-.1.2l-.2-.2c-.2-.2-.3-.4-.3-.7-.1-1-.3-1.9-.5-2.9-.1-.1-.1-.2-.1-.3-.5-.5-.8-1-1.1-1.6l-2.4-2.4c-.6-.3-1.1-.7-1.5-1.2-.6-.3-1.1-.7-1.6-1.2-.6-.3-1.1-.7-1.6-1.1-.5-.2-.9-.5-1.2-.8-.6-.3-1.1-.7-1.6-1.2-1.3-.8-2.4-1.8-3.1-3.1-.4-.3-.7-.8-.8-1.3-.1-.1-.1-.1 0-.2zm.3 6.3c2.2 1.3 4.5 2.7 6.7 4.1 1.8 1.1 3.2 2.7 4.2 4.6.7 1.3 1.3 2.6 1.9 3.9 1 2.3 2.2 4.4 3.7 6.5.3.4.7.7 1.1.5.7-.4 1.6-.3 2.3.1s1.3 1.2 1.5 2c.1.4.2.8.3 1.1.4 2-1.9 6.6-4.4 7.1-1.7.2-2.9 1.6-3.1 3.3-.2.6-.5 1.2-.8 1.8-1.3 1.9-2.7 3.7-4.4 5.3-2.2 2-4.3 4-6.6 5.8-1.5 1.1-3.2 2.1-4.9 2.9-3.3 1.4-7.1.5-9.4-2.3-1.8-2.3-3.1-4.8-4-7.6-.6-2.1-1.5-4.1-2.2-6.1-.9-2.4-1.3-5-1.3-7.5.6-4.4.5-9.4 1.9-14.1 1.6-5.4 5.3-9.8 10.3-12.2 1.1-.6 2.4-.7 3.6-.4 1.2 0 2.5.5 3.6 1.2zm2.4 54.9c0-.5 0-1-.1-1.6-.1-.5-.2-1-.4-1.5s-.4-1-.6-1.4c-.2-.5-.5-.9-.8-1.5.7-.5 1.4-.9 2-1.4 2.1-1.5 4.1-3.2 6-5.1.7-.7 1.4-1.3 2.4-2.2.7 7.6-1.9 13-8.4 16.2-.1-.5-.1-1-.1-1.5zm-13.2-5.4c-3.1 2.8-4.4 6.5-5.7 10.2-3.4-5.9-2.9-12.6.4-17.1.6 1 1.1 1.8 1.6 2.6s1 1.5 1.5 2.3c.6.8 1.4 1.5 2.2 2zm-10.2-47-.1 3.3c.1.3.2.6.2.9.1.2 0 .4-.2.4-.3 0-.3-.2-.4-.5-.3-.3-.4-.8-.3-1.2v-1.2c0-.1 0-.2 0-.4-.1-.6 0-1.2.3-1.7l.2-1.1c0-.3.1-.6.3-.9.2-1.6.9-3.1 2-4.2.6-1 1.4-1.8 2.3-2.3 0-.2.2-.3.4-.4.4-.5.9-1 1.5-1.2.4-.5 1-.9 1.6-1.2.4-.5 1-.9 1.6-1.2l2.4-2.3c0-.2.1-.4.3-.4.1-.5.4-.9.8-1.2 0-.1 0-.2.1-.3.1-.7.4-1.4.8-2 .4-1.3 1-2.6 2-3.6.1-.1.2-.2.3-.3 0-.2.2-.4.4-.4 0-.2.2-.3.4-.4v-.1c0-.2.2-.4.4-.4 0-.2.2-.4.4-.4.2-.4.5-.5.9-.7.3-.2 1-.2 1 0 0 .4-.4.4-.7.6s-.5.3-.8.4c-.2.3-.5.6-.8.7 0 .2-.2.4-.4.4v.1c0 .2-.1.4-.4.5l-.5.7c-.1.1-.2.2-.3.3l-1.5 2.9c-.1.7-.4 1.4-.8 1.9 0 .1 0 .2-.1.3-.1.5-.3.9-.7 1.2-.7 1.1-1.6 2.1-2.7 2.8-.4.5-1 .9-1.6 1.2-.5.5-1 .9-1.6 1.1-.4.5-1 .9-1.6 1.2l-.4.3-2.3 2.4c-1 1.5-1.7 3.3-2.1 5.1-.1.7-.2 1-.3 1.3zm-48.7 16c2.9-.1 5.8-.1 8.6-.1h.6c1.5 0 2 .4 2.5 2 .3.9.5 1.9.6 2.9.9 5.4.5 10.9-1.2 16.1-.7 2.6-2.2 4.9-4.1 6.7-2.3-3.5-5.1-6.8-8.2-9.6 2.2-5.9 2.5-11.8.2-17.6.2-.6.6-.4 1-.4zm-2.1 86.4v-.8c-.1-.9 0-1.7.3-2.6-.1-1.1 0-2.2.4-3.1 0-1.6.2-3.1.7-4.6 0-.4.1-.7.1-1.1 0-1.1.3-2.2.7-3.2 0-.1 0-.3.1-.3 0-.7.1-1.4.4-2 0-.5.1-1.1.4-1.6-.1-.5.1-1 .3-1.4l-.1-.1.1-.1c-.1-.6.1-1.2.4-1.6-.1-.5 0-1.1.3-1.5 0-.8.1-1.6.5-2.4 0-.2 0-.5.1-.7s0-.5 0-.8c-.1-.5 0-.9.2-1.4l.1-1.8c0-2.4 0-4.7 0-7.1-.1-.4-.2-.9-.1-1.4-.3-.6-.4-1.2-.3-1.8-.3-.9-.4-1.8-.5-2.7-.3-.4-.5-1-.5-1.5-.4-.7-.7-1.5-.8-2.3-.5-.8-.8-1.6-1-2.5-.1-.1-.1-.2-.1-.3-.2-.1-.3-.3-.3-.5l-.9-1.9c-.2-.1-.3-.3-.3-.5l-.3-.4c-.1-.1-.2-.2-.2-.3-.2-.1-.3-.3-.3-.5l-.5-.7-.3-.5c-.2-.2-.3-.4-.5-.7-.2-.1-.3-.3-.4-.5-.7-.7-1.4-1.5-1.9-2.4v-.1c-.2 0-.4-.2-.4-.4-.3-.1-.5-.4-.6-.6-.2 0-.4-.2-.4-.4-.2 0-.4-.2-.4-.4-.1 0-.3-.1-.3-.2 0 0 0 0 0-.1-.2 0-.4-.2-.4-.4-.3-.1-.5-.3-.6-.6-.2 0-.4-.2-.4-.4-.6-.3-1.2-.8-1.6-1.3 0-.1 0-.2 0-.4s.2-.2.3-.1c.6.3 1.2.8 1.6 1.3.2 0 .4.2.4.4.2 0 .4.2.4.4.2 0 .4.2.4.4.4.1.6.4.8.8.3.3.5.5.8.8.2 0 .4.2.4.4.2 0 .4.2.4.4.8.6 1.5 1.4 2 2.3.2.1.3.2.3.4v.1c.1.1.2.2.3.3.5.6 1 1.3 1.3 2 .1.1.2.3.3.4s.2.2.2.3c.2.1.3.3.3.5.4.5.7 1.2.9 1.8.2.1.3.3.3.5.1.1.1.2.1.3.5.7.9 1.6 1.1 2.5.4.7.6 1.5.8 2.4.3.5.4 1 .4 1.6.3.7.5 1.5.5 2.2.2.2.3.6.2.9.6 3.4.8 6.8.4 10.2.1.7 0 1.5-.3 2.2l-.1 1.4c.1.4 0 .9-.3 1.2 0 .1 0 .2-.1.3.1.7-.1 1.4-.4 2 0 .8-.1 1.6-.4 2.3.1.5 0 .9-.3 1.3-.1 1.2-.3 2.4-.8 3.5.1.6-.1 1.1-.4 1.6 0 .2 0 .5-.1.7 0 1.2-.3 2.4-.7 3.6 0 .1 0 .2-.1.3 0 .9-.2 1.9-.4 2.8.1.5 0 1-.3 1.4.1.4.1.9-.1 1.3v.4c.1.6 0 1.2-.3 1.8.1.7 0 1.4-.1 2.1v.4 9.1l.1 1.9c.3.8.4 1.6.3 2.4 0 .2 0 .5.1.7.3.4.4.8.3 1.2l.1.7c.1.2.2.4.3.7.2.9.1 1.4-.2 1.3-.5-.2-.5-.6-.6-1.1-.3-.6-.4-1.3-.4-2 0-.2-.1-.4-.1-.7-.3-.5-.4-1.1-.3-1.7 0-.5-.1-1-.1-1.5-.4-1.3-.5-2.7-.3-4 .2-1.8.2-4 .4-6.2zm-10.3-32.3c.3.5.4 1 .4 1.6.1.1.1.2.1.3.4 1 .7 2.1.7 3.2l.1 1.1c.3.5.4 1.1.3 1.7l.1 1.5c.4 1.2.5 2.4.3 3.6.2 2.3.2 4.7 0 7 .1.7.1 1.3 0 2 .1 1 0 2-.3 2.9.1.9 0 1.8-.4 2.7.1.5-.1 1.1-.4 1.5 0 .2-.1.4-.3.3-.2 0-.3-.2-.2-.4 0 0 0 0 0-.1s.1-.2.1-.3c.1-.8.3-1.6.4-2.4-.1-.7 0-1.5.3-2.2 0-1 .1-2 .1-3v-10.2l-.1-1.5c-.3-.8-.4-1.6-.3-2.4 0-.2 0-.5-.1-.7-.4-1.2-.6-2.4-.7-3.6 0-.2 0-.4-.1-.7-.3-.5-.5-1-.4-1.6-.3-.5-.5-1-.4-1.6-.5-1.2-.8-2.4-1-3.7l-.1-.7c-.3-.4-.5-.9-.4-1.4-.3-.3-.4-.8-.4-1.2-.4-.9-.6-2-.5-3 0-.1.2-.2.3-.2s.3-.1.3.1c.1.8.3 1.5.4 2.3l.4 1.6c.3.6.4 1.3.5 1.9.6 1.3.9 2.6 1.1 4 .1.6.2 1.1.2 1.6zm-1.8 51.5c0-.2 0-.4 0-.6s.1-.5.4-.5c.4 0 .3.2.3.4v.8c0 .1-.1.3-.1.4s0 .2-.1.3l-.1.5c.1 1.2.1 2.3 0 3.5.3.8.4 1.7.3 2.6l.1 1.4c.3.9.4 1.9.5 2.9.3 2.1.8 4.2 1.5 6.3.1.2 0 .3-.2.4 0 0 0 0-.1 0s-.2 0-.3-.1c-.2-.4-.4-.8-.6-1.2-.6-2.3-1.1-4.6-1.2-6.9 0-.5-.1-.9-.1-1.4-.3-.7-.4-1.4-.2-2.1-.5-2.2-.5-4.5-.1-6.7zm0 38.4c.2 0 .5.1.7.1h3.6l1.4-.5c.5-.5 1.1-.9 1.7-1.1.2-.3.5-.6.8-.7 0-.2.2-.4.4-.4.2-.3.5-.7.8-1 .1-.1.3-.2.5-.1.3.1.2.4 0 .6-.2.4-.4.8-.9.9-.3.2-.6.5-.9.8 0 .2-.2.4-.4.4-.4.5-.9.9-1.5 1.1l-.4.1c0 .2-.1.2-.3.2l-.8.2c-1.5.6-3.1.6-4.6 0-.2 0-.4 0-.3-.3 0-.2.1-.3.2-.3zm12.5-10.3c.1-.1.2-.1.3-.1.1-.2.2-.4.4-.4.1-.2.2-.3.4-.4.1-.3.4-.6.7-.7l.4-.5c.3-.6.7-1.1 1.2-1.6.3-.6.7-1.2 1.2-1.6l.4-.7c.1-.5.4-.9.8-1.2 0-.3.2-.5.4-.6 0-.3.1-.5.4-.6 0-.1 0-.2.1-.3.4-1.2.8-2.4 1.2-3.6 0-.5.1-.9.3-1.3 0-.6.1-1.2.1-1.8-.1-3.1-.1-6.2-.2-9.3-.2-.3-.3-.6-.2-.9v-.8c0-.2.1-.3.3-.3.4.1.4.4.3.7l.1 1.3c.3.7.4 1.4.3 2.2.1 2.7.1 5.4 0 8.1-.1.4-.1.7-.3 1.1-.1 1.8-.7 3.5-1.6 5 0 .1 0 .2-.1.3-.1.6-.4 1.1-.8 1.6-.1.3-.2.7-.6.9-.1.3-.2.6-.5.7-.3.6-.6 1.2-1.1 1.6-.3.6-.7 1.1-1.2 1.5 0 .2-.2.3-.4.4 0 .2-.2.4-.4.4 0 .2-.2.4-.4.4 0 .2-.2.4-.4.4 0 .2-.2.4-.4.4-.1.1-.1.2-.2.3-.2.2-.5.3-.7.1-.2-.4.1-.5.2-.7zm-46.9-145.6c5.3 1.7 10.7 3 16.2 4 6 1.1 12 2.7 17.8 4.5 3.4 1.1 6.7 2.1 10.1 3 1 .2 1.7.9 2.1 1.8.6 1.2 1 2.6 1.1 3.9.3 2.9.2 5.9-.4 8.8-.2.8-.4 1.5-.7 2.2-.1.2-.3.3-.5.3-.1 0-.1 0-.2-.1l-1.4-1c-2.8-2.2-6.1-3.6-9.5-4.4-3.3-.7-6.8-.7-10.1 0-.9.2-1.8.1-2.6-.4-.9-.5-1.9-.9-2.8-1.5-4-2.3-7.9-4.6-12-6.7-.5-.3-1-.6-1.3-1.1-1.8-2.7-3.7-5.4-5.4-8.2-1.2-1.8-2-3.8-2.3-5.9zm21 144.2c-.3-.6-.5-1.2-.5-1.9-.4-.7-.5-1.4-.4-2.2-.3-.7-.4-1.5-.3-2.2 0-3.1-.1-6.2-.1-9.3-.3-.7-.4-1.4-.3-2.1-.3-1.8-.8-3.6-1.3-5.4l-1-2.1c-.4-.5-.7-1-.8-1.6-.1-.1-.1-.2-.1-.3-.7-1-1.1-2.2-1.1-3.4-.1-1-.1-2 .1-2.9-.1-.6 0-1.2.3-1.8 0-.3.1-.6.1-1-.1-.3 0-.7.3-.9 0-.6.1-1.1.4-1.6-.1-.6.1-1.1.4-1.6l.1-.7c0-.8.1-1.6.4-2.4.1-1.1.2-2.2.3-3.2 0-.1.2-.2.3-.2s.2.1.2.2c.2 1.3.1 2.5-.3 3.8.1.8-.1 1.6-.4 2.3 0 .2-.1.5-.1.7 0 .5-.1 1.1-.4 1.6 0 .7-.2 1.4-.4 2v.4c.1.4 0 .7-.2 1v1.6c-.2 1.9 0 3.9.7 5.7.1.1.1.2.1.3.3.1.4.4.4.6 0 .1 0 .2.1.4-.1-.1-.1-.2-.1-.4.2.1.4.4.4.6.5.7.9 1.5 1.2 2.4.7 1.4 1.1 2.9 1.3 4.5.3.4.4.9.2 1.4 0 .7.1 1.5.1 2.2.2.7.3 1.5.3 2.3v6.9c.1 1.2.3 2.4.4 3.5.2.7.3 1.5.5 2.2.4.6.7 1.3.8 2l2.7 5.1c.2.1.3.3.3.5l1.6 1.6c.3.1.4.4.2.6s-.5.2-.7-.2c-.6-.4-1.2-.9-1.5-1.6-.2-.1-.3-.2-.4-.5-.1-.1-.2-.2-.2-.4-1-1.5-1.9-3.1-2.5-4.8-.7-.2-1-.9-1.1-1.7zm-6.4-99.1c-.5-1.8-.5-3.7 0-5.5 0-.3.1-.7.1-1-.1-.3 0-.7.3-.9 0-.3 0-.6.3-.8 0-.1 0-.3.1-.3.1-.4.3-.6.7-.4s0 .5-.2.7l-.5 1.2c.1.5 0 1-.3 1.4v5.5c.3 1 .4 2.1.4 3.1.2.4.3.9.3 1.4v.4c.2.8.4 1.6.4 2.4 0 .1 0 .2.1.4.3.3.4.7.4 1.2.5 1.2.9 2.4 1.1 3.6.1.1.1.2.1.3.6 1.3 1.1 2.6 1.5 4 .3.4.5.9.5 1.4.4.5.7 1.2.8 1.9 0 .1 0 .2.1.3 0-.1-.1-.2-.1-.3.2.1.3.4.3.6.1 0 .1.2.1.2 0 .2.1.4.3.5.1.1.1.2.1.3.5.9.9 1.8 1.2 2.8.6 1.2 1 2.5 1.2 3.8.5 1 .8 2 .8 3.1.3.4.4.9.3 1.3 0 .4.1.7.1 1.1.3.4.4.9.3 1.3 0 .4.1.7.1 1.1.3.4.3.8.3 1.3v.4c.2.6.2 1.2.1 1.7.3.7.4 1.4.3 2.2.2 1.4.2 2.9 0 4.3.1.6 0 1.2-.3 1.7l-.1.6c0 .2 0 .4-.1.5s-.3.2-.5.2c0 0-.2-.2-.2-.3 0-.5.1-1 .3-1.5.2-2.6 0-5.2 0-7.8-.3-.7-.4-1.5-.3-2.2 0-.4-.1-.7-.1-1.1-.3-.5-.4-1.1-.3-1.7 0-.2-.1-.5-.1-.7-.3-.4-.4-.8-.3-1.2l-.1-.9c-.2-.3-.3-.6-.3-1-.1-.5-.2-1.1-.4-1.6-.4-1.4-.9-2.8-1.3-4.1-.4-.8-.8-1.6-1-2.5-.1-.1-.1-.2-.1-.3-.1-.1-.1-.3-.2-.4-.5-1-1-2.1-1.3-3.2-.3-.4-.5-.9-.5-1.4-.6-1.2-1.1-2.4-1.4-3.7-.1-.2-.1-.4-.2-.6-.5-1-.9-2.1-1-3.3-.3-.6-.4-1.3-.5-1.9l-.1-.4c-.4-.4-.3-1-.4-1.5-.2-.2-.3-.6-.3-.9l-.1-1c-.3-.6-.4-1.2-.3-1.8-.2-.6-.2-1.3-.1-2zm-36.7-22.4c-.6-.2-.9-.8-.7-1.4.6-2.8 1.2-5.6 1.8-8.4.4-2 .9-3.9 1.4-5.9 0-.3.2-.7.5-.8.2.1.3.2.5.3 1.8 1.6 3.5 3.3 5.4 4.9 2.8 2.5 5.3 5.3 7.5 8.3.7 1 1.4 2.1 2.2 3 1.3 1.7 2.3 3.7 2.8 5.8.2.5.2 1.2-.1 1.7s-.3 1.2 0 1.7c.3.8.7 1.6 1.1 2.3 1.2 2.1 2.6 4.1 4.1 6 .3.3.4.6.4 1-.1 2.9.2 5.9 1 8.7.3 1.3.5 2.6.9 3.8.2 1 .3 2.1 0 3.1-.5 2.6-1.5 5.1-3 7.4-.8 1.2-1.6 2.4-2.5 3.6-1.1 1.3-1.4 3.2-.7 4.8.7 1.8 1.2 3.7 1.5 5.7.2 1.7.4 3.4.5 5.1.1 2.2 1.1 4.4 2.7 5.9.9.9 1.8 1.9 2.7 2.9.5.7 1 1.4 1.4 2.1.7 1.3.9 2.7.5 4.1-.8 3.6-1.4 7.3-2.2 11-.3 1.4-.6 2.8-.9 4.2 0 .4-.2.8-.6 1-1.2.6-2.3 1.2-3.4 1.9-.7.4-1.5.5-2.3.3-7.4-1.2-14.8-2.7-22.1-4.4-4.1-1-8.4-1.5-12.6-2.1-2.9-.4-5.8-.9-8.7-1.3-2.9-.5-5.5-.9-8.3-1.3-1-.2-2 .1-2.7.8l-5.5 4.7-.9.8c-.2-.1-.2-.4-.1-.6.2-.6.4-1.2.6-1.8.8-1.7 1.4-3.5 1.8-5.4.7-2.9 1.8-5.8 3.3-8.3.9-1.5 1.7-2.9 2.6-4.4 3.6-5.6 6.3-11.6 8.1-18 .4-1.4.8-2.8 1.3-4.1.8-2.2 2.1-4.2 3.8-5.9.7-.7 1.4-1.4 2.1-2.1 3.9-3.7 6.5-8.6 7.3-14 .4-2.4 1.1-4.8 1.6-7.3.1-.3.3-.6.7-.6 1.2-.2 2.3-.9 3-2 2.2-3.7 4-7.5 4.1-11.9v-1c.5-1.6-.4-3.2-1.9-3.9zm29.2 66.2c-.6-.6-1.2-1.2-1.7-1.9-.7-.8-1.1-1.8-1.3-2.8-.1-1.2-.3-2.3-.4-3.5-.2-2.7-.7-5.3-1.5-7.9-.2-.4-.3-.9-.4-1.3-.3-1-.1-2 .5-2.8.2-.3.5-.6.7-1 2.2-2.8 3.8-5.9 5-9.2 1.4 4.7 3.1 9.1 3.8 13.7.5 2.8.6 5.7.4 8.6-.2 3.4-1 6.7-1 10.1-.1.6-.2 1.3-.3 1.9-.5 0-.5-.4-.7-.6-1.1-1.1-2.1-2.2-3.1-3.3zm3.1-57.1c-1.9 1.8-3.6 3.8-4.9 6.1-.1.1-.2.2-.3.3-.1 0-.2-.1-.3-.2-1.5-1.8-2.8-3.8-3.9-5.9-.7-1.3-.6-1.4.3-2.4.8-.9 1.8-1.8 2.7-2.5 1.8-1.4 3.6-2.8 5.5-4.1.3-.2.7-.4 1-.6s.7-.1.9.2l.1.1c.8 1.4 1.7 2.8 2.7 4.1.4.6.4.8-.2 1.4zm-2.1-15.1c4.7 2.2 8.5 5 12.7 7 0 .5-.3.6-.6.7-1.5.6-3 1.4-4.4 2.3-1-1.1-1.9-2.4-2.7-3.7-.3-.5-.6-1-.9-1.5-.3-.4-.6-.8-1.1-.7-1 .1-1.3-.6-1.7-1.4-.3-.7-.7-1.5-1.3-2.7zm-16.5-53.5c.4-.7 1-1.4 1.6-1.9.4.5.2.9.1 1.4-.6 2.3-1.5 4.6-2.6 6.7-.1-.2-.2-.4-.2-.6-.3-1-.6-2-.6-3.1 0-1 1.1-1.7 1.7-2.5zm-1.5-6.6c.2-.1.4-.1.5.1 0 .1.1.1.1.2 0 .6 0 1.2-.2 1.8-.3 1-.6 2-1 3s-.4.9-1 .1-1.3-.7-2.2-.7c1-1.8 2.3-3.3 3.8-4.5zm-6.3 9.7c.2-.4.3-.8.5-1.2-.1-.6.4-1 .5-1.5.1-.2.1-.4.2-.5s.2-.1.3-.2c.3.5.2 1-.2 1.4 0 1.6-.1 3.2-.4 4.8 0 .9-.1 1.7-.1 2.6-.1.2-.2.2-.4.1-.1-.3-.1-.6-.3-.8-.8-1.5-.8-3.2-.1-4.7zm2 15.4c.7 2.4 1.3 4.8 1.7 7.2.1.5.2.9.3 1.3.1.3.4.4.6.3.3 0 .5-.2.6-.5.1-.5.1-1 0-1.6-.4-2-.9-4-1.3-5.9-.2-1-.5-1.9-.9-2.8-.8-2.4-1-5-.7-7.5.2-2.5.3-5 .5-7.4-.1-.8.2-1.5.6-2.1.4.5.6 1.1.7 1.7l3.6 16.5c.4 2.1.5 4.3.4 6.5v1.6c0 .3.3.6.7.6s.6-.2.7-.6c.1-.2.1-.4.1-.6.2-2.9 0-5.9-.6-8.8-.3-1.3-.3-2.6 0-3.9.5-2.2 1.3-4.2 1.9-6.4 0-.1.2-.2.4-.3.2.4.3.8.4 1.2s.1.8.2 1.2c.4 4.3.4 8.6-.2 12.9-.1.6-.1 1.2-.1 1.8 0 .3.2.5.5.6s.7 0 .8-.3c.1-.4.2-.9.3-1.3.4-2.3.5-4.7.5-7 .1-2.2.8-4.2 2-6.1.1-.2.2-.3.4-.5s.4-.2.6-.1c.1 0 .1.1.1.2.1.2.1.4.2.6.4 2.8.4 5.6-.1 8.4-.6 3.5-1.5 6.9-2.7 10.2-.2.7-.5 1.4-.7 2-1.2 3.3-1.1 6.9.3 10.1.6 1.5 1.4 2.9 2.3 4.3 1.6 2.3 3.1 4.7 4.7 7s2.9 4.7 4.1 7.1c-.5.6-6.7 5.6-8.1 6.6-.4-.7-.7-1.5-.9-2.3-.3-1-.8-1.9-1.4-2.8-3.4-5.2-7.5-9.9-12.2-14-.6-.5-1.3-1.1-1.9-1.7-4-3.5-7.1-7.9-9.2-12.8-1.3-2.9-2.3-5.8-3.1-8.9-.1-.5-.2-1-.3-1.5 0-.2.2-.3.4-.3.5.1 1 .4 1.3.8 3.3 2.8 6.1 6.1 8.3 9.8.3.5.6 1 .9 1.5.2.3.5.4.9.3.4-.2.6-.6.4-1s-.4-.8-.6-1.2c-.9-1.8-1.4-3.8-1.4-5.9.1-4.9-.7-9.8-2.2-14.5-.7-1.8-1-3.7-1-5.6-.1-.7.1-1.3.4-1.9.3-.5.8-.6 1.1-.1.2.3.4.6.6 1 .3.6.5 1.2.8 1.8 1.5 4.3 3 8.7 4.3 13.1zm-5-29c.4.2.4.5.4.8.1 1.3 0 2.6-.2 3.9-.4 2.1-.6 4.3-.5 6.5-1 0-1.9.3-2.6 1-.7-4.3.8-10.4 2.9-12.2zm-8.1 10.5c.1.2.2.5.2.8.5 2.9.7 5.9.6 8.8v3.9c0 .7.1 1.4.3 2.1.1.3.4.5.8.5s.5-.4.5-.7c0-.1 0-.1 0-.2 0-3.3-.1-6.7-.2-10-.1-1.7-.3-3.4-.6-5.1-.1-1-.5-1.9-1-2.7-.2-.2-.3-.4-.3-.7-.3-3.1.3-6.2 1.6-9 .1-.2.3-.5.4-.7.2-.2.5-.2.7 0 .1 0 .1.1.1.2.1.4.3.7.4 1.1.2 1.2.3 2.3.3 3.5 0 2.4-.1 4.7-.1 7.1-.2 1.8.1 3.7.7 5.4.1.3.2.7.2 1 .1 1.9.5 3.8 1.1 5.6.9 3 1.6 6.1 1.9 9.2.1 2 .1 3.9 0 5.9-1.7-1.6-3.2-3.4-4.9-4.9-.5-.5-1.1-1-1.6-1.4-.6-.5-1.4-.8-2.2-.8-.8.1-1-.3-1.2-.9-.9-2.7-1.2-5.5-.8-8.3.3-2.5.8-5 1.4-7.5.3-1 .7-1.9 1.3-2.8.4-.1.3.3.4.6zm-3.4.3c0-1.2.2-2.4.4-3.6-.2-2 .1-4 .9-5.9.5.1.6.5.6.8 0 1.8.1 3.6.1 5.5 0 .3-.1.5-.2.7-.3.7-.7 1.4-1 2.1-.1-.1-.1-.1-.2-.2.1.1.1.2.2.2-.1.7-.3 1.3-.4 1.9 0 .2 0 .5-.1.7s-.2.5-.5.6c-.2-.9-.2-1.9.2-2.8zm-5.4 5.3c-.1-3.7.2-7.3.8-10.9.4-1.8 1.1-3.5 2-5 .1-.2.4-.5.6-.5s.4.2.5.5c.2.6.3 1.3.4 1.9.1 3.4-.1 6.8-.5 10.2 0 .3-.2.5-.5.5-.9.2-1.7.8-2 1.7-.4.6-.7 1.3-1.1 2.1-.1-.4-.2-.5-.2-.5zm-8.1 46.4c2.5-4 4.9-8 7.3-12.1 1.7-3.1 3.2-6.3 4.5-9.6.2-.4.2-.8.4-1.1.7-1.9.7-3.9-.2-5.7-1.1-2.6-1.9-5.3-2.5-8-.3-1.6-.5-3.2-.5-4.9 0-2 .5-4 1.6-5.8.1-.2.3-.4.5-.6.1-.1.3-.1.4 0 0 0 .1.1.1.1.1.9.2 1.8.2 2.7 0 1.9.1 3.8.2 5.7.2 2.1.7 4.3 1.4 6.3 0 .1 0 .1.1.2 1 1.2 1.1 2.8 1.5 4.2 1.5 5.6 4 11 7.3 15.8.5.7 1 1.5 1.6 2.2-.3.9-.6 1.7-.8 2.6-.6 2.8-1.3 5.6-1.9 8.4-.4 1.8-.6 3.6-1 5.4-.1.6-.3.8-1 .7-2.8-.5-5.7-.6-8.6-.5-3.1 0-6.3.1-9.4-.2-1.6-.2-3.2-.2-4.8 0 1.3-2.1 2.5-4 3.6-5.8zm-1.9 7.3c1.5 0 3 .1 4.5.1 2.4.1 4.8.2 7.3.1 2.4-.1 4.7 0 7.1.2 1.4.1 2.7.4 4 .9 1.2.3 2 1.5 1.8 2.7 0 1.7-.2 3.4-.7 5-.8 2.2-1.7 4.4-2.9 6.4-1.2 2.4-4.9 2.6-6.6 1-.8-.8-1.5-1.7-2.1-2.6s-1.1-1.9-1.7-2.8c-.7-1.2-2-1.9-3.4-2-1.3-.1-2.6-.5-3.7-1.1-1-.6-2.2-.8-3.4-.6-.4 0-.8.1-1.2.2-2.3.6-4.7.8-7 .5-.3 0-.6-.1-.8-.4 1.1-2.1 2.5-4.1 4.2-5.8 1.2-1.2 2.9-1.9 4.6-1.8zm-10.4 1.1c.2-.4.7-.6 1.1-.7 1.2-.2 2.3-.4 3.5-.6.4-.2.5.1.6.4-2.4 2.4-4.2 5.2-5.5 8.2-1.4 3.1-2.4 6.4-3.8 9.4-2.3 5-5.6 9.5-9.8 13.2-3.8 3.2-7.4 6.7-10.8 10.3-3 3.1-6.7 5.5-10.8 6.9-3.2 1.2-6.7 1.9-9.9 3-.3.2-.7 0-.8-.3-.6-.9-1.3-1.6-2.3-2.1.7-.7 1.6-1.2 2.5-1.5 1.5-.7 3-1.6 4.4-2.6 2.5-1.7 4-4.7 3.8-7.8-.1-2.1-.5-4.2-1-6.2-.2-.9-.4-1.8-.7-2.6-.5-1.7-.3-3.5.4-5.2.6-1.6.9-3.3 1.1-5 0-.6 0-1.2 0-1.8.3-.3.7-.5 1.1-.5 4.7-1.5 9.4-3.1 14.1-4.6 2.7-.9 5.4-1.6 8.1-2.4 3.9-1.2 7.6-2.8 11.2-4.6 1.5-.6 2.7-1.6 3.5-2.9zm-8.5-14.2c1-.3 1.9-.8 2.9-1.1s1.5-.1 2 .9c.8 1.5 1.3 3.1 1.5 4.8.1 1.3.3 2.6.6 3.9.2 1 .4 2.1.5 3.1.2 1.1-.3 2.3-1.2 2.9-.6.5-1.3.9-2 1.3-1 .6-2.1 1-3.3 1.6-.7-1.8-1.2-3.7-1.5-5.7-.6-3.1-1-6.3-1-9.5.1-1.7-.1-1.6 1.5-2.2zm-33.3 7.9c5.3-1.2 10.6-2.1 16-3.2 3-.6 5.9-1.1 8.8-1.9 1.4-.4 2.7-.9 4.1-1.3.4-.2.8-.3 1.3-.3.3.3.2.6.2.9 0 5 .7 10.1 2.2 14.9.3 1 .3 1.1-.7 1.4-1.7.7-3.5 1.4-5.3 1.9-5 1.3-9.9 3-14.8 4.6-2.4.8-4.9 1.5-7.3 2.4-.9.3-1.6.4-2.2-.5-.3-.4-.6-.7-1-.9-2.8-2-4.8-4.9-5.9-8.1-.9-2.5-1.9-5-3.1-7.4-.1-.3-.2-.5-.3-.8 2.7-.5 5.4-1.1 8-1.7zm-14 1c.6-.8 1.1-1.8 1.5-2.7.1-.2.1-.4.4-.3.2.1.3.2.4.4 1.1 2 2.1 4.1 3.2 6.1.9 1.8 1.7 3.7 2.3 5.6s1.5 3.6 2.6 5.2c.8 1.3 1.9 2.4 3.1 3.3.6.5 1.2 1 1.8 1.5.8.8 1.2 1.9 1.1 3-.2 1.4-.5 2.8-.9 4.2-1 2.4-1 5-.2 7.5.5 1.5.8 3 1.1 4.6.2 1.2.2 2.3.2 3.5 0 2.2-1 4.3-2.8 5.6-1.1.9-2.2 1.6-3.5 2.2-1.5.6-2.9 1.4-4.3 2.3-.4.3-1 .4-1.5.4-2.7-.1-5.3 0-8 .3-1.6.2-3.1.3-4.9.4.9-1.2 1.6-2.2 2.4-3.2.6-.9 1.1-1.9 1.5-3 .7-2.2 1.5-4.5 2.2-6.7.2-.6.3-1.1.4-1.7.1-1-.4-1.5-1.4-1.4-2.1.3-3.7-.7-5-2.2-1.5-1.6-2.3-3.7-2.3-5.9 0-.5 0-1 .2-1.6.1-.8.8-1.4 1.6-1.3h.2c.5 0 1 .2 1.5.2s1 0 1.6-.1c.5-.1.9-.5.9-1.1 0-.5-.1-1-.3-1.5-.8-3-1.5-5.9-2.3-8.9-.3-1.2-.5-2.4-.6-3.7-.3-1.7.3-3.5 1.7-4.6.8-.7 1.5-1.4 2.3-2.1 1.3-1.3 2.7-2.7 3.8-4.3zm-11.4 45.4c-.2.4-.4.8-.8 1.1-.2.3-.4.6-.7.9-.5.6-1.2.8-1.2.5-.1-.6.4-.7.7-1 .2-.3.5-.6.8-.8.3-.4.5-.8.8-1.2.2-.6.6-1.2 1.1-1.7 0-.3.2-.6.4-.7 0-.4.3-.8.5-1.1l.7-2.4c.1-.2.3-.4.5-.1.1.4.1.9-.1 1.3 0 .6-.2 1.2-.7 1.7 0 .3-.1.6-.4.7-.1.4-.2.8-.5 1.1-.2.7-.6 1.2-1.1 1.7zm-3.2-37.2.1-.6c.1-.8.5-1.5 1.1-2.1.1-.4.4-.8.8-1.1.4-.7 1-1.4 1.6-1.9l.4-.4c.4-.7.9-1.4 1.6-2 .3-.6.7-1.1 1.2-1.6.4-.9.9-1.7 1.5-2.4.2-.4.3-.7.5-1.1.5-1.2 1-2.4 1.4-3.7 0-.1 0-.1 0-.2 0-.2 0-.4.3-.4.1 0 .3.1.3.2v.1c0 .2-.1.5-.2.7-.2 1.3-.7 2.6-1.5 3.6-.1.4-.3.8-.5 1.1-.2.7-.6 1.4-1.1 2 0 .2-.1.4-.3.4-.2.6-.6 1.2-1.2 1.6-.4.7-1 1.4-1.6 1.9-.1.2-.1.4-.4.4v.1c-.4.8-.9 1.4-1.6 2l-.8 1.1c-.4.9-.7 1.7-1.1 2.6.1.5.1 1 0 1.5.2.4.4.9.3 1.4v.4c.3.9.4 1.8.4 2.7 0 .2.1.4.1.7.3.4.4.9.2 1.3 0 .5.1 1 .1 1.4.3.4.3.9.2 1.3 0 .1-.1.2-.3.2s-.3-.1-.3-.3-.1-.7-.1-1.1c-.3-.6-.4-1.3-.3-2 0-.4 0-.7-.1-1.1-.3-.6-.4-1.3-.4-2-.4-.8-.5-1.7-.4-2.6-.3-.4-.3-1.3.1-2.1zm-13-8.1c.5-.5 1-.8 1.6-1 .7-.5 1.4-1 2.2-1.3.5-.5 1.1-.9 1.7-1.1.2-.2.5-.4.8-.4.5-.5 1.2-.9 1.9-1.2 0-.2.2-.3.4-.4.4-.5.8-.8 1.3-1.1.1 0 .3 0 .3.1.1.1.1.2.1.3-.3.5-.7.9-1.3 1.1-.2.2-.4.4-.8.5-.3.4-.7.7-1.2.8-.3.4-.7.7-1.2.8-.4.5-1 .8-1.6 1-.7.5-1.4 1-2.2 1.4-.5.5-1.1.9-1.7 1.1-.4.4-.9.7-1.4.9-.5.5-1 .9-1.7 1.2-.4.5-1 .9-1.6 1.1-1.3 1.1-2.4 2.3-3.5 3.5l-1.5 2.9-.5 1.8c0 .5-.1 1-.3 1.4v3.5c.3.4.4.9.3 1.4.2.8.5 1.6.7 2.4.3.8.7 1.6 1.2 2.4.3.3.5.6.5 1 .4.3.6.7.8 1.2.5.5.9 1 1.2 1.6.3.3.6.6.8 1 .1.2.3.4 0 .6s-.5 0-.6-.2l-.7-.9c-.5-.4-.9-1-1.1-1.6-.3-.3-.6-.7-.7-1.2-.4-.8-.8-1.6-1.2-2.3-.3-.3-.4-.7-.5-1.1-.5-.7-.8-1.5-.8-2.3-.3-.2-.4-.6-.3-.9-.1-.3-.2-.6-.1-.9-.5-1.3-.5-2.7 0-4 0-1.2.3-2.3.9-3.3.2-1 .8-2 1.5-2.8 1-1.4 2.2-2.5 3.6-3.4.4-.5 1-.9 1.6-1.2.5-.5 1-.8 1.6-1.1.5-.8 1-1.1 1.5-1.3zm4.7 13.8c-.1-.3 0-.6.3-.6.2 0 .3.3.2.6v5.7c.3.9.5 1.8.5 2.8.2.3.3.6.2.9v.4c.3.8.4 1.5.5 2.3.3.4.5.9.4 1.4.2.2.4.5.4.9.2.2.4.5.4.8 0 .2-.1.4-.2.4s-.2-.1-.3-.1c-.2-.1-.3-.4-.3-.6-.1-.1-.1-.2 0-.3-.5-.7-.8-1.6-.8-2.4-.4-.4-.3-1-.4-1.5-.3-.6-.5-1.2-.4-1.9-.3-.4-.4-.9-.3-1.4-.1-.4-.2-.9-.1-1.3-.5-1.8-.5-3.7 0-5.6-.1-.1-.1-.3-.1-.5zm.5 23.4c.5.5.8 1.1 1 1.7.1.1.1.2.1.3.8 1.1 1.3 2.3 1.5 3.6.2.4.2.8.1 1.3-.2.4-.3.2-.5-.1l-1.5-4.4c-.1-.1-.1-.2-.1-.3-.4-.5-.8-1.1-1-1.7-.4-.3-.7-.7-.8-1.2l-.4-.4-.8-.7c-.2-.1-.4-.2-.7-.4-.2-.1-.2-.3-.2-.5.2-.3.4-.2.6 0s.4.3.5.5c.2.1.3.2.3.4.2 0 .4.2.4.4.2 0 .4.2.4.4.7.3 1 .7 1.1 1.1zm-7.9-71.6c.9 1.1 1.1 2.6.5 3.8-.4.9-.6 1.9-.9 2.8-.4 1.3-.4 2.6-.2 3.9.4 1.6.8 3.3 1.1 5 .3 1.4.5 2.8.5 4.3 0 2.2-.5 4.4-1.6 6.4-.3.6-.8 1.1-1.4 1.4-.8.3-1.7.7-2.5 1.1-2.9 1.3-5.7 2.9-8.3 4.8-.4.3-.9.5-1.4.3-1.7-.4-3.4-.6-5-.9-4.2-.8-8.5-.9-12.8-.4-.3 0-.6.2-1-.1.1-.6.3-1.2.5-1.8.6-1.8.9-3.7.9-5.6 0-1-.3-1.9-.6-2.9-.2-.6-.8-1-1.4-.9h-.4c-1.9.3-3.1-.6-4-2.2s-1.2-3.5-.7-5.3c.3-1.8 2-2.9 3.8-2.7.9 0 1.6.6 1.9 1.5.1.4.3.9.5 1.3.2.3.7.4 1 .2s.5-.5.6-.7c.6-1.1.7-2.4.4-3.6-1-4-3.2-7.5-6.3-10.2-1.7-1.4-1.7-1.5-1.3-3.5.8-5.4 3.6-10.4 7.7-14 .1-.1.3-.2.4-.1 0 0 .1 0 .1.1-.4.8-.8 1.5-1.1 2.3-.2.4-.3.7-.3 1.1 0 .5.4.9.9.9h.2c.5-.2 1-.4 1.4-.7 4.1-2.3 8.6-3.8 13.3-4.5 2.1-.3 4.2-.2 6.3.3l-.2.5c-.3.8-.2 1.1.5 1.4.2.1.5.2.7.3 2.2 1 4.2 2.5 5.6 4.5.3.4.5.9.4 1.4-.1 1.2-.2 2.3-.5 3.5-.3 1.3-.1 2.7.6 3.8.7 1.3 1.3 2.4 2.1 3.2zm-43.1-2.4c-.5-1.7-.4-3.6.2-5.2-.1-.5.1-1.1.4-1.5-.1-.1-.1-.3 0-.4 0-.2 0-.4.1-.5s.3-.2.5-.1c.1 0 .1.2.2.3.1.3-.1.6-.3.8 0 .1 0 .2-.1.3.1.6-.3 1-.4 1.6l-.3 3.3c.2.3.3.6.3 1l.1.7c0 .2.2.3.2.5l.1.4.8 1.5 1.6 2c.5.4.9 1 1.1 1.6.1.1.1.2.1.3.5.6.9 1.3 1 2.1.1.3.1.6.2.9s-.2.8-.4.7c-.2-.2-.3-.4-.2-.7l-1-2.5c-.1-.1-.1-.2-.1-.3-.5-.5-.9-1-1.2-1.6-.6-.6-1.1-1.2-1.5-2-.3-.3-.6-.7-.7-1.2-.1-.1-.2-.2-.1-.3l-.2-.4-.2-.6c-.2-.3-.2-.5-.2-.7zm29.9-32.4c1.3-.1 2.6 0 3.8.4l.7.1c.7 0 1.4.3 2 .7.1 0 .2 0 .3.1.7.2 1.3.5 1.7 1.1 1.1.7 2 1.6 2.7 2.7.5.4.9 1 1.1 1.7.1.1.1.2.1.3.5.6.7 1.3.7 2.1 0 .4.1.9.1 1.3 0 .1-.1.2-.2.3-.1 0-.1 0-.1 0-.1 0-.1-.2-.1-.3-.2-1-.5-1.9-.7-2.8-.1-.1-.1-.2-.1-.3-.5-.5-.8-1-1.1-1.7l-2.8-2.8c-.6-.2-1.2-.6-1.6-1-.1 0-.2 0-.3-.1-.7-.1-1.4-.3-2-.7l-.7-.1c-1.2-.1-2.3-.2-3.5-.3-.1 0-.2-.1-.3-.2 0-.4.2-.5.3-.5zm-3.7 10.6c.5-.3 1.1-.3 1.6 0l1.9.2c.8 0 1.6.2 2.4.5l.7.2c.6 0 1.2.3 1.7.7.4 0 .8.2 1.1.5.6.2 1.1.6 1.4 1.2.1.1.1.2 0 .3s-.2.1-.3.1c-.5-.4-1-.8-1.5-1.2l-1.2-.5c-.6-.1-1.1-.3-1.6-.6-.6 0-1.2-.2-1.7-.5h-.4c-.9.1-1.8 0-2.7-.4-.4.1-.8.1-1.2 0-.8.3-1.7.5-2.6.3l-1.5.1c-.6.4-1.4.5-2.1.3-.9-.4-.9-.4-.7-1.5 0-.2.1-.4.3-.5.1-.2.2-.4.4-.2.4.1.3.2.1.4v.4c-.1.4 0 .8.5.8h.6l.9-.1c.1-.1.1-.1.2 0 1.3-.4 2.5-.5 3.7-.5zm-20.5.5c.1-.5.4-.9.8-1.2.1-.3.2-.5.5-.7.6-1.1 1.6-2.1 2.7-2.8.4-.5 1-.9 1.6-1.1.3-.3.7-.5 1.1-.5.4-.4 1-.7 1.6-.7.6-.4 1.3-.7 2.1-.7 1.6-.4 3.4-.4 5 0h.5c.2-.1.4 0 .5.2.3.1.6.1.6.5s0 .4-.3.3l-1.1-.4c-.4.1-.9 0-1.2-.3h-3.2c-.8.3-1.6.6-2.4.7-.6.4-1.3.7-2 .8-.2.3-.4.4-.8.5-.4.5-1 .9-1.6 1.2l-2.8 2.7-.5.8c-.1.4-.4.9-.7 1.2-.2.5-.3 1-.5 1.4-.1.2-.3.5-.5.3-.3-.1-.2-.5-.1-.7.1-.6.4-1.1.7-1.5zm-10.5 10.6c-.1 1-.5 2-1.1 2.8 0 .1 0 .2-.1.3-.1.6-.4 1.1-.8 1.6-.1.4-.3.7-.6.9-.1.2-.1.4-.2.5-1.6 2.6-2.3 5.7-1.8 8.8 0 .5.4 1 0 1.5-.2.3-.7-.4-.8-1.5-.5-3.5.4-7 2.4-9.8.1-.5.4-.9.7-1.2 0-.2.2-.5.4-.6 0-.3.1-.5.4-.7 0-.1 0-.2.1-.3.3-1.1.6-2.2 1.1-3.2 0-.1 0-.2.1-.3.1-1 .3-1.9.7-2.8l.1-.8c-.1-.5 0-.9.3-1.3l.1-.7c.2-1.9.9-3.6 2-5.1.3-.8.9-1.5 1.6-2 .1-.2.2-.3.4-.4 0-.2.2-.4.4-.4 0-.2.2-.4.4-.4l.4-.4c.4-.5.9-.9 1.5-1.2.3-.2.6-.4 1-.6.8-.4 1.4-.5 1.3-.2-.1.6-.6.5-1 .8-.3.2-.6.3-.9.4-.5.5-1 .9-1.6 1.2-.1.2-.2.3-.4.3-.2.3-.4.6-.8.8l-.4.4c-.4.8-.9 1.5-1.5 2.1-.8 1.6-1.5 3.4-1.9 5.1l-.1.7c.1.5 0 .9-.3 1.3.1.1 0 .2-.1.3 0 1.1-.3 2.2-.7 3.2zm7 36.4c-.2-.1-.3-.4-.2-.6-.1-.1-.1-.2-.1-.3-.2-.2-.4-.5-.4-.9l-2-4.2c-.5-.6-.9-1.3-1.2-2-.9-1.1-1.6-2.4-2-3.8-.3-.3-.4-.8-.4-1.2 0-.2 0-.4.3-.4s.3.2.4.4.1.5.2.7l2.2 4.2c.4.5.8 1 1 1.6.9 1.3 1.6 2.7 2.1 4.2.2.1.3.3.3.6.1.1.1.2.1.3l.2.5c.4.9.7 1.8.9 2.8.1.2.1.5.2.8.2 1.1.2 1.7-.2 1.5-.5-.3-.4-.9-.4-1.4-.6-1-.9-1.9-1-2.8zm-114.8 82.4c2.9.8 5.7 2 8.3 3.5 1.7 1 3.3 2.2 4.8 3.5l7.2 6.1c.4.3.6.7.8 1.1.5 1.3 1.1 2.6 1.8 3.9-.3.5-.6.2-.9.1-2.7-1.1-5.2-2.4-7.7-3.9-1.9-1.2-3.9-2.4-5.8-3.6-1.6-1-3.3-1.9-5-2.7-.6-.2-1-.6-1.3-1.1-1-2.3-1.7-4.6-2.2-6.9zm38.2 33.4s12.1.3 18.1 1.5c3.2.6 3 .5 1 3-.6.8-1.3 1.5-2 2.2-.4.7-1.3.9-2 .5-1-.5-2.2-.9-3.2-1.4-3.8-2.1-7.8-3.9-11.9-5.4l-.5-.2zm8.3 5.5c2.1 1.2 4.3 2.3 6.5 3.2 1.3.5 1.5.9 1.2 2.3-.3 1.7-.7 3.3-1.3 4.9-.9 2.1-1.7 4.2-2.6 6.4-1.2 3-2.1 6.2-3.1 9.3-.7 2.3-1.6 4.6-2.8 6.7-2 3.4-3.8 6.9-5.6 10.4-.6 1.1-1.2 2.2-2 3.1-.8 1.1-1.9 2-3.2 2.5-.9.4-1.2.3-1.4-.6-.3-1.1-.5-2.2-.8-3.2-.2-.8-.5-1.6-.7-2.4-.8-2.3-2.2-4.2-4.2-5.5-1-.7-2.1-1.3-3.2-1.9-5.4-2.8-10.9-5.5-16.3-8.2-4.4-2-9-3.5-13.8-4.4-5.1-1.1-10.1-2.5-15.2-4-.9-.3-1.7-.6-2.5-1-1.2-.6-2-1.8-1.9-3.2 0-1.3.3-2.6.8-3.8 1.1-2.7 2.3-5.3 3.7-7.8 5.4-9.8 10.3-19.7 15.4-29.6.4-.8.8-1.5 1.3-2.2.6-.9 1.7-1.5 2.8-1.6 1-.1 2 0 2.9.3 1.2.4 2.5.9 3.6 1.5 2 1 3.9 2.2 5.8 3.4.5.7-.1 1.2-.3 1.8-1 2.5-2.3 5-3.4 7.4 1.2-2.6 2.5-5.3 3.7-7.9.2-.5.6-.9 1.2-.7 3.2 2.2 6.7 4.1 10.3 5.6.3.1.6.3.9.4 3.9 1.2 5 4.5 5.9 7.9.3 1.3-.1 2.6-.4 3.9-.3 1.8-.7 3.6-1.2 5.4-.2.8-.3 1.5-.3 2.3 0 .4 0 .8.1 1.2.4 1.5 1.6 1.7 2.6.6.6-.7 1.1-1.5 1.6-2.3.8-1.5 1.8-2.9 2.9-4.2.5-.7 1.4-.9 2.1-.5 3.8 1.2 7.4 2.7 10.9 4.5zm-10.7-16c.1 1.5.1 3 .1 4.5s-.5 3-1.5 4.2c-.4.5-.8 1-1.3 1.5-1.5 1.5-2.7 3.2-3.7 5-.3.7-.7 1.3-1.2 1.7-.3-.8-.3-1.6 0-2.4.5-1.8.9-3.7 1.2-5.6.1-.7.2-1.4.3-2.1.2-1.6 0-3.3-.7-4.8-.8-1.8-1.8-3.4-3-5-.7-1-1.4-2-2-3.1-2.3-3.8-2.7-8.4-1.2-12.5.8-2.4 2-4.7 3.5-6.7 1.1 2.4 2 4.5 3 6.6.3.7.6 1.3 1 1.9.4 1 1.4 1.7 2.5 1.8.8.1.9.2 1 .9.7 4.7 1.5 9.4 2 14.1zm.2-17.4c-.7.3-1.3.6-2 .8-1.4.4-1.9.2-2.6-1l-.2-.3c-1-2.3-2-4.5-3-6.8-.5-1.2-.9-2.5-1-3.8-.1-1 .1-1.9.6-2.8.3-.6.7-1.1 1.1-1.6 1-1.3 1.1-1.3 1.8.1 1.9 3.6 3.6 7.2 5.1 11 .4 1.1.7 2.3.7 3.4.2.3-.1.8-.5 1zm38.2 62.1c-4.1-2.4-7.6-5.8-10.2-9.8-1.1-1.6-1.5-3.6-1.2-5.5.5-2.8 1.5-5.4 3-7.8.4-.7.8-1.4 1.3-2 4.4-6.3 7.9-13.2 10.3-20.4 2.2-6.5 4-13.2 5.2-19.9.8-4.1 1.3-8.3 2-12.4.7-4.7 1.9-9.3 3.6-13.8.7-1.8 1.3-3.6 1.8-5.4.3-1 .4-2.1.2-3.1 0-.6-.5-1-1.1-.9-.1 0-.3 0-.4.1-.4.1-.7.3-1 .6-1.8 1.1-3.6 2.1-5.5 3-2.9 1.4-5.9 2.9-8.8 4.3-4.6 2.1-8.8 5-12.4 8.5-2.1 2-4.1 4.2-6 6.5-1.9 2.4-3.9 4.5-6.2 6.5-2.9 2.6-6 5.1-9.2 7.3-.4.3-.8.6-1.3.7-.6-1.1-.3-2.6-1.2-3.6-.4-.3-.3-.7-.2-1 .7-.4 1.1-1.1 1.3-1.9 1.8-6.6 5.8-11.6 11.2-15.7.3-.2.5-.4.7-.7-1.3.4-4.3 2.7-5.7 4.3-3.2 3.8-5.8 7.9-6.8 12.8-.1.3-.2.6-.4.9-.1.2-.3.2-.4 0-.3-.2-.2-.6-.4-.8-1.4-3.8-3.2-7.4-5.4-10.7.2-.5.5-1 .9-1.4.4-.5.8-1 1.2-1.6 4.7-6.9 10.3-13.1 15.9-19.2 2.5-2.7 5.1-5.5 7.6-8.2 1.9-2.1 3.9-4.1 6.1-5.9 3.6-2.8 7.7-5 12.1-6.4.2-.1.5-.2.7-.2 4.5-1.2 8.8-3.1 12.6-5.7 1.2-.8 2.5-1.5 3.7-2.2 1.9-1.1 3.8-2.1 5.7-3.1 3.3-1.6 7-2 10.5-1.1l1.1.2c.2.4-.1.6-.4.8-5.9 5.4-10.9 11.8-14.7 18.8-.3.5-.5 1-.7 1.6-.1.3 0 .7.3.8.3.2.7.1.9-.2s.4-.6.5-.9c3.1-5.7 6.9-11 11.4-15.7 1.2-1.2 2.4-2.4 3.7-3.5 4-3.4 9-5.5 14.2-6.1 3.4-.4 6.9-.4 10.4 0 1.5.2 3 .5 4.5.8.5.1 1.2-.1 1.5.3.3.6-.5 1-.8 1.4-1.9 2.4-3 5.3-3 8.3-.1 2.6.3 5.1.9 7.6 1.4 5.1 3.1 10 6.3 14.3 1.5 2.1 3.2 4 5.3 5.5 1.2.9 2.4 1.5 3.8 2 3.7 1.2 6.7 3.8 8.4 7.2 1.1 2.2 2.1 4.4 2.9 6.7.2.5 0 .7-.5.9s-.9.2-1.3.4c-3.9 1.1-6.7 4.5-7 8.5-.1.7.2 1.6-.3 2.1-.6.3-1.2.6-1.8.8-3 1.2-5.8 2.7-8.5 4.4-2.9 1.8-5.9 3.5-8.8 5.2-2.3 1.3-4.4 2.8-6.5 4.4-2.3 1.8-4.8 3.4-7.2 5-3.9 2.6-7.3 5.9-10 9.6-.9 1.3-1.8 2.6-2.7 3.9-5.6 8.4-11.6 16.5-17.3 24.8-2.4 3.5-4.9 7-7.1 10.6-1 1.7-1.9 3.4-2.8 5.1-.2.4-.6.7-1.1.7-2.8.1-5.3-.3-7.4-1.4zm-.4 58.1c-.3-.8-.5-1.6-.6-2.5-.3-2.9-.4-5.7-.2-8.6.1-2 .1-3.9.1-5.9 0-.3 0-.6 0-1 0-.5.4-.7.8-.4 1.3.8 2.8 1.4 4.3 1.9 3.8 1.4 7.7 2.4 11.8 2.8 2.2.1 4.4 0 6.6-.3 2-.2 3.9-.7 5.6-1.5l.5-.2c.3-.1.6 0 .8.2v.1c.3.7.5 1.4.6 2.1.4 2.5.5 5 .4 7.4 0 .6-.2 1.3-.3 1.9-.1 1.4-1.2 2.6-2.6 2.8-1.9.4-3.7.8-5.6 1.2-2.2.5-4.4.7-6.6.6-3 0-6 .2-9 .7-1.2.1-2.3.3-3.5.5-1.3.3-2.7-.5-3.1-1.8zm25.4 1.9c0-.9 0-.9.9-1.2.7-.2 1.4-.3 2.1-.5 1.9-.4 3.3-1.9 3.6-3.7.2-1.1.4-2.2.4-3.3 0-2.5-.2-5.1-.7-7.6-.1-1.1-.6-2.2-1.5-2.9-.3-.2-.3-.6-.2-.9.2-.9.3-1.8.6-2.7.2-1 .5-1.9.9-2.8 1.5-3.9 3-7.8 4.5-11.7 1.2-2.9 2.7-5.7 4.3-8.4 1.7-2.9 4-5.4 6.7-7.4 2.3-1.8 4.8-3.4 7.4-4.9.5-.3.9-.1.9.5.1 3.3.1 6.5.1 9.8.2 4.3 0 8.5-.5 12.7-.5 3-1.1 5.9-1.7 8.9-.8 4-1.6 7.9-2.4 11.9-.2 1.2-.4 2.3-.5 3.5 0 .7-.4 1.4-1 1.8-2 1.7-4 3.4-5.9 5.2l-14.3 12.5c-.2.2-.5.4-.8.6s-.6.2-.8-.2c-1.2-2.9-1.9-6-2.1-9.2zm0 11.9c-1.1.8-2.1 1.8-3.1 2.7l-4 3.5c-.8.1-.6-.4-.5-.8 1.2-5.2 2.7-10.2 4.1-15.3.2-.6.4-1.3.5-1.9s.6-.7 1-.7c.2-.1.4.1.4.2.1.2.1.4.1.6.1 3.2.7 6.4 1.9 9.4 0 .1 0 .1.1.2.5.7.3 1.7-.5 2.1zm-49.6 32.7 1.2-9.5c0-.3.1-.5.1-.8.1-.5.5-.6.9-.6s.6.3.6.6v1.8c-.2 2.8-.4 5.4-.5 8 0 .9-.6 1.7-1.4 2-.2.1-.3.2-.5.2s-.3-.1-.4-.2c0 0 0 0 0-.1-.1-.4-.1-.9 0-1.4zm-10.7 22.9c-2.4 1.9-5.7 2.3-8.5 1.1-.2-.1-.5-.2-.6-.4-.3-.2-.3-.6-.1-.9s.4-.6.7-.9c.6-.4 1.3-.8 2-1.2 1.2-.5 2.4-1 3.6-1.5 1.7-.6 3.3-1.6 4.6-2.9.4-.1.6 0 .5.4-.4 1.6-.8 3.1-1.2 4.7-.2.8-.6 1.3-1 1.6zm5.6 7.2c-.4.8 0 1.6-.3 2.4-.1.7-.1 1.4-.3 2.1-.5 2.6-.8 5.1-1 7.8-.3 3.9-.9 7.8-1.5 11.6 0 .5-.3.9-.7 1.2-.3-.6-.3-1.2-.2-1.9.1-4.2.3-8.4.4-12.5-.1-2.1.3-4.3 1.1-6.2.5-1.2.7-2.7 1.3-3.9.2-.4.4-.7.5-1 .1-.2.2-.3.3-.5 0-.1 0-.2.1-.3.1-.2.2-.2.3 0 .1.5.1.9 0 1.2zm37.7-25.6c-.3 1.3-.7 2.6-1.2 4-.9 2.9-2.8 5.4-5.4 7-2.3 1.4-4.6 2.8-6.9 4.2-1.8 1.1-3.3 2.6-4.5 4.3-.6 1-1.2 2.1-1.5 3.2-.2.8-.3 1.7-.2 2.5.1 1.8 1.5 3.2 3.2 3.3.7 0 1.3.2 1.9.5.7.4 1 1.2.6 1.9-.1.2-.3.4-.5.6s-.4.3-.7.4c-1.2.4-2.5.7-3.8 1-2.9.7-4.6-1.4-4.7-4-.1-2 0-4.1.3-6.1 0-.2 0-.4 0-.6-.1-.3-.3-.5-.5-.5-.3 0-.5.1-.6.4-.1.4-.3.7-.3 1.1-.2 1.8-.3 3.7-.3 5.5 0 1-.1 2.1-.2 3.1s-.5 1.3-1.6 1.3c-.4 0-.8 0-1.2-.1-2.3-.8-2.3-.1-2.2-2.8 0-1.4.1-2.7.4-4.1.1-.6.2-1.2.2-1.7 0-.3-.2-.7-.5-.7-.3-.1-.7.1-.8.4-.2.7-.4 1.4-.5 2.1-.3 1.8-.4 3.6-.3 5.5 0 .5-.2.7-.7.7-2.4.4-3.5-1.1-3.8-3-.1-.6-.1-1.2-.1-1.8.1-2.3.3-4.6.5-6.9 0-.5 0-1 .1-1.6 0-.5-.3-1-.8-1.3-.3-.2-.7-.1-.9.2-.1.3-.3.6-.3.9-.4 1.7-1 3.4-1.9 4.9-.8 1.5-1.4 3.1-1.8 4.8-.6 2.7-1.9 5.2-3.8 7.2-.4.1-.6-.1-.5-.5.1-.5.2-1 .4-1.5 1.4-3.9 2.4-7.9 3.2-11.9.9-4.4 2.1-8.8 3.5-13.1.6-1.9 1.4-3.7 2.3-5.4 1.3-2.4 3.3-4.3 5.7-5.4 2.1-1 4.3-1.9 6.5-2.7 2-.8 3.9-1.5 5.8-2.3.7-.3 1.4-.6 2.1-1 3.8-1.8 6.5-5.3 7.3-9.4.6-2.8 1.1-5.6 1.6-8.5.8-4.3 1.1-8.7 1.6-13.1.2-2.1.4-4.2.5-6.3.1-.6.1-1.3.2-2 0-.4.3-.7.7-.7.4 0 .8-.1 1.2-.1 3.9-.7 7.9-1 11.9-.9 1.1 0 2.2 0 3.3-.1.3.5.1.8 0 1.1-3.1 9.5-5.3 19.3-7.8 29-1.2 6.4-2.6 12.7-4.2 19zm41.8-14.3c-.4 2.4-.8 4.8-1.2 7.1-.1.5-.3.7-.8.6-1.6-.2-3.1-.3-4.7-.5l-14.4-1.7c-3.7-.5-7.4-.9-11.1-1.3-1.6-.2-3.1-.3-4.7-.5-.5-.1-.7-.3-.6-.8.5-2.3 1.1-4.6 1.6-6.8h2.6c4.8.2 9.5.5 14.3.7 5.7.3 11.4.6 17 .9.7 0 1.6-.2 2.1.3s0 1.3-.1 2zm7.5-23.9c-1.2 3-2.2 6-3.4 9-1.2 3.2-2.3 6.5-3.1 9.9 0 .2-.1.4-.1.6-.1.4-.3.7-.8.7h-.8l-8-.4-22.8-1.2c-1.3 0-2.7-.2-4-.4.6-2.4 1.3-4.8 1.8-7.1.2-.6.6-1 1.1-1.4l9.6-8.4c7-6.1 14-12.2 21-18.3.5-.5 1.2-1 1.8-1.4.3 1.9.5 3.6.8 5.4.1 1 .2 2.1.3 3.1.2 2 1.1 3.9 2.5 5.4 1.1 1.2 2.3 2.3 3.7 3.3.6.3.6.6.4 1.2zm75.8-4.2c-3.6 1.9-7.6 3.2-11.7 3.9-2.4.5-4.8.8-7.2 1.2-4.5.8-9.1 1.2-13.7 1.2-2.9 0-5.9 0-8.8 0v.2h-9c-4.5.1-9-.3-13.5-.9-2.7-.4-5.3-1-7.8-1.9-3-1.1-5.6-3-7.5-5.5-1.1-1.4-1.7-3.1-1.7-4.9-.2-2.2-.5-4.3-.8-6.4-.2-1.8-.2-3.5.1-5.3.7-4.8 1.7-9.5 2.8-14.2 1-4 1.6-8.1 2-12.2.2-3.3.2-6.5.2-9.8s-.1-6.7-.2-10c-.1-4.6-.4-9.2-.5-13.7-.1-4.2-.1-8.4-.2-12.6 0-2.4-.1-4.7-.1-7.1 0-.3 0-.7-.1-1 0-.3-.3-.6-.7-.6-.3 0-.6.2-.7.6-.1.5-.1 1-.1 1.6 0 2.4 0 4.7.1 7.1.1 6.4.2 12.7.4 19 0 1 .1 2.1.2 3.1.3 1-.3 2-1.2 2.4-1.2.6-2.3 1.3-3.4 2-2.8 1.7-5.4 3.7-7.8 6-1.5 1.5-2.8 3.2-3.8 5-2.2 3.6-4 7.4-5.5 11.3-1 2.6-2 5.3-3 7.9-.9 2.3-1.6 4.7-2 7.2-.1.8-.6 1.5-1.4 1.7-1.2.5-2.4.8-3.6 1-1.4.2-2.7.3-4.1.4-2.1.1-4.2 0-6.2-.5-3.5-.7-6.9-1.7-10.1-3-.3-.1-.6-.2-.9-.4-.9-.5-1-.6-.9-1.7.4-3.6 1.1-7.1 1.8-10.6.7-3.8 1.3-7.6 2.3-11.3.8-3 1.6-5.9 2.5-8.9 1-2.9 2.2-5.7 3.8-8.4 2.2-3.9 4.7-7.5 7.2-11.2 6.5-9.4 13.3-18.5 19.5-28 2.1-3.2 4.6-6.1 7.5-8.5 1.1-.9 2.2-1.8 3.4-2.6 2.9-2 5.8-4 8.6-6.1 3.2-2.3 6.5-4.4 10-6.3 1.4-.8 2.8-1.7 4.2-2.5 3.6-2.2 7.4-4 11.4-5.3 2-.6 4-.9 6-1.2 2.1-.4 4.2-1 6.3-1.6.2 0 .4-.1.5-.3s.2-.3.2-.5-.2-.4-.3-.4c-.6-.1-1.2 0-1.7.2-1.7.5-3.4.9-5.2 1.2-1.8.2-3.6.6-5.4 1-.5.1-.7-.1-.7-.6 0-3.2 1.9-6 4.8-7.4 1.3-.7 2.7-1 4.2-1.1 2.8-.1 5.6-.5 8.4-.9 1.5-.2 3-.4 4.5-.5 3.6-.3 7.2-.7 10.8-.7 1-.1 2.1.1 3.1.5 1.1.6 2 1.2 2 2.6 0 .6.6.9 1.1.5 1.4-.7 2.9-1.2 4.4-1.6 1.8-.5 3.5-1 5.3-1.5 3.4-1.1 6.7-2.7 9.6-4.8 1.5-1.1 2.8-2.3 4-3.7 1.8-2.1 3.8-4 5.8-5.9 1.1-.9 2.2-1.9 3.3-2.8 3.7-3.2 6.9-7 9.4-11.2 1.3-2.3 2.4-4.7 3.2-7.1.5-1.5 1.1-2.9 1.7-4.4.4-.9.4-.8 1.3-.8 2.6.3 5.2.1 7.8-.5 1.4-.4 2.9-.3 4.2.4 1.1.6 2.3.9 3.6 1 1.1 0 2.2.7 2.7 1.7l.9 1.5c.4.7.8 1.4 1.2 2 1 1.7 2.6 2.9 4.4 3.3.4.1.8.3.6.8-.9 3.6-1.8 7.2-2.7 10.8-.8 2.8-2.3 5.3-4.3 7.4-1.1 1.2-2.2 2.3-3.3 3.4-2.1 2-3.7 4.5-4.6 7.2-.6 1.7-1.2 3.5-1.7 5.2-1.5 5.1-3.7 10-6.5 14.5-1 1.6-2 3.2-3 4.8-2.1 3.3-3.6 7-4.4 10.9-.3 1.4-.8 2.8-1.3 4.1-1.7 4.2-3.6 8.3-5.8 12.2-.4.8-.9 1.6-1.2 2.5-2.4 5.7-5.2 11.3-7.5 17.1-1.7 4.3-3 8.8-3.7 13.4-.9 5.2-1.5 10.5-2.1 15.8-.7 7.5-1.2 15-1.2 22.5 0 .8 0 1.6-.1 2.4-.3 3.8.1 7.6 1.2 11.2.2.6.3 1.1.5 1.7.6 1.8.4 3.7-.4 5.3-.9 2-2.1 3.9-3.6 5.6-1.4 1.6-3.3 2.8-5.4 3.4-.2-.1-.5 0-.7 0zm82.5 58.7v.4c-.1 1.3-.3 2.6-.6 3.9-1.3.1-2.6 0-3.8-.3-3.4-.4-6.9-.9-10.3-1.4l-13-1.7-10.5-1.4-13.2-1.8c-4.3-.6-8.7-1.1-13-1.7l-12-1.6c-.1-1.9-.2-3.6-.3-5.3 0-.4.2-.6.6-.5l3.5.5 21 3c6.1.9 12.2 1.7 18.3 2.5 7 1 14 2 21 3l11.7 1.6c.6 0 .6 0 .6.8zm6.7-38.1c-1.9 2.5-3.3 5.4-3.9 8.5-.7 3.2-1.2 6.4-1.4 9.7-.2 5.4-.6 10.9-1.1 16.3 0 .3 0 .5-.1.8 0 .3-.3.5-.5.5-.7 0-1.4-.1-2.1-.2l-19.2-2.7c-5.1-.7-10.2-1.5-15.3-2.2l-15.4-2.1c-5.1-.7-10.2-1.5-15.4-2.2l-6.8-.9c-.6-.1-1.2-.2-1.7-.3-.4 0-.8-.3-.8-.8 0 0 0 0 0-.1-.2-3.7-.5-7.3-.8-11s-.6-7.2-1-10.8c-.3-3.1-.7-6.1-1-9.2s-.7-5.9-1-8.8c-.1-1-.2-2.1-.3-3.1-.1-.5.2-1.1.7-1.2 3.5-1.4 5.9-4 7.7-7.2.5-.8.9-1.6 1.3-2.4.9-2 1.1-4.2.5-6.3-.5-1.6-.9-3.2-1.2-4.8-.4-1.8-.6-3.6-.6-5.5.1-7.1.2-14.3.8-21.4.6-8 1.6-16 3.1-23.9.5-2.8 1.3-5.5 2.3-8.1 1.1-2.9 2.3-5.9 3.6-8.7s2.7-6 4-9 2.9-5.7 4.4-8.6c.3-.5.6-.9.9-1.3 2.7-2.9 5.6-5.7 8.7-8.2.6-.6 1.5-.8 2.3-.6 1.9.3 3.9.5 5.8.9 5.6 1 11.2 1.8 16.9 2.6 3.7.5 7.3 1.5 11 2.2 5.2 1.1 10.4 2.2 15.6 3 .3.1.7.1.8.5-4.7 2.6-8.9 6-12.5 10-3.4 4.1-6 8.8-7.8 13.9-.9-.7-1.1-1.8-1.8-2.4-.1-.6.4-.8.6-1.1.7-.8 1.3-1.7 1.8-2.6.8-1.4 1.5-2.9 2.2-4.4s.6-3.3-.4-4.7c-.5-.8-1.1-1.5-1.7-2.2-1.4-1.6-3.4-2.5-5.6-2.5-1.7-.1-3.4 0-5.1.3-1.6.3-3.1.3-4.7.2-1.5-.2-3 .5-3.9 1.8-1 1.3-1.8 2.7-2.4 4.3s-1.1 3.2-1.4 4.9c-.4 2.8-.2 5.6.6 8.3.6 2.2 1.3 4.4 1.9 6.6.8 3.2 1.2 6.5 1 9.8-.5.2-1 .4-1.4.7-.6.3-1.3.7-1.8 1.1-1.3.9-2 2.4-1.9 3.9.1 1.6.3 3.1.6 4.7.3 2 .5 4 .5 6.1 0 3.6 0 7.2-.2 10.8-.1 1.1-.2 2.2-.4 3.3-.4 3.2-.5 6.5-.8 9.8-.2 2.4-.5 4.7-.7 7-.4 4.2-.8 8.5-.2 12.7.3 2.7 1.5 5.2 3.4 7.1 1 1 2 1.9 3 2.8 1.3 1.2 2.4 2.6 3.4 4.1.4.7.9 1.3 1.4 1.9.9.9 2.2 1.2 3.4.8 2-.7 3.8-1.9 5.2-3.4 2.4-2.7 4.5-5.6 6.2-8.8 2.8-5.1 5.8-10.1 8.6-15.2 2.5-4.6 4.9-9.3 7.3-13.9.6-1.1 1-2.2 1.6-3.4 1.1 1.5 1.9 3.2 2.5 5 1 2.5 1.8 5 2.8 7.5.6 1.6 1.3 3.1 2.1 4.6s1.2 3.2 1.1 4.9c-.1 2.4-.5 4.8-1.1 7.2-1.3 4.6-3.1 8.9-5.5 13-.7 1.3-1.4 2.5-2.1 3.8-.6 1.1-.9 2.3-.9 3.6.1 2.1.6 3 2.6 4 .1.2-.1.5-.3.7zm-22.4-84.7c-.9-.7-1.9-1.2-2.9-1.7 1.1-1.6 2.3-3.2 3.6-4.7.5.1.3.5.3.6-.1 1.8-.2 3.6-.3 5.4-.1.4-.4.6-.7.4zm.2 3c-.4 2.8-1 5.7-1.8 8.4 0 .1-.2.2-.3.4-1.9-.8-4-.9-6-.5-3.4.4-6.8 1.5-9.8 3.2-.4.3-.7.1-.7-.5-.1-2.7-.4-5.5-.9-8.2 0-.3-.1-.6-.1-1-.3-1.7.6-3.3 2.1-4 3.5-1.9 7.6-2.6 11.6-1.9 2.1.3 4 1.3 5.5 2.8.3.3.5.8.4 1.3zm-.4-10.8c-1.2 1.6-2.4 3.3-3.5 4.9-.2.3-.5.6-1 .5-2.8-.7-5.7-.6-8.5.1-.2.1-.5.1-1 .2-.1-1.5-.1-2.9-.2-4.2-.4-3.1-1-6.2-2-9.2-.6-1.8-1.1-3.6-1.5-5.5-.2-1.1-.3-2.2-.2-3.3.2-3.3 1.3-6.4 3-9.2.3-.5.7-1 1-1.4.4-.5 1.1-.8 1.7-.7 2.7.2 5.3-.3 8-.5.3 0 .7-.1 1-.1 3.4-.1 5.5 1 7.6 4.5.4.7.5 1.5.2 2.3-.9 2.5-2.1 4.8-3.7 6.9-.1.2-.4.2-.6.1-.1-.1-.1-.1-.2-.2-.5-.9-.6-2-.4-3 .2-.7.3-1.4.2-2.1 0-.9-.6-1.6-1.4-2-.4-.2-.8-.2-1.1-.1-1.7.3-2.9 1.8-2.6 3.6.1.5.2.9.5 1.3.5.7 1 1.4 1.6 2 .9 1 1.7 2 2.6 3 .7.8 1.4 1.8 1.9 2.7.8 1.2 1 2.6.6 3.9-.2.5-.3 1-.3 1.5-.1 1.4-.7 2.8-1.7 4zm-1.4-19.5c-.1.9-.3 1.9-.5 3-.6-.6-1.2-1.2-1.5-2-.3-.6-.1-1.3.4-1.8.3-.3.7-.6 1.2-.4.3.3.5.7.4 1.2zm95.5 97.4c-1.7 2.4-3.8 4.3-6.3 5.8-3.1 1.8-6.4 3.2-9.9 4.1-.2.1-.5.2-.7.3-1.1.5-1.4-.2-1.5-1-.2-1.2.1-2.5-.5-3.6-.4 1.7.5 3.3.4 5-1.5.4-2.9.7-4.4.9-3 .5-6 1.1-9.1 1.6-1 .2-2.1.3-3.1.4-3.4.3-6.8.7-10.2 1-3.7.1-7.4 0-11-.4-2.5-.2-5.1-.5-7.6-.6-2.1-.2-4.2-.6-6.2-1-1.4-.2-1.8-.8-1.9-2.3-.1-1 .1-2.1.6-3 .7-1.3 1.5-2.6 2.2-3.9.2-.4.6-.5 1-.4 1 .3 2.1.4 3.1.3h2.2c1.8-.1 3.5.3 5.1 1.1.4.2.8.4 1.3.5 1.6.7 3.2 1.1 4.9 1.2 3.6.2 7.2 0 10.8-.5 4.1-.6 8.2-1.2 12.2-1.9 6.8-1.1 13.4-3 19.8-5.6 2.2-.9 4.4-2 6.4-3.3.8-.5 1.6-1.1 2.4-1.7 1.7 2.4 1.7 4.6 0 7zm1.5-110c-.1 2.1-.5 4.2-.8 6.2-.5 3.6-1 7.3-1.4 10.9-.6 4.5-1.5 8.9-2.7 13.3-.9 3.6-1.8 7.2-2.9 10.8-1.6 5.2-2.2 10.7-1.9 16.1.2 3.9.4 7.8 1 11.7.9 6.5 2.2 12.9 3.8 19.2 1 3.9 1.9 7.8 2.8 11.6.2.5 0 1.1-.4 1.4-.8.8-1.7 1.6-2.7 2.2-2.6 1.5-5.3 2.8-8.2 3.8-6.9 2.5-14.1 4.3-21.5 5.4-3.4.5-6.7 1-10.1 1.4-2.9.4-5.7.4-8.6.2-1.4-.1-2.8-.5-4.2-1.1-.3-.1-.6-.3-.9-.4-2.1-1-4.5-1.5-6.9-1.3-1.2.1-2.4.1-3.5 0-.5-.1-.7-.3-.5-.8.6-1.4 1.2-2.8 1.9-4.1.9-1.9 1.7-3.8 2.2-5.9.9-3 1.4-6.1 1.4-9.3 0-1.4-.4-2.8-1-4-1.8-3.4-3.3-7-4.5-10.6-.8-2.5-2-4.9-3.3-7.1-.2-.3-.3-.6-.5-.9s-.2-.8 0-1.1c.5-.7 1-1.4 1.4-2.1.2-.3.2-.7-.1-.9 0 0 0 0-.1-.1-.3-.2-.8-.1-1 .2-.1.1-.2.3-.4.5-.7.9-1.3 1.9-1.7 3.1-.8 2.2-1.7 4.3-2.7 6.3l-.2.4c-3.4 6-6.3 12.2-9.8 18.1-1.4 2.2-2.6 4.6-3.8 6.9-1.9 3.7-4.3 7.2-7 10.4-1.2 1.4-2.7 2.5-4.4 3.1-.9.6-2.2.3-2.7-.7-.3-.3-.5-.6-.7-1-1.2-2-2.8-3.8-4.5-5.4-.4-.4-.9-.8-1.3-1.2-2.5-2.1-3.9-5.2-4-8.5-.1-2.6-.1-5.2.1-7.9.2-2.1.5-4.2.6-6.2.3-3.1.5-6.3.7-9.4.1-1.6.2-3.3.5-4.9.4-2.9.5-5.9.5-8.8 0-.3 0-.6 0-1 0-2.4 0-2.5 2.2-3.5 3.4-1.7 7.2-2.6 11-2.6.5 0 1 0 1.6.1 1.4.4 1.8.4 1.4 2.1-1.7 7.6-3.9 15.1-6 22.6-.2.6-.4 1.2-.6 1.9-.4 1.2-1.1 2.3-2 3.1-.4.4-.7.8-1 1.2-.2.3-.2.8.1 1s.7.2.9-.1c1.4-1.2 2.6-2.7 3.2-4.4.5-1.5 1-3 1.4-4.5 1.6-5.9 3.4-11.7 4.7-17.6.9-4.1 2.1-8.1 2.7-12.2.5-3 .9-6 1-9 0-4.7.7-9.3 1.9-13.8 2.3-7.7 6.9-14.4 13.2-19.3 2.3-1.8 4.7-3.3 7.3-4.6 1.9-1 3.8-2.1 5.7-3.3v.9c-.4 3.3 0 6.6 1.2 9.6 1.7 4.3 2.2 8.9 1.5 13.5-.3 2.4-.5 4.8-.5 7.2 0 2.2.3 4.3.9 6.4 1.2 4.9 4.7 9 9.4 10.9 3.2 1.4 6.7 2 10.1 1.6 2.4-.2 4.8-.8 7.1-1.5 1.7-.6 3.4-.9 5.1-1.4 2.9-.7 5.7-2 8.2-3.7 2.7-1.9 5.5-3.6 7.9-5.8 3.6-3.2 6.2-7.4 7.1-12.1.7-3.5.9-7 .6-10.5-.4-5.1-1.3-10.1-2.5-15.1-.5-1.8-1-3.7-1.5-5.5-.8-2.7-1.3-5.5-1.5-8.3-.3-3.3-.4-6.5-.2-9.8 0-.2.1-.5.1-.9.8.6 1.6 1.2 2.2 2 2.4 2.5 4.6 5.2 6.5 8.1 1.6 2.5 2.6 5.3 3 8.2.6 3.7.7 7.1.6 10.6zm41 3.4c-.3 3.7-.7 7.4-1.2 11.1-.2 1.2-.2 2.4 0 3.5-1.5 0-2.9-.2-4.4-.6-9.4-1.6-18.7-3.3-28-4.9-2.1-.4-4.2-.7-6.4-1.1-1-.2-1-.2-.8-1.1.4-2.9.9-5.8 1.2-8.8.4-3 .4-6 0-9-.2-1.3-.3-2.6-.5-3.9-.4-2.7-1.4-5.2-2.8-7.5-2.3-3.7-5-7.1-8.2-10-2.1-2-2-1.5-1.5-4.4.6-3.9 1.6-7.7 2-11.6.5-4.4.6-8.9.4-13.3-.2-3.9-.8-7.8-1.7-11.6-.4-1.4-.8-2.8-1.3-4.1-.1-.1-.1-.4.1-.5.5.2.9.5 1.3.8 3.5 2.4 7.8 3.3 12 2.7 5.1-.7 5.2-.6 9.9 1.3 1.4.6 2.7 1.3 4.1 1.9.6.2 1 .7 1.1 1.3.3 1.1.5 2.3.6 3.5.5 5.5.6 11.1.3 16.6v2.6c0 2.5 1 4.9 2.7 6.8 1.3 1.4 2.7 2.7 4.2 3.8 2.7 2 5.2 4.2 7.6 6.5 1.2 1.2 2.4 2.4 3.5 3.7 2.7 2.9 4.4 6.6 5 10.5 1.1 5 1.3 10.4.8 15.8zm14.9 17.7c-4.5-.8-9-1.6-13.5-2.3-.5 0-1-.5-1-1 .3-.3.7-.4 1.1-.4 2.4-.4 4.9-.6 7.4-.5 1.2.1 2.4 0 3.5-.4.8-.2 1.7-.1 2.5.3 2 .7 2 .8 1.8 2.8 0 .5-.1 1-.3 1.5-.5.1-1 .1-1.5 0zm13.5 3.8c-.6 3.1-1.3 6.3-2 9.4-.8 3.6-1.6 7.1-2.3 10.7-.4 1.9-.6 3.7-.7 5.6-.2 2.9 1.1 5.6 3.5 7.2 3.9 2.8 8.4 4.7 13.1 5.4 2.4.4 4.8.5 7.2 1.1 1 .2 1.9.5 2.7 1.1.2.2.3.5.2.7 0 0-.1.1-.1.1-.5.4-1.1.7-1.8.8-1.2.2-2.5.3-3.7.4-.5 0-.9 0-1.3-.1s-.8-.2-1.2-.2c-.4-.1-.8.1-1 .4-.2.4.1.8.7 1 2 .7 4 1.2 6.1 1.4 2.4.3 4.8 1 7 1.9.8.3 1.5.7 2.1 1.4-.8.5-1.8.7-2.8.5-2.2-.1-4.3-.6-6.3-1.4-2.1-.8-4.3-1.6-6.4-2.4l-.5-.2c-.5-.1-.9 0-1 .4s.1.9.5 1c.5.3 1.1.5 1.6.7 2.1.8 4.3 1.6 6.4 2.4 1.4.5 2.8 1.2 4 2 0 .4-.2.4-.5.4-2.3 0-4.6-.2-6.8-.6-1.7-.4-3.4-1.1-4.9-2-2.3-1.3-4.7-2.6-7-3.9-.4-.2-.8-.5-1.2-.1s-.1.8.5 1.2c2.2 1.3 4.5 2.6 6.8 3.9 1.3.8 2.7 1.6 4 2.5.9.6 1.7 1.4 2.4 2.3.4.6.1 1.1-.5 1.1-.7.1-1.3 0-1.9-.3-1.8-.6-3.5-1.3-5.2-2.2-3.4-1.7-7-3.1-10.6-4.3-1-.4-2.2-.6-3.3-.5-.4 0-.7.4-.7.8v.2c.2.6.5 1.1.9 1.5 1.2 1.5 2.5 2.9 3.9 4.2 1.5 1.5 2.9 3.2 4.1 5 .5.7.9 1.6 1 2.5.1.3-.1.7-.5.7-.1 0-.3 0-.4 0-.8-.3-1.5-.7-2.2-1.3-.8-.7-1.5-1.5-2.2-2.2-2.7-2.8-5.4-5.7-8.1-8.5-2-2-3.7-4.2-5.3-6.5-.4-.5-.7-1.1-1.1-1.6-1.8-2.9-2.5-6.4-2-9.8s1-6.9 1.7-10.3c.8-4.3 1.7-8.6 2.6-12.9 1.2-5.7 2-11.5 2.5-17.3.3-.1.7 0 1 .2 1.8.8 3.7 1.4 5.6 1.6.3 0 .7.1 1 .2 1.1.2 2.1.5 3.1 1-.4 1.5-.5 2.6-.7 3.7zm9.7-13.8c-.5 2.4-1.1 4.8-1.8 7.2-.5 1.7-.9 1.9-2.6 2-1.6 0-3.1-.1-4.7-.5-1.8-.4-3.6-.8-5.4-1.2s-3.5-1-5.1-1.9-3.4-1.6-5.2-2c-.1-2.3-.1-4.4-.2-6.5 0-1.7 0-3.4-.2-5.1-.1-1.2.1-2.5.4-3.7.1-.7.6-1.3 1.3-1.7 1-.5 2-1 2.9-1.4.5.3.4.8.6 1.1.8 2.6 2.8 4.7 5.3 5.7 3.5 1.5 7.5 1.6 11.1.2 1.1-.5 2.1-1.1 3.1-1.8.5 1.2.9 2.5 1 3.9-.1 1.9-.2 3.8-.5 5.7zm-.2-12.9c-1.1 2.2-3.2 3.9-5.6 4.4-2.8.7-5.8.4-8.4-.7-3.5-1.5-5.4-5.3-4.4-9 .2-.7.4-1.4.6-2.1.9-2.7 1.8-5.5 2.7-8.2 1.3-3.9 2.2-7.9 2.7-12 .5-3.2.9-6.5 1.4-9.7.8-5.8.9-11.8.3-17.6 0-.1 0-.3 0-.4-.1-.5-.4-.8-.8-.7s-.4.4-.5.8 0 .9 0 1.4c0 2.1.1 4.2.1 6.3 0 4.4-.3 8.8-1 13.1-.5 3.8-1.2 7.6-1.8 11.4-.4 2.4-1 4.7-1.8 7-1 2.9-2 5.8-2.9 8.8-.3 1-.6 2-.7 3.1-.1.6-.5 1.1-1 1.3-1.4.6-2.8 1.4-4.1 2.2-.5-1.4-.8-2.9-.9-4.3-.3-2.1-.4-4.3-.8-6.4-.4-2.2-1.1-4.3-2.3-6.2-1.1-1.8-2.3-3.6-3.5-5.4-1.7-2.4-2.9-5.1-3.7-8-.2-.7-.3-1.4-.4-2.1-.2-2.7-.1-5.4.4-8 1.2-6.3 1.6-12.6 1.2-19-.1-1.8-.3-3.5-.5-5.3-.1-.6-.2-1.2-.4-1.7-.1-.3-.4-.4-.6-.3s-.3.2-.4.4c-.1.3-.1.7 0 1 .2 2.6.4 5.2.6 7.8 0 .5.1 1 .1 1.6 0 4.6-.4 9.2-1.2 13.7-.4 2.3-.7 4.7-.7 7-.1 3.8.8 7.6 2.7 10.9.8 1.4 1.7 2.8 2.6 4.2.8 1.2 1.6 2.4 2.4 3.6 1.5 2.5 2.4 5.2 2.7 8.1.1 2.1.4 4.2.8 6.2.8 4.3 1.2 8.7 1.1 13.1 0 2 .1 3.9.1 5.9 0 .9-.2 1-1 1.1-.2 0-.4 0-.6 0-2.9-.2-5.9 0-8.8.5-.2 0-.4 0-.6 0s-.5-.1-.5-.4v-.1c0-.3 0-.7 0-1 .3-2.8.8-5.6 1-8.4.5-4.2.6-8.4.3-12.6-.2-2.5-.5-4.9-.9-7.4-.8-3.7-2.5-7.2-5-10.1-3.1-3.4-6.4-6.5-10.1-9.4-.6-.5-1.3-.9-1.9-1.4-.9-.8-1.8-1.5-2.7-2.3-2.3-1.9-3.5-4.7-3.3-7.7.1-2.1.1-4.2.1-6.3.1-5.2-.2-10.3-1-15.4.5-.3 1 0 1.6-.1.8 0 1.6-.1 2.3-.1.4 0 .7-.4.7-.7v-.1c-.1-.4-.5-.7-.9-.6-.3 0-.5.1-.8.1-1.1.1-2.2 0-3.3-.5s-2.3-1-3.4-1.5c-1.9-.9-3.7-1.6-5.7-2.3-1.7-.6-3.6-.8-5.4-.5-1.5.2-3 .3-4.5.4-2.4.1-4.7-.4-6.8-1.5-1.7-.9-3.4-2-5-3.1-.6-.5-1.1-1.2-1.3-1.9 0-.2 0-.4.1-.6s.2-.3.4-.5c2.5-2.5 3.8-5.6 4.7-8.9.6-2 .9-4.1.9-6.2 0-1 .1-2.1.2-3.1 0-.5.3-.6.8-.6 1.9.3 3.7.8 5.6 1.3.9.3 1.9.5 2.9.7 2.1.5 4.4.2 6.3-.7 2.8-1.2 5.8-2.1 8.8-2.7 3.1-.7 6.3-.3 9.2 1.1.5.3 1 .6 1.1 1.2.4 3.2 1.8 6 2.8 9 .3.9.5 1.8.9 2.6.2.5.1 1-.2 1.4-.4.5-.7 1.1-1 1.6-1.8 3.2-2.5 7-1.8 10.6.5 2.4 1.3 4.8 2.4 7 .1.3.3.6.5.9.2.4.7.5 1.1.2.1-.1.2-.2.3-.4.3-.6.5-1.2.7-1.9.7-2.4 1.7-4.7 3-6.8.6-1 1.4-1.9 2.3-2.6.3-.3.7-.4 1.1-.2.1.1.2.1.4.1 2.2.7 4.6.5 6.7-.6.8-.4.9-.4 1.4.4 1 1.6 1.4 3.4 1.2 5.3 0 .6-.1 1.3-.1 1.9 0 .5.4.9.9.9.1 0 .3 0 .4-.1.2-.1.5-.2.7-.3 1.7-.9 3.2-2 4.6-3.3 2.9-2.6 4.7-6.3 4.9-10.2.2-1.7.2-3.4 0-5.1-.1-.5.1-1 .4-1.4.9-1.1 1.7-2.3 2.5-3.6.2-.3.5-.3.8-.1 3.6 2.2 7.3 4.1 11.2 5.7 4.2 1.5 8.1 3.8 11.4 6.8 2.5 2.2 4.5 5 5.6 8.2.2.7.5 1.5.8 2.2.4.9.6 1.9.6 2.9.1 2.7.1 5.4.1 8.1-.1 2.9-.4 5.9-.9 8.8-.8 5.4-1.8 10.7-2.9 16-1.3 5.9-2.9 11.7-4.9 17.4-1 2.8-1.9 5.6-2.8 8.4-.9 2.3-1.7 4.3-2.7 6.3z"/><path d="m687.7 382.8c0-.9 0-1.7 0-2.5 0-.4.1-.6.5-.6 1.6 0 3.1.1 4.7.3.5.1.6.3.5.9-.3 1.8-.7 3.6-1 5.4-.4 2.2-.8 4.5-1.2 6.8 0 .1-.1.2-.2.3-.2.1-.4 0-.5-.2-1.9-3.3-3.2-6.6-2.8-10.4z" fill="#383e6b"/><path d="m820.9 153.6v-.8c-.2-1.5.8-2.8 2.3-3.1 1.2-.4 2.3-1 3.4-1.6.3 1.1.6 2.1.9 3.1.1.4 0 .8-.4 1l-.2.1c-1.8 1-3.9 1.5-6 1.3z" fill="#383e6b"/><path d="m730.9 374.9c-.6-.5-.9-1.1-.9-1.9.1-1.1-.1-2.2-.5-3.3-.2-.4.2-.7.5-.9.4-.1.8 0 1 .4s.3.9.3 1.3c.1 1 .1 2.1.2 3.1 0 .8 0 .8 1 .9-.4.6-1 .5-1.6.4z" fill="#191919"/><path d="m392.6 238.1c-.6 0-.7.4-.9.9-.8 1.8-1.6 3.5-2.4 5.3-.5 1-.9 2-1.4 3-.1.3-.2.7-.6.6s-.2-.6 0-.8c.3-.7.6-1.3.9-2l3.4-7.7c.2.2.7.3 1 .7z" fill="#7d7d7d"/><path d="m418.2 223.2.4.1v-.1l.1 1.2c-.7-.3-.6-.8-.5-1.2z" fill="#070707"/><path d="m417.8 222.4c.3.1.5.5.4.8-.4-.1-.4-.5-.4-.8z" fill="#070707"/><path d="m437.9 259c-6-1.2-18.1-1.5-18.1-1.5l-.5.1.5.2c4.1 1.5 8.1 3.3 11.9 5.4 1 .6 2.2.9 3.2 1.4.7.4 1.6.2 2-.5.6-.7 1.3-1.4 2-2.2 2-2.4 2.2-2.3-1-2.9z" fill="#383e6b"/><path d="m585.9 396.5c0 .7-.6 1.2-1.1.8-.4-.3-.9-.4-1.4-.2-2.2.8-4.4 1.6-6.6 2.4-3 1-6.1 1.7-9.2 2-2.4.2-4.7.1-7-.3-2.9-.3-5.7-.9-8.4-1.8-.3-.1-.5-.2-.7-.3s-.4-.4-.3-.6c0-.3.3-.5.6-.5.5 0 1 .1 1.5.2 3.5.9 7.2 1.5 10.8 1.8 2.7.1 5.5-.2 8.2-.8 3.7-.9 7.3-2.1 10.8-3.5.4-.2.8-.4 1.3-.5.9-.5 1.6 0 1.5 1.3z" fill="#050303"/><path d="m524.8 396c-4.3-.2-8.5-1.4-12.3-3.3-.7-.4-1.5-.8-2.3-1-.4-.1-.6-.5-.5-.9.1-.4.6-.6.9-.5.6.2 1.2.4 1.8.7 3.2 1.7 6.7 2.9 10.3 3.4 1.5.3 3.1.3 4.7.1.2 0 .4-.1.6-.1.3 0 .5.2.5.5.1.3-.1.5-.3.6s-.3.2-.5.2c-.9.3-1.9.4-2.9.3z" fill="#070505"/><path d="m592.2 280.6c.1-.4.2-1.1.4-1.9 1.4-6 2.8-12 4.8-17.8 1.4-4.4 3.5-8.6 6.1-12.5.7-1 1.4-2.1 2-3.1.2-.3.4-.5.6-.8.2-.2.5-.2.7-.1.3.1.4.4.3.6-.1.3-.2.6-.4.9-.5.8-1 1.7-1.5 2.5-3.6 5.5-6.3 11.6-7.9 18-1.2 4.5-2.4 9.1-3.4 13.7-.1.4-.2.8-.3 1.1s-.4.5-.8.5c-.4-.1-.5-.4-.5-.8z" fill="#040200"/><path d="m523.4 285.1c-.3-.1-.6-.2-.6-.5 0-.4 0-.8.1-1.2.9-4.4 2.6-8.5 4.8-12.4 2.1-3.6 4.6-7 7.4-10.1 2-2.3 4-4.7 6-7 .3-.3.5-.6 1-.4.4.3.5.8.3 1.2-.3.4-.6.9-.9 1.2-2 2.4-4.1 4.8-6.1 7.1-4.4 4.9-7.7 10.6-10 16.8-.5 1.2-.8 2.5-1.1 3.8-.1.4-.2.7-.4 1.1-.1.3-.4.4-.5.4z" fill="#040200"/><path d="m480.5 302.8c.1-.7.2-1.3.5-1.9.8-1.9 1.8-3.6 3.2-5.1 1.3-1.6 2.8-3.1 4.4-4.4 3.2-2.7 6.8-5.1 10.6-7 .7-.4 1.4-.7 2.2-.8.3 0 .7 0 .9.2s.2.6 0 .9c-.1.1-.2.2-.3.2-2.7 1-5.3 2.3-7.6 4-2.8 1.8-5.4 3.9-7.7 6.3-1 1.1-2 2.2-2.9 3.5-1 1.3-1.7 2.8-2 4.4-.1.5-.4.8-.8.7s-.5-.4-.5-.8c0 0 0-.1 0-.2z" fill="#050300"/><path d="m627.2 197.3c-.2 1.9-.5 3.7-1 5.5-.6 2.4-1.2 4.8-1.9 7.2-1 3.4-2.2 6.8-3.3 10.2-.3.7-.6 1.5-.9 2.1-.1.4-.5.5-.9.4 0 0-.1 0-.1-.1-.3-.2-.4-.5-.3-.9.1-.3.2-.6.3-.9 2.4-6.4 4.4-13 6-19.6.3-1.5.5-3 .8-4.4.1-.4.1-.9.7-1 .4 0 .6.5.6 1.5z" fill="#050300"/><path d="m644.3 180.2c0 .2-.1.4-.2.6-.8 2.1-1.7 4.1-2.8 6-1.1 2-2.3 4-3.5 5.9-1.6 2.5-3.1 5.1-4.4 7.9-.2.5-.5.9-.7 1.4-.1.4-.5.5-.9.4h-.1c-.3-.2-.4-.6-.2-1 .1-.2.2-.5.3-.7 1.2-2.4 2.4-4.9 3.9-7.2 1.7-2.6 3.3-5.3 4.8-8.1.9-1.5 1.7-3.1 2.3-4.8.1-.3.3-.6.5-.9.2-.2.5-.3.7-.2.1.1.3.4.3.7z" fill="#060300"/><path d="m573.8 356.4c-.4 0-.7-.3-.7-.6.1-.5.3-1 .6-1.4.8-1.5 1.7-3 2.5-4.5 1.5-2.8 3-5.5 4.2-8.4.6-1.2 1-2.4 1.3-3.7.1-.3.1-.5.3-.7.1-.1.3-.2.5-.3.3 0 .5.1.6.4.1.4.1.8 0 1.1-.6 2-1.3 4-2.2 5.9-1.8 3.8-3.8 7.5-5.9 11.1-.2.4-.4.7-.7 1-.2 0-.3.1-.5.1z" fill="#070400"/><path d="m524.9 360.9c-.1.2-.2.4-.3.5-.2.1-.4.1-.5 0-.4-.3-.8-.7-1-1.1-1.9-2.9-3.8-5.8-5.4-8.9-.9-1.6-1.8-3.2-2.6-4.8-.2-.4-.4-.8-.5-1.3-.1-.3.1-.5.3-.6s.5-.1.7.2.5.6.6 1c1 1.8 2.1 3.6 3.1 5.5 1.5 2.7 3.1 5.3 4.8 7.9.3.3.6.9.8 1.6z" fill="#070400"/><path d="m632 186c.2-2.8.3-5.6 1.5-8.2.6-1.1.6-2.4.1-3.6-.1-.4-.2-.8-.2-1.1 0-.2.1-.4.3-.4.2-.1.5-.1.7.1.9 1.2 1.2 2.8.9 4.3-.1.4-.3.9-.4 1.3-1.3 3.4-1.7 7.2-1.1 10.8v.6c-.1.3-.3.5-.5.5s-.4-.1-.5-.2c-.2-.2-.4-.5-.5-.8-.3-1.2-.4-2.2-.3-3.3z" fill="#070400"/><path d="m502.8 277c.1-.4.2-.7.6-.7.3-.1.7.2.8.5s.2.6.2.9l1.6 6.2c.1.2.1.5.1.8s-.2.5-.4.6c-.3.1-.5 0-.7-.2-.1-.2-.2-.3-.3-.5-.8-2.3-1.4-4.6-1.8-7-.1-.2-.1-.4-.1-.6z" fill="#0c0700"/><path d="m720.2 351c-.4 0-.7-.3-.7-.7.1-.3.2-.6.5-.8.8-.8 1.6-1.7 2.5-2.5 3.6-3.3 7-6.8 10.3-10.5.2-.4.6-.7 1-.9.2-.1.5-.1.7.2.1.2.1.4.1.5-.1.2-.2.5-.4.7-1.7 2.1-3.5 4.1-5.3 6l-7.6 7.4c-.4.2-.7.6-1.1.6z" fill="#070606"/><path d="m738.9 341.4c.1.3 0 .7-.2.9-.8 1.2-1.7 2.3-2.7 3.3-1.3 1.3-2.8 2.4-4.2 3.5-1.2.9-2.4 1.8-3.6 2.7-.3.2-.6.4-1 .6-.3.1-.7-.1-.8-.4-.1-.2-.1-.5.1-.7.3-.3.6-.5.9-.7 2-1.5 4-3 5.9-4.5 1.6-1.2 3.1-2.7 4.2-4.4.2-.3.4-.5.7-.7.2-.2.7 0 .7.4z" fill="#0a0808"/><path d="m462.9 260.7c.1-5.5 1-10.9 2.9-16.1 1.4-4.1 3.2-8.1 4.8-12.2.1-.6.5-1.1.9-1.5.2-.1.4-.1.5-.1.3.1.4.3.4.6-.1.3-.2.6-.3.9-1.7 4.4-3.4 8.8-5 13.2-1.5 4.2-2.4 8.6-2.7 13-.1 3.1.1 6.2.7 9.2.2 1.3.6 2.5.9 3.8.1.2.1.4.1.6 0 .3-.1.5-.4.6-.3.2-.7 0-.8-.2-.2-.3-.4-.7-.5-1.1-.3-1.2-.5-2.4-.8-3.6-.5-2.4-.8-4.7-.7-7.1z" fill="#040404"/><path d="m418.6 223.2c-.2-.3-.2-.7 0-1 1.2-5.4 4-10.3 8-14.1 1.4-1.3 2.8-2.5 4.4-3.6.3-.2.5-.4.9-.5.3-.1.5 0 .7.2.2.3.2.6 0 .9-.2.2-.4.3-.6.5-1 .8-2 1.5-2.9 2.3-4.3 3.6-7.3 8.5-8.8 13.9-.1.4-.2.9-.5 1.3-.4.5-.8.5-1.2.1z" fill="#070707"/><path d="m526.8 220.4c-.6-.1-.8-.4-.8-.7 0-.4.1-.8.3-1.1.7-1.6 1.4-3.1 2.1-4.6 1.5-3.1 3.1-6.2 4.5-9.4.5-1.1 1-2.1 1.6-3.1.2-.3.4-.5.6-.8.2-.2.5-.2.7-.1.2.2.3.4.3.7 0 .2-.1.4-.2.5-2.4 4.7-4.3 9.7-6.8 14.3-.6 1.2-1.1 2.5-1.6 3.8-.2.3-.4.5-.7.5z" fill="#060505"/><path d="m528.8 194c.2 0 .4.1.5.1.3.1.4.3.4.6s-.2.5-.4.6c-.6.1-1.3.2-1.9.3-4.3.8-8.3 2.5-11.7 5.1-.4.3-.8.6-1.3.9-.3.2-.7 0-.9-.2s-.2-.6 0-.9c.1-.1.2-.2.3-.3 4.3-3.2 9-5.6 14.4-6.1z" fill="#090606"/><path d="m530.9 200.1c0 .1 0 .4-.1.5-.3.3-.6.5-.9.7-3.5 2.4-6.5 5.3-8.9 8.7-.3.4-.5.7-.9 1-.2.2-.5.2-.7.1-.3-.1-.5-.5-.4-.8 0-.2.1-.4.2-.5 2.7-3.9 6.1-7.3 10.2-9.8.3-.2.6-.3.9-.4.3 0 .6.1.6.5z" fill="#090707"/><path d="m451.9 193.2-2.5.2c-.3.1-.7.1-1 .1s-.7-.1-.8-.5.2-.8.6-.8c2.2-.5 4.4-.6 6.6-.3 1.2.2 2.4.4 3.6.8.7.1 1.4.5 1.8 1.1.2.2.2.5 0 .7-.1.2-.4.4-.6.3-.1 0-.3-.1-.4-.1-2.2-1-4.7-1.5-7.3-1.5z" fill="#0d0909"/><path d="m762.3 165.4c-.1.3-.3.6-.6.7-.8.4-1.5.7-2.3 1.1-3.5 1.5-6.8 3.3-9.9 5.6-.8.4-1.4 1-1.8 1.8-.2.4-.7.5-1.1.3-.4-.2-.5-.8-.2-1.1 0 0 0 0 0-.1.3-.4.7-.8 1.1-1.1 2.3-1.9 4.8-3.6 7.5-4.9 1.9-1 3.9-1.8 5.9-2.7.3-.2.6-.2.9-.2.4 0 .6.3.5.6z" fill="#070400"/><path d="m747.3 169c-.4-.1-.6-.4-.6-.7.1-.3.2-.6.5-.8.7-.6 1.4-1.2 2.2-1.7 2.5-1.7 5.1-3.4 7.7-5 .4-.3.8-.5 1.2-.6.3 0 .5.1.6.4.2.2.1.5-.1.7s-.5.4-.7.6l-5.1 3.3c-1.8 1.2-3.8 2.1-5.3 3.7 0 .1-.3.1-.4.1z" fill="#080500"/><path d="m824.1 240.9c0 .3-.1.6-.4.7s-.7 0-.8-.3c-.4-.6-.6-1.3-.7-2-.5-2.3-1-4.6-1.5-6.9-.2-1-.4-1.9-.7-2.8-.1-.2-.1-.4-.1-.6 0-.3.1-.5.4-.6.2-.1.5-.1.7.1.3.3.5.8.6 1.2.4 1.8.9 3.6 1.3 5.3.4 1.8.8 3.6 1.2 5.3-.1.3-.1.5 0 .6z" fill="#0b0600"/><path d="m820.2 247.1c0 .4-.1.6-.3.7-.3.1-.7 0-.9-.2-.2-.3-.4-.7-.5-1.1-.2-1.1-.5-2.3-.7-3.4-.3-1.5-.6-2.9-1.1-4.4-.1-.3 0-.7.3-.8.4-.2.8 0 1 .3v.1c.1.2.1.4.2.6.2.7.5 1.4.6 2.1.5 1.9.9 3.8 1.3 5.7.1.1.1.3.1.4z" fill="#0c0700"/><path d="m800.4 192.6c-.1.7-.6 1.3-1.4 1.4-.6-.1-1.1-.6-1.1-1.2 0-.7.5-1.3 1.1-1.4.7 0 1.3.5 1.4 1.2z" fill="#1b0e00"/><path d="m799.3 214.6c-.6-.1-1.1-.7-1.1-1.3 0-.5.4-1 .9-1.1.7.1 1.3.6 1.4 1.4-.1.6-.6 1-1.2 1z" fill="#1b1100"/><path d="m805.9 233.1c.7.1 1.2.8 1.2 1.5-.1.5-.7.8-1.2.7-.1 0-.1 0-.2-.1-.3-.2-.6-.5-.8-.9-.2-.5.1-1.1.6-1.3.2.1.3.1.4.1z" fill="#1f1100"/><path d="m799.8 202c.5.1 1 .5 1.1 1 .2.4 0 .9-.4 1.2-.2.1-.5.2-.7.2-.5 0-.9-.4-.9-.9-.2-.5 0-1.1.4-1.4.2 0 .3-.1.5-.1z" fill="#150a00"/><path d="m801.4 225.2c-.6-.1-1.1-.6-1-1.3v-.1c0-.4.4-.8.8-.9.7 0 1.2.5 1.2 1.2 0 .6-.5 1.1-1 1.1z" fill="#1e0f00"/><path d="m659.1 211.8c3 .1 5.8.6 8.7 1 1.1.2 2.2.3 3.3.5.3 0 .5.1.7.3.1.1.2.3.2.5s-.2.3-.3.4c-.6.1-1.3.1-1.9 0-1.7-.2-3.4-.5-5-.8-2.5-.5-5-.7-7.6-.7-.2 0-.4 0-.5-.1-.2-.1-.3-.3-.3-.5s.1-.4.3-.4c.7-.2 1.5-.3 2.4-.2z" fill="#0d0808"/><path d="m663.5 195.3c.3 0 .6.2.8.5 1.6 1.8 3.3 3.5 4.9 5.3 1.1 1.1 2.2 2.2 3.3 3.4.3.3.5.6.8.9.2.3.2.6-.1.9-.2.2-.5.2-.7 0-.1-.1-.3-.2-.5-.4-3-2.9-5.8-6-8.6-9.1-.2-.2-.4-.5-.4-.9 0-.3.2-.5.5-.6z" fill="#0c0909"/><path d="m671.1 210.3c-.2-.1-.7-.1-1.2-.3l-7.8-2.5c-.9-.3-1.8-.5-2.6-.8-.2-.1-.5-.2-.7-.3-.1-.1-.1-.4-.1-.5s.1-.2.2-.3c.5-.2 1-.2 1.5 0 1 .3 2 .6 3 .9l8 2.5h.2c.3 0 .6.3.7.6.1.4-.4.7-1.2.7z" fill="#0e0909"/><g fill="#7d7d7d"><path d="m369.2 257.4c.1-.2.2-.3.4-.5.3-.3.3-1.1.9-.8.4.2-.1.7-.1 1-.2.7-.2.9.5 1.3.2.1.5.3.7.4s.5 0 .6-.2.3-.6.5-.9c0-.1.2-.1.4-.1s.1.1.1.2c.1.7-.2 1.5-.7 2-.1.1-.2.1-.4.1-.3-.1-.5-.1-.7-.3-1.3-.8-2.7-1.6-4.1-2.4-1-.6-1-1.1-.6-1.9.1-.2.2-.5.3-.7s.2-.1.3-.2c.1.2.2.3.2.5 0 .4-.5.9-.2 1.3s.9.7 1.4 1c.1.1.3.1.5.2z"/><path d="m377.5 249.6c-.1.8-.5 1.5-.9 2.1-.1.1-.3.2-.5.2-.3-.1-.6-.2-.9-.4-1.4-.9-2.8-1.7-4.1-2.6-.2-.1-.3-.2-.4-.4-.1-.1-.1-.2 0-.3s.2-.1.4-.1c.3.2.7.4 1 .6.9.5 1.8 1.1 2.7 1.6 1.2.7 1.2.7 2.1-.5.1-.1.3-.3.4-.3-.2-.2 0 0 .2.1z"/><path d="m374.9 253.2c.5 0 .4.4.3.7-.2.2-.1.6-.3.8 0 .1 0 .3-.1.4-.4.9-.7 1-1.4.6-1.2-.7-2.4-1.5-3.6-2.2-.1-.4 0-.6.5-.4l3.5 1.9c.5-.3.6-.9.8-1.4.1-.2.2-.3.3-.4z"/><path d="m370.2 278.1c.7-1.6 1.5-3.1 2.4-4.6.1-.1.1-.2.2-.3h.4c.1.1.1.2.1.3-.1.4-.3.7-.5 1-.8 1.4-1.5 2.7-2.3 4-.3.2-.5.1-.3-.4z"/><path d="m364.2 267.6c.7-.1 1.3.4 1.4 1.1 0 .5-.3.9-.8 1 0 0 0 0-.1 0-.7.1-1.4-.4-1.5-1.1v-.1c0-.5.5-.9 1-.9z"/><path d="m376.5 245.3c-.7 0-1.2-.5-1.2-1.2 0-.5.4-.8.9-.8.6-.1 1.1.4 1.2.9v.2c-.1.5-.5.9-.9.9z"/><path d="m374.6 272.3c.5-.4.2-.9.3-1.4 0-.2.1-.4.4-.2 0 .7.1 1.4.1 2.1 0 .4 0 .8-.1 1.1s-.3.6-.7.5-.4-.4-.2-.7c.3-.3.1-.9.2-1.4z"/><path d="m370.2 278.1.4.5c-.4.9-.9 1.8-1.6 2.6-.1.1-.2.1-.3.1s-.2-.1-.2-.3c0-.1 0-.1.1-.1.4-.9 1-1.8 1.6-2.8z"/><path d="m370.3 253.1-.5.4c-.4-.2-1-.3-1.1-.9 0-.3.5-.2 1.4.3.1.1.1.1.2.2z"/><path d="m370.7 261.4c-.9-.7-1.8-1.2-2.8-1.7-.7-.6-1.6-1.1-2.5-1.5-.1 0-.4.1-.5.1.1.2.1.4.2.5.8.5 1.6.9 2.4 1.3l1.2.8c.1.9-.5.5-.9.4-.3-.1-.7-.1-1-.1-.4 0-.6.3-.4.6.5.6 1 1.2 1.5 1.8.1.2.3.5.2.7-.2.5-.5.1-.8 0-.4-.1-.9-.3-1.3-.4-.8-.5-1.6-.8-2.5-1l-.7-.2c-.1-.1-.3 0-.4.1v.1c-.1.2.1.3.3.4s.2 0 .4.1c.8.5 1.6.8 2.5 1 1.1.6 2.3 1.1 3.6 1.4.2 0 .4 0 .5-.2s.1-.4 0-.5c-.3-.7-.8-1.3-1.3-1.8-.1-.3-.4-.5-.2-.9.7.1 1.5.1 2.2.2.3 0 .7 0 .8-.3.1-.4-.2-.7-.5-.9z"/><path d="m426.3 266.8c.2 0 .4-.1.4-.2 0-.2-.1-.3-.2-.3h-.1c-.1 0-.2.1-.3.2-.1 0-.1.2.2.3-.1 0-.1 0 0 0z"/></g><path d="m375 254.7c-.1-.3.1-.6.3-.8 0 .3-.1.6-.3.8z" fill="#5c2e02"/><path d="m413.8 287.7-.3.4c0-.2.1-.4.3-.4z" fill="#371f01"/><path d="m374.9 253.2-.3.3c0-.2.1-.3.3-.3z" fill="#5c2e02"/><path d="m420.9 273.7-.2.6z" fill="#351c01"/><path d="m379.7 260.9-.4-.4z" fill="#2c1801"/><path d="m391.1 267.7.4-.5c.4-.2.8-.3.7-.8s-.3-.2-.5-.1c-.1 0-.2 0-.2.1-.1.2-.3.3-.5.3s-.3.2-.3.4c-.3.2-.4.5-.3.9-.1.7-.4 1.4-.8 2-.1.1-.1.2-.1.2-.2.5-.3 1.1-.3 1.7-.3.3-.5.6-.8.8s-.5.5-.5.8c0 1.4-1.4 2.2-1.4 3.5-1 1-.6 2.5-1.6 3.5-.2.2-.1.6.2.7.2.1.4 0 .6-.3.3-.8 1-1.5.9-2.5 0-.2.2-.4.3-.5.7-.8.6-2 1.5-2.7.1-.1.1-.2.1-.4 0-.9.4-1.6 1.1-2.2.1-.1.2-.2.3-.4.2-.6.3-1.2.2-1.8.6-.5 1-1.6 1-2.7z" fill="#7d7d7d"/><path d="m392.1 264.7c.1.1.3.1.4 0 .3-.5.8-.8.9-1.5.1-.1.1-.2 0-.4.1-.2.2-.5.2-.7.6-.2 1.1-.8 1.1-1.5 0-.6.1-1.2.4-1.7.6-.4.9-1 .9-1.6.1-.9.4-1.8 1-2.5.2-.2.3-.4.4-.7.4-1.4.9-2.8 1.6-4.1.1-.2.1-.3.2-.5l.1-.8c-.1-.4-.3-.5-.6-.2-.1.1-.1.4-.1.5-.2.4-.3.8-.6 1.2-.6.9-1 1.9-1.2 3-.1.9-1 1.5-1.3 2.4s-.2 1.9-.9 2.7c-.4.3-.7.8-.6 1.3 0 .8-.4 1.6-1 2.1-.2 0-.3.2-.3.4-.1.4-.1.9-.5 1.2-.2.1-.4.4-.3.7-.1.5 0 .6.2.7z" fill="#7d7d7d"/><path d="m405.8 274.2c-.1-.4 0-.8.4-1.1.8-.6 1.3-1.3.8-2.3-.1-.2 0-.4.1-.5.9-.9.8-2.2 1.4-3.2.1-.2.3-.5-.1-.6s-.5.1-.6.4c-.1.2-.2.3-.3.5-.2.9-.6 1.7-1.1 2.5-.2.3-.3.7-.2 1.1.2.5.1 1.1-.4 1.4-.5.4-.7.9-.7 1.5 0 .8-.3 1.2-1.1 1.2-.5 0-.7.3-.4.8.2.5.3.9-.3 1.2-.6.2-1 .9-.8 1.5.1.4.1.9-.2 1.3-.4.4-.8.7-1.2 1-.5.4 0 1.2-.5 1.6 0 0-.1 0-.2.1 0 .1-.2.4-.1.5s.3.2.4.2c.8 0 1.1-.3 1-1-.2-.6.1-1.3.7-1.6.6-.4.9-1 .8-1.7 0-.2 0-.4 0-.6.1-1 1.5-1.3 1.3-2.5 0-.1.2-.3.4-.4.8 0 1.3-.3.9-1.3z" fill="#7d7d7d"/><path d="m400.8 263.3c.4-.6-.2-1.5.5-2 .5-.4.7-1 .7-1.5 0-.4.2-.8.4-1.1s.4-.6.5-1c.1-.9.5-1.8 1-2.5.2-.4.4-.8.5-1.3.2-.5.2-1 0-1.5-.2-.4-.6-.5-.6-.1 0 1.2-.4 2.3-1 3.3-.6 1.2-.7 2.6-1.5 3.7v.2c.2.8-.4 1.1-.8 1.6s0 1.3-.3 1.9c0 .1-.1.1-.1.2-1 .6-1 1.6-1 2.5-.8.4-1.4.8-1.2 1.9.1.5-.1 1.1-.6 1.4-.4.4-.7 1-.6 1.6 0 .4-.2.7-.4 1-.3.3-.5.8-.5 1.2-.1.6-.3 1.1-1 1.2-.1 0-.3.3-.4.4-.1.5.1.9.1 1.3.1.6-.8.6-.8 1.2v.8c.1.7-.2 1.3-.8 1.6-.4.1-.7.4-.7.8 0 .3-.2.6-.5.8-.2.1-.2.4-.1.6 0 .1.1.1.2.1.9.4 1.3.1 1.2-.8 0-.4.1-.8.3-1 .5-.1.9-.6 1-1.1 0-.8.3-1.6.9-2.3.4-.4-.1-1.1.1-1.7h.5c.9.1.9.1.7-.7-.4-.8-.1-1.8.7-2.2.3-.2.4-.5.3-.9-.1-.7.1-1.4.7-1.9.4-.4.6-.9.5-1.4-.2-.8.4-1.1.8-1.6.3-.2.5-.6.4-1-.3-.8.5-1.1.9-1.7z" fill="#7d7d7d"/><path d="m411.2 278.4c-.1-.5.2-.7.7-.8.7 0 1.3-.7 1.2-1.4v-.1c-.1-.8.2-1.6.8-2.1.6-.6 1-1.4 1.1-2.3 0-.7.4-1.3.9-1.6.6-.4 1-1.1.9-1.8 0-.8.3-1.5.9-2.1.6-.8 1-1.7 1.1-2.7 0-.2-.1-.4-.2-.5-.2-.1-.4.1-.4.2-.2 1.2-.8 2.3-1.6 3.1-.4.4-.5.9-.4 1.5.1.7-.3 1.5-.9 1.8-.6.4-1 1.1-1 1.8-.1.9-.4 1.7-1.1 2.2-.6.5-.9 1.3-.8 2.1.1.7-.3 1-1 1.2-.9.2-.9.3-.9 1.2v.2c.2 1.1-.4 2.2-1.3 2.8-.3.2-.4.5-.4.9v1.4c0 .7-.3 1.3-.9 1.6-.8.4-1.2 1.3-.9 2.1.1.5-.1 1-.6 1.1-1 .3-1 1.2-1.2 2-.3 0-.5.1-.3.4s.5.3.8.2c.4-.2.4-.5.3-.9 0-.5.3-.9.7-1 .7-.2 1.2-1 1-1.7s.2-1.5.9-1.8c.4-.3.7-.8.8-1.3s.2-1 .2-1.5c0-.6.2-.9.8-.7.2 0 .4-.1.4-.3-.3-1.1.6-2.1.4-3.2z" fill="#7d7d7d"/><path d="m424 268.4c-.1-.1-.2-.1-.3-.1-.3 0-.6.2-.8.5-.2.4-.3.9-.3 1.3 0 .7 0 1.2-.9 1.5-.6.2-.7.9-.8 1.5l-.1.6c0 .2-.1.4-.2.6-.2.9-.3 1.7-1.5 1.9-.5.1-.7.5-.6 1s.1.8.1 1.1c0 .5-.2 1-.5 1.4-.6.2-1.1.7-1.2 1.3-.1.4-.1.8-.2 1.1-.1.4-.1.6-.5.7-.8.2-.9.8-.9 1.5v1.4c0 .6-.3 1.1-.9 1.4-.2.1-.4.3-.6.5-.1.1-.2.2-.3.4-.1.4-.2.8-.1 1.2-.1.7-.2 1.4-.9 1.8-.8.3-1.2 1.2-1.1 2 0 .4-.2.5-.6.6-.2 0-.3.2-.3.3.6.6 1 .6 1.6 0 .1-.1.1-.2.1-.4-.2-.9.3-1.9 1.1-2.2.5-.3.7-.8.8-1.3 0-.5 0-1 0-1.6.1-.1.1-.2.3-.3 1.2-.5 1.9-1.7 1.7-3 0-.3 0-.5 0-.8s.1-.5.4-.6c.9-.2 1-.9 1-1.7s.4-1.6 1.1-1.9c.5-.2.9-.6.9-1.2 0-.5 0-.9 0-1.4 0-.8.1-.9.9-.9.3 0 .6.2 1-.1 0-.4-.1-.8-.1-1.3 0-.4.1-.9.2-1.4.3-.8.8-1.4 1.4-2 .3-.2.4-.5.4-.9-.1-.9.1-1.8.7-2.5 0 .2 0 .1 0 0z" fill="#7d7d7d"/><path d="m391.4 266.5-.5.3z" fill="#432001"/><path d="m389.5 272.8.3-.4z" fill="#392001"/><path d="m752.7 195.4c.1.1.3.2.4.3.2.3.3.6.5.8 2.2 4.2 4.8 8.1 7.7 11.8.7.9 1.5 1.8 2.3 2.7.2.2.3.4.5.6.1.2.1.5-.1.7s-.5.3-.7.2c-.3-.1-.6-.3-.8-.5-.4-.4-.8-.8-1.2-1.3-3.3-4-6.2-8.4-8.6-13.1-.3-.5-.5-1.1-.6-1.6 0-.3.2-.5.6-.6z" fill="#070606"/><path d="m757.5 193.5c.1 0 .3 0 .4.1.2.2.4.4.5.6 1.1 2.4 2.2 4.9 3.3 7.3.2.3.3.7.4 1.1.2.4 0 .8-.4 1-.3.1-.7 0-.8-.3-.1-.1-.1-.2-.2-.3-1.1-2.6-2.3-5.2-3.5-7.9-.1-.3-.2-.6-.2-.9 0-.5.3-.6.5-.7z" fill="#0d0c0c"/><path d="m516.7 108.5c.8-.1 1.6.1 2.3.4.3.1.5.4.7.7.1.3-.1.7-.4.8h-.1c-.2 0-.4 0-.6-.1-.6-.2-1.1-.3-1.7-.3-1.9-.3-3.7.8-4.4 2.6-.1.2-.2.4-.3.5-.2.3-.6.5-1 .3-.5-.2-.6-.8-.4-1.2 0 0 0-.1.1-.1.4-.6.9-1.2 1.3-1.7 1.1-1.3 2.8-2 4.5-1.9z" fill="#0f0c0c"/><path d="m529.5 106.4c1.2.1 2.3.4 3.3.9.4.2.7.4.8.8.1.2.1.5-.1.7-.2.1-.3.2-.5.2-.3-.1-.5-.2-.7-.3-.7-.3-1.4-.6-2.2-.8-.9-.2-1.7-.1-2 .9 0 .1-.1.2-.2.3-.2.2-.5.3-.7.2-.3-.1-.5-.4-.4-.8.2-1.1 1.1-2 2.2-2.1z" fill="#0e0909"/><path d="m503.6 135.1c-.2.4.3.7.2 1.1s-.5.6-.8.6c-.8-.4-1.2-1.2-1.1-2.1.1-.5.7-.9 1.2-.7.1 0 .1 0 .2.1.3 0 .3.1.3 1z" fill="#1f1f1f"/><path d="m802.8 141.4c3 .2 5.5 1.5 7 4.5.2.4.3.9.2 1.3-.1.2-.2.3-.4.4s-.5.1-.7-.2c-.2-.4-.4-.8-.6-1.2-1.1-2.1-3.3-3.5-5.8-3.5-.5 0-1 .1-1.5.4-.3.1-.6 0-.8-.3v-.1c-.2-.4.1-.6.3-.8.8-.4 1.6-.6 2.3-.5z" fill="#0d0909"/><path d="m785.5 135.7c2.4.1 4.2.9 5.1 3.4.1.2.1.5.1.8 0 .2-.2.3-.3.4-.2.2-.5.1-.7-.1s-.4-.5-.5-.8c-.9-2-3.2-2.9-5.2-2 0 0 0 0-.1 0-.4.1-.7.4-1 .5s-.7 0-.8-.3c-.1-.3 0-.7.3-.8.8-.7 1.9-1.1 3.1-1.1z" fill="#0f0c0c"/><path d="m788.3 155.4c0-.2 0-.3.1-.5 0-.3.3-.5.7-.5.3 0 .5.2.5.5-.2 1.2.5 1.8 1.5 2.2.2.1.4.1.5.2.3.1.4.5.3.8-.1.2-.4.4-.6.3-1.7 0-3-1.3-3-3z" fill="#110d0d"/><path d="m813.1 156c-.1 0-.2-.1-.4-.1-.4-.2-.5-.8-.2-1 1-.4 1.9-1.1 2.5-2.1.1-.2.4-.3.6-.2.3.1.5.5.3.8-.5 1.2-1.4 2.1-2.6 2.5 0 .1-.1.1-.2.1z" fill="#1e1b1b"/><path d="m562.8 166.9c.1-1.5.4-2.9 1.1-4.2.8-1.9 3.1-2.9 5-2.1.1 0 .2.1.3.1.6.2 1.2.5 1.8.8.4.2.6.6.4 1.1v.1c-.2.3-.7.4-1 .2-.6-.3-1.2-.6-1.8-.8-1.2-.6-2.6-.2-3.2 1 0 .1-.1.1-.1.2-.5.9-.9 1.9-.9 3 0 .5-.1.9-.2 1.4-.1.3-.4.6-.7.5-.2-.1-.4-.3-.5-.5-.2-.3-.2-.5-.2-.8z" fill="#0c0a0a"/><path d="m577.7 191.6c-.2 0-.4-.1-.7-.1-1.3-.1-2.3-1.3-2.2-2.7 0-.4.1-.7.3-1 .9-1.7 2.3-3.1 4-3.9.2-.1.5-.1.8-.1s.5.1.6.4 0 .5-.2.7c-.3.2-.6.3-.9.4-1.1.6-2.1 1.6-2.8 2.7-.4.4-.4 1-.1 1.5.3.4.9.6 1.4.5.4 0 .8-.1 1.2-.2h1.2c.3 0 .6.3.6.6.1.3-.2.7-.5.7-.9.3-1.8.4-2.7.5z" fill="#0a0707"/><path d="m562.7 186.5c-1.1.1-2.2-.6-2.7-1.6-.2-.5-.2-1 .2-1.2.3-.2.7-.1.9.2 0 .1.1.1.1.2.3.7 1.1 1.2 1.9 1 .5-.1.9.3.8.6-.1.4-.4.7-.8.8z" fill="#120d0d"/><path d="m721.6 369c.3 0 .5.1.6.3.2.3.3.7.4 1.1.1 1.6.4 3.1.8 4.6.1.3 0 .5-.2.7s-.4.3-.7.2c-.4-.3-.7-.6-.8-1.1-.2-.8-.4-1.5-.4-2.3s-.2-1.6-.6-2.2c-.2-.4 0-1 .4-1.2.3 0 .4 0 .5-.1z" fill="#121111"/><path d="m698 374c-.1-.8 0-1.6.2-2.4.1-.4.6-.6 1-.4.4.2.8.5.6.9-.5 1.4-.2 2.8-.1 4.2v.8c-.1.3-.3.5-.5.5-.3 0-.5-.1-.6-.4s-.2-.6-.3-.9c-.2-.9-.3-1.7-.3-2.3z" fill="#161717"/><path d="m690.3 372.6v2c0 .3-.1.5-.2.7-.2.3-.5.3-.8.1-.1 0-.1-.1-.1-.1-.1-.2-.2-.4-.3-.7 0-1.4 0-2.9.1-4.3 0-.2.1-.4.2-.5.2-.3.6-.4.9-.2.1.1.2.2.3.3.1.3.1.5.1.8z" fill="#1f1f1f"/><path d="m715.3 373.5c0 .4 0 1.1-.1 1.9 0 .3-.3.6-.6.6-.3 0-.5-.2-.6-.4-.1-.4-.2-.7-.2-1.1.1-1.2.2-2.3.2-3.5 0-.1 0-.3.1-.4.1-.2.2-.3.4-.4.3-.1.5 0 .7.2.2.4.3.8.3 1.3-.1.5-.1 1-.2 1.8z" fill="#131212"/><path d="m738.2 370.2v1.1c0 .3-.3.6-.6.6-.4 0-.6-.2-.7-.6 0-.1-.1-.3-.1-.4-.2-1.1 0-2.3-.7-3.4-.2-.3.2-.8.5-.9s.7 0 .9.3c.3.4.5.9.5 1.5.1.6.1 1.2.2 1.8z" fill="#121111"/><path d="m681.7 372.8c.1-.5.1-1.2.2-1.8.1-.3.4-.5.7-.5s.6.3.6.6v.4c-.3 1-.3 2.1.1 3.1 0 .2.1.4 0 .6 0 .3-.2.5-.4.6-.3.1-.5 0-.7-.2-.2-.3-.4-.6-.5-1 .1-.7 0-1.3 0-1.8z" fill="#0f0d0d"/><path d="m743.7 367.1c0 .2 0 .4-.1.5 0 .3-.3.5-.6.5-.2 0-.4-.1-.5-.2-.2-.2-.3-.4-.3-.7 0-.9-.2-1.8-.7-2.6-.2-.4.1-.9.5-1.1s.8 0 1.1.6c.4.9.6 2 .6 3z" fill="#191919"/><path d="m707.2 374.6c0 .5-.1 1.1-.1 1.8 0 .1-.2.3-.4.4-.1.1-.5-.1-.7-.3-.1-.2-.2-.3-.2-.5 0-1.1 0-2.2 0-3.3 0-.1 0-.3.1-.4s.3-.2.4-.3c.3-.1.5.1.6.4.1.6.2 1.3.3 2.2z" fill="#0a0a0a"/><path d="m747.4 363c0 .7-.1 1-.5 1-.3.1-.7-.1-.8-.4-.3-.7-.3-1.6-1-2.2-.2-.2.1-.6.3-.8s.6-.3.9-.1c.2.1.4.3.5.6.4.6.5 1.2.6 1.9z" fill="#1b1616"/><path d="m430.4 277.1c-.9-1-.8-2.2-.9-3.3-.2-2.5-.6-4.9-1.2-7.3 0-.1 0-.1 0-.2 0-.3-.1-.5-.4-.6s-.4.3-.4.5c.2.8-.1 1.6.4 2.2-.1.2-.1.5-.4.6s-.5.1-.7.2-.3.3-.2.5c0 0 .1.1.1.1.4.2.8.4 1.2.6 0 0 .1 0 .1.1s.1.2-.1.2c-.1 0-.1 0-.2 0-1.6.5-1.7.7-.5 1.9 0 0 .1.1.2.1 0 .1 0 .2.1.2-.2.3 0 .5.1.7s.7.5.5 1c-.2.1-.4.2-.6.3-.5.4-.7 1.1-1.6.6-.1-.1-.2-.1-.4-.1s-.3.1-.5.2c-.2.2 0 .4.2.5.7.2 1.3.6 1.9 1 .6.7 1.6.5 2.3.9.4.4 1.3-.6 1-.9zm-2.3-4.5-.3-.3c-.2-.2-.4-.4-.3-.6s.4-.2.7-.2h.2c0 .5.1.9-.3 1.1zm.8 4.2c0 .1-.2.1-.3.2-.1 0-.2-.1-.4-.1-.1-.1-.3-.2-.4-.4.1-.1.3-.1.5-.2h.4c.2 0 .3.2.2.5.1-.1 0-.1 0 0z" fill="#7d7d7d"/><path d="m376.9 269.4c0 .4-.1.8-.5 1-.5.2-.7-.3-.9-.9-.1-.3 0-.7.3-.8.2-.1.5-.1.7-.1.4.1.4.5.4.8z" fill="#cb7203"/><path d="m384.1 253.7v.3s-.3.1-.3.1c-.3-.2-.5-.4-.7-.6-.1-.1-.1-.4-.1-.5.2-.3.4-.1.6.1s.3.4.5.6z" fill="#a86603"/><path d="m380.1 263.4c.1 0 .2.1.2.2-.1 0-.2-.1-.2-.2z" fill="#080300"/><path d="m532.9 134c-.4 0-.8 0-1 0-2.6.2-5.2.6-7.7 1.2-.5.2-.8.7-.7 1.2 0 .1.1.2.2.3.5.7 1 1.4 1.4 2.1.4.8.8 1.5 1.2 2.2.8 1.4 1.9 2.5 3.3 3.2 1.6.8 2.5.4 3-1.3s1-3.6 1.5-5.5c.2-.6.3-1.1.4-1.7.2-.8-.3-1.7-1.2-1.8-.2.1-.3.1-.4.1zm-.8 4.8c-.3 1.2-.6 2.4-1 3.6-.2.9-.6 1-1.4.4-1-.7-1.8-1.6-2.3-2.6-.7-1.2-1.3-2.4-2-3.7 2.4-.7 5-1 7.5-.9-.3 1.2-.5 2.2-.8 3.2z" fill="#050404"/><path d="m522.4 115.6c-.7-.4-1.6-.2-2 .5-.1.1-.1.3-.2.4-.1.3-.2.7-.2 1-.1 1.5.5 2.9 1.6 3.9.6.5 1.4.5 1.9-.1.2-.2.4-.4.5-.6.7-1.9.1-4-1.6-5.1zm-.2 3.7c-.1.2-.3.3-.5.2-.2-.1-.3-.2-.4-.4-.4-.6-.4-1.3 0-1.8.1-.1.2-.1.3-.1.5 0 .7.6.7 1.6v.2c0 .1 0 .2-.1.3zm1.1.2c-.2-.1-.2-.2-.2-.4 0 0 0 0 0-.1.1-.1.2-.2.3-.2.2 0 .4.2.3.4 0 .3-.2.4-.4.3z" fill="#0b0a0a"/><path d="m532.9 113.7c-.6-.5-1.2-1.1-2.1-.8-.7.4-1.2 1.2-1.1 2.1 0 1.2.5 2.3 1.4 3.2.5.6 1.5.7 2.1.2.2-.2.4-.4.4-.6.8-1.4.5-3.1-.7-4.1zm-1.1 2.4c-.1.1-.2.2-.2.2-.2 0-.4-.1-.5-.2s-.1-.2-.2-.3c-.2-.7-.1-1.2.2-1.4h.2c.4.1.6.6.6 1.3 0 .2 0 .3-.1.4zm1.4.6c-.2.1-.3 0-.3-.2 0-.1 0-.2.1-.3s.3 0 .3.2c.1.1.1.2 0 .3 0 0 0 0-.1 0z" fill="#100e0e"/><path d="m797.6 161.8c-.3 0-.5 0-.8 0-3.4.2-6.8-.3-10-1.4-.3-.1-.6-.2-.8-.2-.5.1-.7.3-.8.6-.1.2-.1.5-.1.8.1.8.4 1.6.9 2.4 1 1.9 2.1 3.8 3.1 5.7.2.5.5.9.9 1.3.4.5 1.2.6 1.7.2h.1c.4-.3.8-.7 1.1-1.1 1.6-1.9 3.2-3.8 4.8-5.7.3-.4.6-.7.8-1.1.3-.4.2-.9-.2-1.2-.3-.2-.5-.3-.7-.3zm-6.3 7.7c-.1.1-.2.1-.3.2-.4 0-.5-.4-.6-.6-.9-2-2-3.8-3.1-5.7-.2-.3-.3-.6-.4-.9-.1-.2-.2-.4.1-.5h.4l3.2.8c1.6.4 3.3.6 5 .5.3 0 .5.1.8.1z" fill="#050404"/><path d="m787.7 144.8c-.7-.8-1.9-.8-2.6-.1-1 .8-1.7 2-1.7 3.4-.1.9.2 1.7.8 2.3.9 1 2.4 1.2 3.4.3.3-.2.5-.5.6-.8.4-.7.5-1.5.5-2.2.1-1.1-.2-2.2-1-2.9zm-2 3.2c-.1.1-.3.2-.5.2s-.3-.2-.4-.3c-.1-.6-.1-1.2.1-1.7.1-.2.2-.3.4-.3.3-.1.5.1.6.3s.1.3.1.5c0 .5.1 1-.3 1.3zm1.7 1.4c-.1.1-.2.3-.3.4-.3 0-.5 0-.6-.2-.2-.3-.2-.8.1-1.1.2-.2.4-.2.6 0 .2.2.3.6.2.9z" fill="#0a0909"/><path d="m805.3 150.2c0-.9-.5-1.7-1.4-2-.8-.4-1.8-.1-2.2.7-.9.7-1.5 1.8-1.5 3-.1.8.2 1.6.7 2.2.4.6 1.2.9 1.9.7.7-.1 1.4-.5 1.7-1.2.7-.9 1-2.2.8-3.4zm-2.6 1.9c-.2.2-.5.4-.8.5s-.6 0-.7-.3v-.1c-.2-.8.1-1.7.7-2.3.2-.2.6 0 .9 0 .2.7.1 1.4-.1 2.2zm1.3 1.1c-.2.1-.3.1-.5.2-.3 0-.6-.2-.5-.6.1-.2.2-.5.3-.7.8.1.8.1.7 1.1z" fill="#090606"/><path d="m386.5 250.4c-.1-.1-.1-.2-.2-.2-.2-.1-.3 0-.3.1 0 .4-.1.8-.1 1.1-.5.6-.2 1.6-.9 2.1-.5-.4-.9-.9-1.4-1.3-.3-.3-.9-.4-1.2-.1-.4.4-.5 1-.1 1.4.3.6.8 1 1.5 1.2.8.2.7.8.6 1.4-.4.3-1 .4-1.5.2s-1.1-.4-1.6-.6c-.3-.1-.7.2-.7.5v.2c.1.5.2 1 .4 1.5-.7 0-1.4-.7-2-.1-.1.1-.5.5-.4.6-.2.4-.2.8 0 1.1v.8c-.3.1-2.1.6-1.2 1.9 0 0 .4.9.5 1 .1.2.2.4.3.6 0 .2 0 .4.1.6s.1 1.8-.5 2.3c-.3-.2-.6-.5-.7-.9-.5-1.1-1.1-2-1.9-2.9-.4-.5-1-.9-1.6-1.1-.5-.1-.9.1-1.1.6-.1.3-.1.6 0 1 .4 1.1 1.1 2.1 2 2.8.5.4.9.7 1.4 1-1.4 1.5-1.6 1.9-1.4 4 0 .4.1.8.1 1.2 1-.2.1-1.2.7-1.6.1.1.2.1.3.2 1 .4 1.4.2 1.8-.7.2-.6.3-1.3.2-1.9 0-.4.1-.8.4-1 .8-.3.8-1 .8-1.7 0-.4 0-.8.1-1.1.2-.4.7-.1 1-.3.2-.1.3-.2.4-.4.6-.5.6-1.4.1-2 0 0-.1-.1-.1-.1-.2-.3-.5-.5-.8-.7-.2-.1-.3-.2-.4-.4-.3-.3-.2-.6-.4-1 0-.1 0-.3.1-.4.2-.8.4-.9 1-.6s1 .6 1.5.9 1.1.5 1.2.2c.2-.4-.2-.7-.4-1-.4-.5-.7-1.2-.7-1.9.5.2 1 .4 1.5.5.6.3 1.4 0 1.6-.6.1-.1.2-.2.2-.3.2-1.1.5-2.2 1.1-3.2.2-.4.3-.8.2-1.3.1-.3.2-.6.2-.9.3-.2.3-.4.3-.7zm-10.6 15.5c-.1 0-.2.1-.3.1-1.2-.6-2.1-1.6-2.5-2.9-.1-.2 0-.4.2-.5h.2c1.2.7 2.1 1.8 2.5 3.1 0 .1 0 .2-.1.2zm3.3-3 .1-.6c0-.3.2-.5.5-.6 0 .1.1.1.2.1 0 .1 0 .2.1.2.2.2.2.5.1.8-.1.1-.1.2-.1.4l-.7.1c0-.1-.1-.1-.1-.2l-.1-.1h.1c-.2 0-.2-.1-.1-.1zm-.8-.3-.4-.1-.4-.5c0-.2 0-.3 0-.5.9-.2.9-.2 1 .9 0 0-.1.1-.2.2z" fill="#7d7d7d"/></svg>