<svg xmlns="http://www.w3.org/2000/svg" data-name="Layer 1" viewBox="0 0 64 64"><path d="M23.06,51.1a1.73,1.73,0,0,0,.19,1.35l1.29,2.13a1.83,1.83,0,0,0,2.44.64l.37-.2a8.47,8.47,0,0,0,1.56.86v.35A1.79,1.79,0,0,0,30.71,58h2.58a1.79,1.79,0,0,0,1.8-1.77v-.35A8.15,8.15,0,0,0,36.65,55l.37.2a1.83,1.83,0,0,0,2.44-.64l1.29-2.13A1.75,1.75,0,0,0,40.08,50l-.33-.18a6.91,6.91,0,0,0,0-1.66l.33-.18a1.75,1.75,0,0,0,.67-2.44l-1.29-2.13A1.83,1.83,0,0,0,37,42.78l-.37.2a8.47,8.47,0,0,0-1.56-.86v-.35A1.79,1.79,0,0,0,33.29,40H30.71a1.79,1.79,0,0,0-1.8,1.77v.35a8.15,8.15,0,0,0-1.56.86l-.37-.2a1.83,1.83,0,0,0-2.44.64l-1.29,2.13A1.75,1.75,0,0,0,23.92,48l.33.18a6.91,6.91,0,0,0,0,1.66l-.33.18A1.74,1.74,0,0,0,23.06,51.1ZM26.2,49a6,6,0,0,1,.05-.74,1.75,1.75,0,0,0-.9-1.76l-.25-.14,1.06-1.75.32.18a1.87,1.87,0,0,0,2-.15,5.79,5.79,0,0,1,1.29-.71,1.79,1.79,0,0,0,1.15-1.65V42h2.18v.28a1.79,1.79,0,0,0,1.15,1.65,5.79,5.79,0,0,1,1.29.71,1.87,1.87,0,0,0,2,.15l.32-.18,1.06,1.75-.25.14a1.75,1.75,0,0,0-.9,1.76,5.5,5.5,0,0,1,0,1.48,1.75,1.75,0,0,0,.9,1.76l.25.14-1.06,1.75-.32-.18a1.87,1.87,0,0,0-2,.15,5.79,5.79,0,0,1-1.29.71,1.79,1.79,0,0,0-1.15,1.65V56H30.91v-.28a1.79,1.79,0,0,0-1.15-1.65,5.79,5.79,0,0,1-1.29-.71,1.87,1.87,0,0,0-2-.15l-.32.18L25.1,51.64l.25-.14a1.75,1.75,0,0,0,.9-1.76A6,6,0,0,1,26.2,49Z"/><path d="M32,53a4,4,0,1,0-4-4A4,4,0,0,0,32,53Zm0-6a2,2,0,1,1-2,2A2,2,0,0,1,32,47Z"/><path d="M57.5,36h-1A4.51,4.51,0,0,0,52,40.5v1c0,.08,0,.15,0,.23l-3,3V37a1,1,0,0,0-1-1H36V34h8a3,3,0,0,0,2.83-2A8,8,0,0,0,47,16.07V15a3,3,0,0,0-3-3H20a3,3,0,0,0-3,3v.07a7.85,7.85,0,0,0-2,.52V9.86a4,4,0,1,0-2,0v6.9a8,8,0,0,0,4,14.17V31a3,3,0,0,0,3,3h8v2H16a1,1,0,0,0-1,1v7.76l-3-3c0-.08,0-.15,0-.23v-1A4.51,4.51,0,0,0,7.5,36h-1A4.51,4.51,0,0,0,2,40.5v1A4.51,4.51,0,0,0,6.5,46h1l.23,0L15,53.24V61a1,1,0,0,0,1,1H48a1,1,0,0,0,1-1V53.24L56.27,46l.23,0h1A4.51,4.51,0,0,0,62,41.5v-1A4.51,4.51,0,0,0,57.5,36ZM12,6a2,2,0,1,1,2,2A2,2,0,0,1,12,6ZM52,24a6,6,0,0,1-5,5.91V18.09A6,6,0,0,1,52,24ZM12,23a6,6,0,0,1,5-5.91V28.91A6,6,0,0,1,12,23Zm7,8V15a1,1,0,0,1,1-1H44a1,1,0,0,1,1,1V31a1,1,0,0,1-1,1H20A1,1,0,0,1,19,31Zm11,3h4v2H30ZM4,41.5v-1A2.5,2.5,0,0,1,6.5,38h1A2.5,2.5,0,0,1,10,40.5v1A2.5,2.5,0,0,1,7.5,44h-1A2.5,2.5,0,0,1,4,41.5Zm5.88,3.8a4.38,4.38,0,0,0,1.42-1.42l3.7,3.7v2.84ZM47,60H17V38H47Zm2-9.58V47.58l3.7-3.7a4.38,4.38,0,0,0,1.42,1.42ZM60,41.5A2.5,2.5,0,0,1,57.5,44h-1A2.5,2.5,0,0,1,54,41.5v-1A2.5,2.5,0,0,1,56.5,38h1A2.5,2.5,0,0,1,60,40.5Z"/><path d="M25.5 16A5.51 5.51 0 0 0 20 21.5h2a3.5 3.5 0 0 1 7 0h2A5.51 5.51 0 0 0 25.5 16zM38.5 16A5.51 5.51 0 0 0 33 21.5h2a3.5 3.5 0 0 1 7 0h2A5.51 5.51 0 0 0 38.5 16z"/></svg>